{"glyphs":{"0":{"ha":806,"x_min":0,"x_max":0,"o":"m 403 1008 b 248 963 341 1008 289 993 b 149 845 207 933 174 894 b 96 679 124 797 106 741 b 81 490 86 617 81 554 b 96 302 81 426 86 364 b 149 137 106 241 124 185 b 248 19 174 88 207 49 b 403 -25 289 -10 341 -25 b 556 19 464 -25 515 -10 b 656 137 597 49 631 88 b 709 302 681 185 698 241 b 725 490 720 364 725 426 b 709 679 725 554 720 617 b 656 845 698 741 681 797 b 556 963 631 894 597 933 b 403 1008 515 993 464 1008 z m 403 924 b 510 883 445 924 481 910 b 578 781 538 856 561 822 b 613 641 594 739 606 692 b 624 490 620 590 624 539 b 613 340 624 441 620 391 b 578 202 606 289 594 243 b 510 101 561 161 538 127 b 403 61 481 74 445 61 b 294 101 359 61 323 74 b 226 202 266 127 243 161 b 192 340 210 243 198 289 b 182 490 185 391 182 441 b 192 641 182 539 185 590 b 226 781 198 692 210 739 b 294 883 243 822 266 856 b 403 924 323 910 359 924 z "},"1":{"ha":806,"x_min":0,"x_max":0,"o":"m 497 0 l 497 983 l 408 983 l 158 778 l 219 708 l 397 860 l 397 0 z "},"2":{"ha":806,"x_min":0,"x_max":0,"o":"m 700 0 l 700 89 l 179 89 l 533 440 b 594 505 555 462 575 483 b 645 574 614 527 631 550 b 680 650 659 598 671 623 b 693 738 689 677 693 706 b 669 855 693 782 685 821 b 604 940 653 889 631 917 b 510 991 577 962 546 979 b 397 1008 475 1003 437 1008 b 289 990 358 1008 322 1002 b 199 940 256 978 226 962 b 133 864 173 919 151 894 b 96 768 115 834 102 802 l 194 749 b 264 874 205 800 228 841 b 397 924 300 907 344 924 b 472 910 423 924 448 919 b 534 873 495 902 516 889 b 576 814 552 857 566 837 b 592 736 587 791 592 765 b 582 672 592 714 588 692 b 556 613 575 651 567 631 b 517 559 544 594 532 576 b 474 511 503 542 488 526 l 71 104 l 71 0 z "},"3":{"ha":806,"x_min":0,"x_max":0,"o":"m 297 558 l 297 472 l 340 472 b 435 462 373 472 404 469 b 517 428 465 455 493 444 b 574 366 541 412 560 391 b 596 272 589 341 596 309 b 578 183 596 239 590 209 b 530 117 566 157 550 135 b 460 76 510 99 487 85 b 379 61 434 66 407 61 b 246 101 329 61 285 74 b 163 211 207 127 179 164 l 68 176 b 190 27 96 112 137 62 b 379 -25 244 -8 307 -25 b 501 -5 422 -25 462 -18 b 601 53 539 9 573 28 b 670 147 630 79 653 110 b 696 272 687 183 696 225 b 639 435 696 339 677 393 b 497 517 601 478 554 505 l 497 519 b 619 598 546 532 587 559 b 668 744 652 637 668 686 b 645 858 668 787 660 825 b 583 940 630 891 609 918 b 491 991 556 963 526 979 b 381 1008 456 1003 419 1008 b 219 970 320 1008 267 996 b 103 853 172 945 133 906 l 188 808 b 265 894 207 846 233 875 b 375 924 297 914 333 924 b 449 910 401 924 426 919 b 512 873 473 902 494 889 b 554 815 530 857 544 837 b 569 739 564 792 569 767 b 551 656 569 706 563 679 b 502 599 539 632 523 614 b 429 568 481 585 457 575 b 340 558 401 562 372 558 z "},"4":{"ha":806,"x_min":0,"x_max":0,"o":"m 606 325 l 606 983 l 475 983 l 58 335 l 58 238 l 508 238 l 508 0 l 606 0 l 606 238 l 750 238 l 750 325 z m 508 871 l 508 325 l 163 325 l 506 871 z "},"5":{"ha":806,"x_min":0,"x_max":0,"o":"m 660 894 l 660 983 l 158 983 l 149 476 b 248 516 180 493 213 506 b 353 531 283 526 318 531 b 450 514 388 531 420 525 b 527 467 480 503 505 487 b 578 392 549 446 566 422 b 597 294 591 363 597 331 b 580 201 597 261 591 230 b 532 127 568 173 552 148 b 459 78 512 106 487 90 b 367 61 431 67 400 61 b 248 97 323 61 284 73 b 168 194 212 121 186 154 l 78 154 b 192 24 105 100 143 56 b 372 -25 241 -9 301 -25 b 505 0 420 -25 465 -17 b 608 69 545 17 580 40 b 675 173 637 98 659 133 b 699 304 691 213 699 257 b 675 429 699 350 691 391 b 608 527 659 467 637 500 b 507 590 580 554 546 575 b 379 613 468 605 425 613 b 310 607 357 613 334 611 b 243 590 287 603 264 598 l 250 894 z "},"6":{"ha":806,"x_min":0,"x_max":0,"o":"m 279 554 l 556 983 l 440 983 l 172 551 b 110 426 148 512 127 470 b 83 285 92 383 83 336 b 107 158 83 238 91 196 b 174 61 123 120 145 88 b 275 -2 202 34 236 13 b 403 -25 314 -17 356 -25 b 531 -2 449 -25 492 -17 b 632 61 569 13 603 34 b 699 158 661 88 683 120 b 722 285 714 196 722 238 b 699 408 722 329 715 370 b 636 503 684 445 663 477 b 541 565 609 530 578 550 b 422 588 504 580 465 588 b 344 578 397 588 371 584 b 282 551 318 571 297 563 z m 183 285 b 199 373 183 316 188 346 b 242 444 209 400 223 424 b 312 490 261 464 284 479 b 403 507 339 501 369 507 b 494 490 436 507 466 501 b 563 444 521 479 544 464 b 607 373 582 424 597 400 b 622 285 617 346 622 316 b 606 195 622 252 617 222 b 561 124 596 168 581 144 b 492 77 542 104 519 89 b 403 60 465 66 435 60 b 314 77 370 60 341 66 b 244 124 287 89 264 104 b 199 195 225 144 210 168 b 183 285 189 222 183 252 z "},"7":{"ha":806,"x_min":0,"x_max":0,"o":"m 692 892 l 692 983 l 108 983 l 108 894 l 590 894 l 183 0 l 296 0 z "},"8":{"ha":806,"x_min":0,"x_max":0,"o":"m 532 521 l 532 524 b 592 556 554 531 574 542 b 639 608 610 571 626 588 b 669 673 652 628 662 649 b 681 746 677 697 681 721 b 658 854 681 786 673 822 b 598 937 644 887 623 914 b 509 990 572 959 543 977 b 403 1008 475 1002 440 1008 b 296 990 365 1008 329 1002 b 208 937 263 977 233 959 b 147 854 182 914 162 887 b 125 746 132 822 125 786 b 136 673 125 721 129 697 b 167 608 144 649 154 628 b 213 556 180 588 195 571 b 274 524 231 542 251 531 l 274 521 b 199 485 247 513 222 500 b 140 427 177 469 157 450 b 101 351 124 404 111 379 b 88 258 92 322 88 292 b 113 141 88 215 96 176 b 182 52 130 106 153 77 b 283 -5 211 28 244 9 b 403 -25 321 -18 361 -25 b 523 -5 444 -25 484 -18 b 624 52 561 9 595 28 b 692 141 652 77 675 106 b 718 258 709 176 718 215 b 665 428 718 325 700 381 b 532 521 630 474 586 505 z m 222 740 b 236 813 222 766 227 791 b 274 872 245 836 258 855 b 331 910 291 888 309 900 b 403 924 353 919 377 924 b 474 910 429 924 453 919 b 531 872 496 900 515 888 b 569 813 547 855 560 836 b 583 740 579 791 583 766 b 569 669 583 714 579 691 b 531 614 560 648 547 630 b 473 577 514 598 495 586 b 403 564 451 568 428 564 b 333 577 378 564 354 568 b 275 614 311 586 292 598 b 236 669 258 630 245 648 b 222 740 227 691 222 714 z m 188 269 b 203 351 188 299 193 326 b 247 417 213 376 228 398 b 315 460 266 435 288 450 b 403 475 341 470 370 475 b 491 460 435 475 465 470 b 559 417 517 450 540 435 b 603 351 578 398 593 376 b 618 269 613 326 618 299 b 603 186 618 240 613 212 b 559 119 593 160 578 138 b 491 76 540 101 517 86 b 403 60 465 65 435 60 b 315 76 370 60 341 65 b 247 119 288 86 266 101 b 203 186 228 138 213 160 b 188 269 193 212 188 240 z "},"9":{"ha":806,"x_min":0,"x_max":0,"o":"m 529 429 l 253 0 l 368 0 l 636 432 b 699 557 660 472 681 513 b 725 699 716 600 725 648 b 701 824 725 744 717 786 b 635 922 686 863 663 895 b 533 985 606 949 572 970 b 406 1008 494 1001 452 1008 b 278 985 359 1008 317 1001 b 176 922 239 970 205 949 b 110 824 148 895 125 863 b 86 699 94 786 86 744 b 109 576 86 654 94 613 b 172 480 124 538 145 506 b 267 418 199 453 231 433 b 386 396 304 403 344 396 b 464 406 411 396 437 399 b 526 432 491 412 512 421 z m 625 699 b 610 610 625 667 620 638 b 566 540 600 583 585 559 b 497 493 547 520 524 504 b 406 476 469 482 439 476 b 315 493 372 476 342 482 b 245 540 287 504 264 520 b 201 610 226 559 212 583 b 186 699 191 638 186 667 b 202 788 186 730 191 760 b 247 859 213 815 228 839 b 317 906 267 879 290 895 b 406 924 344 918 373 924 b 494 906 438 924 468 918 b 564 859 521 895 544 879 b 609 788 583 839 598 815 b 625 699 620 760 625 730 z "},"\u0000":{"ha":694,"x_min":0,"x_max":0,"o":""},"\r":{"ha":0,"x_min":0,"x_max":0,"o":""}," ":{"ha":347,"x_min":0,"x_max":0,"o":""},"!":{"ha":456,"x_min":0,"x_max":0,"o":"m 278 267 l 278 983 l 178 983 l 178 267 z m 303 67 b 282 119 303 86 296 103 b 228 142 268 134 250 142 b 174 119 206 142 188 134 b 153 67 160 103 153 86 b 174 15 153 47 160 30 b 228 -8 188 -1 206 -8 b 282 15 250 -8 268 -1 b 303 67 296 30 303 47 z "},"\"":{"ha":563,"x_min":0,"x_max":0,"o":"m 139 983 l 139 657 l 222 657 l 222 983 z m 340 983 l 340 657 l 424 657 l 424 983 z "},"#":{"ha":772,"x_min":0,"x_max":0,"o":"m 190 297 l 149 0 l 233 0 l 275 297 l 460 297 l 418 0 l 503 0 l 544 297 l 688 297 l 688 381 l 556 381 l 586 606 l 724 606 l 724 689 l 599 689 l 639 983 l 554 983 l 514 689 l 329 689 l 369 983 l 285 983 l 244 689 l 82 689 l 82 606 l 232 606 l 201 381 l 49 381 l 49 297 z m 286 381 l 317 606 l 501 606 l 471 381 z "},"$":{"ha":806,"x_min":0,"x_max":0,"o":"m 365 922 l 365 564 b 240 627 313 578 272 599 b 193 744 209 655 193 694 b 243 872 193 797 210 840 b 365 922 276 903 317 920 z m 432 64 l 432 446 b 563 372 485 429 528 405 b 614 253 597 340 614 300 b 597 166 614 219 608 190 b 554 108 586 142 572 123 b 495 76 537 94 517 83 b 432 64 473 69 452 65 z m 365 463 l 365 64 b 314 72 350 64 333 66 b 255 94 294 77 275 84 b 197 132 235 105 216 117 b 151 186 179 147 163 165 l 72 131 b 197 26 106 88 147 53 b 365 -17 246 0 302 -15 l 365 -117 l 432 -117 l 432 -17 b 543 4 472 -16 509 -9 b 633 58 577 17 607 35 b 692 140 658 80 678 108 b 714 246 707 172 714 207 b 690 361 714 291 706 330 b 626 442 673 393 652 420 b 535 499 599 465 569 484 b 432 540 502 515 467 528 l 432 922 b 531 898 465 921 498 913 b 613 829 564 883 591 860 l 689 888 b 635 936 673 906 655 922 b 570 971 614 950 593 962 b 501 992 547 980 524 987 b 432 1000 477 996 454 999 l 432 1100 l 365 1100 l 365 1000 b 263 978 329 998 295 991 b 177 926 230 966 202 948 b 119 844 153 903 133 876 b 97 736 104 812 97 776 b 122 627 97 694 105 657 b 184 550 138 597 159 571 b 270 497 209 529 238 511 b 365 463 302 483 334 472 z "},"%":{"ha":1157,"x_min":0,"x_max":0,"o":"m 542 757 b 523 853 542 791 535 823 b 471 930 510 882 493 908 b 393 981 449 952 423 969 b 297 1000 363 994 331 1000 b 201 981 263 1000 231 994 b 124 930 172 969 146 952 b 72 853 101 908 84 882 b 53 757 59 823 53 791 b 72 661 53 723 59 691 b 124 584 84 631 101 606 b 201 533 146 562 172 545 b 297 514 231 520 263 514 b 393 533 331 514 363 520 b 471 584 423 545 449 562 b 523 661 493 606 510 631 b 542 757 535 691 542 723 z m 458 757 b 445 693 458 734 454 713 b 410 642 436 674 425 657 b 360 609 396 628 379 617 b 297 597 340 601 319 597 b 235 609 275 597 254 601 b 184 642 215 617 198 628 b 149 693 170 657 158 674 b 136 757 141 713 136 734 b 149 821 136 780 141 801 b 184 872 158 840 170 857 b 235 905 198 886 215 897 b 297 917 254 913 275 917 b 360 905 319 917 340 913 b 410 872 379 897 396 886 b 445 821 425 857 436 840 b 458 757 454 801 458 780 z m 1104 226 b 1085 322 1104 261 1098 293 b 1033 399 1073 352 1056 378 b 956 451 1011 421 985 438 b 860 469 926 463 894 469 b 764 451 825 469 794 463 b 686 399 734 438 708 421 b 634 322 664 378 647 352 b 615 226 622 293 615 261 b 634 131 615 192 622 160 b 686 53 647 101 664 75 b 764 2 708 32 734 15 b 860 -17 794 -10 825 -17 b 956 2 894 -17 926 -10 b 1033 53 985 15 1011 32 b 1085 131 1056 75 1073 101 b 1104 226 1098 160 1104 192 z m 1021 226 b 1008 163 1021 203 1016 182 b 973 112 999 143 987 126 b 922 78 959 97 942 86 b 860 67 903 71 882 67 b 797 78 838 67 817 71 b 747 112 778 86 761 97 b 712 163 732 126 721 143 b 699 226 703 182 699 203 b 712 290 699 250 703 271 b 747 341 721 310 732 327 b 797 374 761 355 778 366 b 860 386 817 382 838 386 b 922 374 882 386 903 382 b 973 341 942 366 959 355 b 1008 290 987 327 999 310 b 1021 226 1016 271 1021 250 z m 301 -43 l 926 989 l 856 1026 l 229 -6 z "},"&":{"ha":978,"x_min":0,"x_max":0,"o":"m 735 228 l 915 532 l 803 532 l 667 293 l 438 529 b 519 574 465 543 492 558 b 590 630 545 591 569 609 b 640 700 610 651 627 674 b 658 788 652 726 658 755 b 640 881 658 823 652 854 b 588 951 627 909 610 932 b 513 994 566 970 541 984 b 421 1008 484 1003 453 1008 b 326 993 388 1008 356 1003 b 249 948 297 983 271 968 b 196 875 226 928 209 904 b 176 776 183 846 176 813 b 187 711 176 754 180 732 b 214 651 194 690 203 670 b 252 596 225 632 238 613 b 296 547 266 578 281 562 b 206 499 263 533 233 517 b 133 435 178 480 154 459 b 85 356 113 412 97 385 b 68 256 74 326 68 293 b 92 138 68 211 76 172 b 158 53 109 104 131 76 b 256 1 186 31 219 13 b 375 -17 294 -11 333 -17 b 546 23 442 -17 499 -3 b 678 146 593 49 637 90 l 817 0 l 956 0 z m 561 788 b 545 719 561 763 556 740 b 503 665 534 699 521 681 b 446 623 486 650 467 635 b 381 589 425 610 403 599 b 348 621 371 596 360 607 b 313 667 335 635 324 650 b 285 720 301 683 292 701 b 274 775 277 739 274 757 b 315 885 274 821 288 858 b 422 926 343 913 379 926 b 522 888 462 926 495 913 b 561 788 548 862 561 828 z m 351 483 l 611 211 b 510 103 580 163 546 127 b 376 67 475 79 430 67 b 297 81 349 67 322 71 b 231 119 272 90 250 103 b 187 178 212 135 197 155 b 171 254 176 201 171 226 b 217 388 171 307 186 352 b 351 483 247 425 292 456 z "},"'":{"ha":361,"x_min":0,"x_max":0,"o":"m 139 983 l 139 657 l 222 657 l 222 983 z "},"(":{"ha":417,"x_min":0,"x_max":0,"o":"m 136 400 b 150 560 136 454 141 507 b 188 713 159 613 172 663 b 246 853 204 762 224 808 b 319 975 268 897 293 938 l 247 1021 b 166 892 218 982 191 939 b 102 742 141 846 120 796 b 60 576 84 689 70 634 b 44 400 50 518 44 459 b 60 224 44 340 50 281 b 102 58 70 166 84 111 b 166 -92 120 4 141 -46 b 247 -221 191 -139 218 -182 l 319 -175 b 246 -53 293 -138 268 -97 b 188 88 224 -8 204 38 b 150 240 172 137 159 187 b 136 400 141 293 136 346 z "},")":{"ha":417,"x_min":0,"x_max":0,"o":"m 281 400 b 267 240 281 346 276 293 b 228 88 257 188 245 137 b 170 -53 212 38 193 -8 b 97 -175 147 -97 123 -138 l 169 -221 b 250 -92 198 -182 225 -139 b 315 58 275 -46 297 4 b 357 224 333 111 347 166 b 372 400 367 281 372 340 b 357 576 372 459 367 518 b 315 742 347 634 333 689 b 250 892 297 796 275 846 b 169 1021 225 939 198 982 l 97 975 b 170 853 123 938 147 897 b 228 713 193 808 212 762 b 267 560 245 663 257 613 b 281 400 276 507 281 454 z "},"*":{"ha":617,"x_min":0,"x_max":0,"o":"m 350 785 l 350 983 l 267 983 l 267 785 l 72 847 l 43 769 l 239 707 l 114 539 l 181 489 l 308 661 l 436 489 l 503 539 l 378 707 l 574 769 l 544 847 z "},"+":{"ha":925,"x_min":0,"x_max":0,"o":"m 504 463 l 504 775 l 421 775 l 421 463 l 108 463 l 108 379 l 421 379 l 421 67 l 504 67 l 504 379 l 817 379 l 817 463 z "},",":{"ha":361,"x_min":0,"x_max":0,"o":"m 142 -194 l 254 132 l 156 132 l 63 -194 z "},"-":{"ha":444,"x_min":0,"x_max":0,"o":"m 378 297 l 378 376 l 67 376 l 67 297 z "},".":{"ha":361,"x_min":0,"x_max":0,"o":"m 256 67 b 235 119 256 86 249 103 b 181 142 221 134 203 142 b 126 119 158 142 140 134 b 106 67 113 103 106 86 b 126 15 106 47 113 30 b 181 -8 140 -1 158 -8 b 235 15 203 -8 221 -1 b 256 67 249 30 256 47 z "},"/":{"ha":514,"x_min":0,"x_max":0,"o":"m 88 -25 l 507 981 l 428 1008 l 7 1 z "},":":{"ha":417,"x_min":0,"x_max":0,"o":"m 283 583 b 263 635 283 603 276 620 b 208 658 249 651 231 658 b 154 635 186 658 168 651 b 133 583 140 620 133 603 b 154 531 133 564 140 547 b 208 508 168 516 186 508 b 263 531 231 508 249 516 b 283 583 276 547 283 564 z m 283 67 b 263 119 283 86 276 103 b 208 142 249 134 231 142 b 154 119 186 142 168 134 b 133 67 140 103 133 86 b 154 15 133 47 140 30 b 208 -8 168 -1 186 -8 b 263 15 231 -8 249 -1 b 283 67 276 30 283 47 z "},";":{"ha":417,"x_min":0,"x_max":0,"o":"m 283 583 b 263 635 283 603 276 620 b 208 658 249 651 231 658 b 154 635 186 658 168 651 b 133 583 140 620 133 603 b 154 531 133 564 140 547 b 208 508 168 516 186 508 b 263 531 231 508 249 516 b 283 583 276 547 283 564 z m 164 -194 l 276 132 l 174 132 l 81 -194 z "},"<":{"ha":925,"x_min":0,"x_max":0,"o":"m 817 700 l 817 783 l 108 453 l 108 389 l 817 58 l 817 142 l 221 421 z "},"=":{"ha":925,"x_min":0,"x_max":0,"o":"m 817 567 l 108 567 l 108 483 l 817 483 z m 817 358 l 108 358 l 108 275 l 817 275 z "},">":{"ha":925,"x_min":0,"x_max":0,"o":"m 108 783 l 108 700 l 704 421 l 108 142 l 108 58 l 817 389 l 817 453 z "},"?":{"ha":669,"x_min":0,"x_max":0,"o":"m 381 267 l 381 331 b 386 394 381 356 382 377 b 404 442 390 412 396 428 b 437 483 413 457 423 470 b 486 526 450 496 467 511 b 536 570 504 541 520 556 b 577 618 552 584 566 600 b 604 678 589 636 598 656 b 614 756 611 700 614 726 b 592 860 614 794 607 829 b 535 937 578 890 559 916 b 449 984 511 958 482 973 b 344 1000 416 995 381 1000 b 162 938 272 1000 211 979 b 67 768 112 897 81 840 l 161 751 b 219 868 169 799 188 838 b 340 914 250 899 290 914 b 408 903 364 914 387 910 b 463 871 428 895 447 885 b 500 819 478 857 491 840 b 514 750 509 799 514 776 b 491 660 514 714 506 684 b 433 596 476 636 456 614 l 394 561 b 353 522 381 548 367 535 b 317 476 340 508 328 493 b 292 420 307 460 298 441 b 283 350 286 399 283 376 l 283 267 z m 417 67 b 396 119 417 86 410 103 b 342 142 382 134 364 142 b 288 119 319 142 301 134 b 267 67 274 103 267 86 b 288 15 267 47 274 30 b 342 -8 301 -1 319 -8 b 396 15 364 -8 382 -1 b 417 67 410 30 417 47 z "},"@":{"ha":1111,"x_min":0,"x_max":0,"o":"m 572 679 b 628 667 594 679 613 675 b 663 634 643 658 654 647 b 682 588 672 621 678 605 b 688 536 686 571 688 554 b 678 461 688 513 684 488 b 647 385 671 434 661 409 b 593 326 633 362 615 342 b 513 303 571 311 544 303 b 458 317 490 303 472 308 b 424 354 443 327 432 339 b 406 401 415 369 409 385 b 401 446 403 418 401 433 b 413 528 401 473 405 500 b 446 603 420 556 431 581 b 499 658 461 625 478 643 b 572 679 520 672 544 679 z m 1015 140 l 964 204 b 803 97 917 158 863 122 b 589 58 743 71 671 58 b 412 88 524 58 465 68 b 274 174 359 108 313 137 b 185 308 236 211 206 256 b 153 486 163 361 153 420 b 183 659 153 548 163 606 b 270 797 204 712 233 758 b 404 889 308 836 352 867 b 578 922 456 911 514 922 b 738 899 636 922 690 914 b 865 828 787 883 829 859 b 948 712 900 796 928 758 b 978 553 968 666 978 613 b 967 454 978 518 974 485 b 935 375 959 424 949 397 b 887 322 922 353 906 335 b 824 303 868 309 847 303 b 788 309 809 303 797 305 b 767 326 779 313 772 319 b 758 348 762 333 759 340 b 756 372 756 356 756 364 b 757 397 756 379 756 387 b 761 428 758 407 759 418 b 766 459 763 439 765 449 b 771 483 767 469 769 477 l 826 742 l 740 742 l 726 679 l 721 679 b 667 738 711 702 693 722 b 576 763 642 754 612 763 b 461 736 534 763 495 754 b 374 666 427 719 398 695 b 319 566 351 637 332 603 b 300 451 306 528 300 490 b 314 359 300 418 305 387 b 353 287 323 331 336 307 b 417 240 371 267 392 251 b 501 222 442 228 470 222 b 565 233 525 222 546 226 b 615 258 584 240 600 248 b 653 291 630 269 643 279 b 675 324 663 303 670 313 l 681 324 b 710 253 681 297 690 273 b 801 222 729 232 760 222 b 904 244 838 222 872 229 b 990 308 937 258 965 280 b 1049 415 1014 337 1034 373 b 1071 563 1063 458 1071 507 b 1030 758 1071 638 1057 703 b 920 897 1003 814 966 860 b 763 981 874 934 822 962 b 579 1008 703 999 642 1008 b 373 969 506 1008 437 995 b 204 860 309 942 252 906 b 90 696 156 813 118 759 b 49 490 63 633 49 564 b 87 283 49 415 61 346 b 194 119 112 219 148 165 b 362 13 241 74 297 39 b 579 -25 427 -12 500 -25 b 823 16 668 -25 749 -11 b 1015 140 897 43 961 85 z "},"A":{"ha":972,"x_min":0,"x_max":0,"o":"m 124 0 l 231 258 l 739 258 l 847 0 l 958 0 l 536 983 l 439 983 l 14 0 z m 268 350 l 485 872 l 701 350 z "},"B":{"ha":883,"x_min":0,"x_max":0,"o":"m 131 983 l 131 0 l 422 0 b 575 19 479 0 530 6 b 690 74 620 32 659 51 b 763 160 722 98 746 127 b 789 272 780 194 789 231 b 726 444 789 344 768 402 b 567 518 684 486 631 511 l 567 521 b 693 597 619 533 662 558 b 740 732 725 635 740 680 b 712 854 740 781 731 822 b 638 931 693 887 668 912 b 536 972 608 950 574 964 b 424 983 498 979 461 983 z m 231 553 l 231 897 l 404 897 b 496 888 437 897 467 894 b 571 858 525 882 550 872 b 622 805 592 844 609 827 b 640 725 634 783 640 756 b 622 643 640 693 634 665 b 572 590 609 621 593 603 b 505 561 552 576 529 567 b 432 553 480 556 456 553 z m 231 86 l 231 471 l 435 471 b 622 423 515 471 578 455 b 688 278 666 391 688 343 b 665 190 688 244 680 214 b 606 130 650 165 631 145 b 520 97 582 115 553 103 b 417 86 487 90 453 86 z "},"C":{"ha":1000,"x_min":0,"x_max":0,"o":"m 958 158 l 881 208 b 753 97 846 157 804 120 b 592 63 702 74 648 63 b 422 97 529 62 472 74 b 293 191 371 120 328 152 b 212 328 258 230 231 276 b 183 492 193 380 183 434 b 211 656 183 549 193 604 b 292 792 230 707 256 753 b 420 886 327 832 370 863 b 592 921 471 909 528 921 b 680 910 623 921 653 917 b 756 881 707 902 732 893 b 816 839 779 869 799 855 b 857 792 833 823 847 807 l 940 853 b 878 917 924 877 903 898 b 794 966 853 936 825 953 b 697 997 764 979 731 990 b 590 1008 662 1005 626 1008 b 387 969 517 1008 449 995 b 224 862 324 944 270 908 b 117 699 178 816 143 762 b 78 492 91 636 78 567 b 116 285 78 417 91 348 b 222 122 141 222 177 167 b 385 14 268 76 322 40 b 590 -25 448 -12 516 -25 b 713 -10 635 -25 676 -20 b 816 29 751 -1 785 13 b 898 88 847 46 874 65 b 958 158 922 110 942 133 z "},"D":{"ha":1051,"x_min":0,"x_max":0,"o":"m 131 983 l 131 0 l 457 0 b 641 31 518 0 579 10 b 808 123 703 51 758 82 b 928 276 857 164 897 215 b 974 492 958 338 974 409 b 928 706 974 573 958 645 b 808 860 897 768 857 819 b 641 953 758 902 703 932 b 457 983 579 973 518 983 z m 231 89 l 231 894 l 429 894 b 623 860 503 894 568 883 b 760 769 678 837 724 806 b 841 640 796 731 823 688 b 868 492 859 592 868 543 b 841 343 868 441 859 391 b 760 215 823 295 796 252 b 623 124 724 177 678 147 b 429 89 568 100 503 89 z "},"E":{"ha":822,"x_min":0,"x_max":0,"o":"m 231 89 l 231 468 l 707 468 l 707 556 l 231 556 l 231 894 l 740 894 l 740 983 l 131 983 l 131 0 l 757 0 l 757 89 z "},"F":{"ha":781,"x_min":0,"x_max":0,"o":"m 231 0 l 231 465 l 689 465 l 689 553 l 231 553 l 231 894 l 724 894 l 724 983 l 131 983 l 131 0 z "},"G":{"ha":1082,"x_min":0,"x_max":0,"o":"m 876 807 l 946 876 b 796 974 904 918 854 950 b 590 1008 738 997 669 1008 b 387 969 517 1008 449 995 b 224 862 324 944 270 908 b 117 699 178 816 143 762 b 78 492 91 636 78 567 b 116 285 78 417 91 348 b 222 122 141 222 177 167 b 385 14 268 76 322 40 b 590 -25 448 -12 516 -25 b 783 -1 657 -25 721 -17 b 957 71 845 14 903 38 l 957 514 l 628 514 l 628 426 l 857 426 l 857 128 b 744 82 828 109 791 94 b 592 64 698 70 647 64 b 422 99 529 64 472 75 b 293 192 371 122 328 153 b 212 328 258 231 231 276 b 183 492 193 380 183 434 b 212 656 183 549 193 604 b 293 792 231 707 258 753 b 422 886 328 832 371 863 b 592 921 472 909 529 921 b 754 891 653 921 707 911 b 876 807 801 871 842 843 z "},"H":{"ha":997,"x_min":0,"x_max":0,"o":"m 131 983 l 131 0 l 231 0 l 231 465 l 767 465 l 767 0 l 867 0 l 867 983 l 767 983 l 767 557 l 231 557 l 231 983 z "},"I":{"ha":361,"x_min":0,"x_max":0,"o":"m 231 0 l 231 983 l 131 983 l 131 0 z "},"J":{"ha":683,"x_min":0,"x_max":0,"o":"m 128 200 l 35 175 b 122 31 47 117 76 69 b 299 -25 169 -6 227 -25 b 431 5 352 -25 396 -15 b 511 81 465 25 492 50 b 551 181 531 111 544 144 b 561 283 558 217 561 251 l 561 983 l 461 983 l 461 290 b 453 205 461 261 459 232 b 426 132 448 178 439 153 b 372 81 412 111 394 94 b 288 63 350 69 322 63 b 180 102 243 63 207 76 b 128 200 153 128 135 161 z "},"K":{"ha":872,"x_min":0,"x_max":0,"o":"m 231 542 l 231 983 l 131 983 l 131 0 l 231 0 l 231 524 l 232 524 l 724 0 l 871 0 l 347 538 l 843 983 l 700 983 l 232 542 z "},"L":{"ha":708,"x_min":0,"x_max":0,"o":"m 231 89 l 231 983 l 131 983 l 131 0 l 689 0 l 689 89 z "},"M":{"ha":1231,"x_min":0,"x_max":0,"o":"m 617 169 l 283 983 l 131 983 l 131 0 l 231 0 l 231 854 l 233 854 l 589 0 l 642 0 l 997 854 l 1000 854 l 1000 0 l 1100 0 l 1100 983 l 947 983 l 618 169 z "},"N":{"ha":1061,"x_min":0,"x_max":0,"o":"m 828 146 l 256 983 l 131 983 l 131 0 l 231 0 l 231 846 l 233 846 l 806 0 l 931 0 l 931 983 l 831 983 l 831 146 z "},"O":{"ha":1181,"x_min":0,"x_max":0,"o":"m 1103 492 b 1064 699 1103 567 1090 636 b 956 862 1038 762 1002 816 b 794 969 910 908 856 944 b 590 1008 731 995 663 1008 b 387 969 517 1008 449 995 b 224 862 324 944 270 908 b 117 699 178 816 143 762 b 78 492 91 636 78 567 b 117 285 78 417 91 348 b 224 122 143 222 178 167 b 387 14 270 76 324 40 b 590 -25 449 -12 517 -25 b 794 14 663 -25 731 -12 b 956 122 856 40 910 76 b 1064 285 1002 167 1038 222 b 1103 492 1090 348 1103 417 z m 997 492 b 969 328 997 434 988 380 b 889 192 951 276 924 231 b 760 99 854 153 811 122 b 590 64 710 75 653 64 b 420 99 527 64 471 75 b 292 192 370 122 327 153 b 211 328 256 231 230 276 b 183 492 193 380 183 434 b 211 656 183 549 193 604 b 292 792 230 707 256 753 b 420 886 327 832 370 863 b 590 921 471 909 527 921 b 760 886 653 921 710 909 b 889 792 811 863 854 832 b 969 656 924 753 951 707 b 997 492 988 604 997 549 z "},"P":{"ha":806,"x_min":0,"x_max":0,"o":"m 131 983 l 131 0 l 231 0 l 231 457 l 406 457 b 542 474 456 457 501 463 b 648 523 584 485 619 501 b 716 605 677 545 700 572 b 740 721 732 638 740 676 b 717 837 740 765 732 804 b 649 919 701 870 678 897 b 544 967 620 941 585 957 b 408 983 504 978 458 983 z m 231 542 l 231 897 l 400 897 b 577 855 476 897 535 883 b 640 721 619 827 640 782 b 579 588 640 663 620 618 b 400 542 538 557 479 542 z "},"Q":{"ha":1171,"x_min":0,"x_max":0,"o":"m 183 504 b 210 663 183 560 192 613 b 288 795 228 713 254 757 b 410 887 321 834 362 864 b 575 921 459 909 514 921 b 738 887 635 921 690 909 b 862 795 787 864 828 834 b 940 663 896 757 922 713 b 968 504 959 613 968 560 b 940 346 968 449 959 396 b 862 213 922 296 896 252 b 738 122 828 175 787 144 b 575 88 690 99 635 88 b 410 122 514 88 459 99 b 288 213 362 144 321 175 b 210 346 254 252 228 296 b 183 504 192 396 183 449 z m 1138 0 l 1138 89 l 840 89 l 840 92 b 1013 266 917 136 975 194 b 1071 504 1052 338 1071 417 b 1033 706 1071 577 1058 645 b 929 866 1008 768 974 821 b 772 971 885 911 832 946 b 575 1008 711 996 645 1008 b 377 971 504 1008 438 996 b 219 866 316 946 264 911 b 115 706 175 821 140 768 b 78 504 90 645 78 577 b 115 302 78 431 90 364 b 219 142 140 241 175 187 b 377 38 264 97 316 63 b 575 0 438 13 504 0 z "},"R":{"ha":832,"x_min":0,"x_max":0,"o":"m 231 0 l 231 460 l 397 460 l 669 0 l 792 0 l 504 468 b 604 493 540 472 574 480 b 683 545 635 506 661 523 b 736 622 706 567 723 593 b 756 721 749 652 756 685 b 731 843 756 769 747 810 b 660 924 714 876 691 903 b 553 969 630 945 595 960 b 419 983 512 979 468 983 l 131 983 l 131 0 z m 231 546 l 231 897 l 408 897 b 510 888 445 897 479 894 b 588 857 540 881 566 871 b 638 803 609 843 625 825 b 656 721 650 781 656 753 b 590 590 656 663 634 619 b 404 546 547 560 485 546 z "},"S":{"ha":783,"x_min":0,"x_max":0,"o":"m 607 825 l 686 889 b 579 973 662 921 626 949 b 408 1008 532 997 475 1008 b 299 993 372 1008 336 1003 b 197 944 262 983 228 967 b 123 860 167 922 142 894 b 94 738 104 825 94 785 b 117 625 94 693 102 656 b 178 548 133 594 153 569 b 263 497 203 527 231 510 b 358 463 294 484 326 473 b 449 432 390 452 420 442 b 525 394 477 422 503 409 b 578 337 547 378 565 359 b 599 251 592 314 599 286 b 578 169 599 220 592 192 b 527 109 565 145 548 125 b 457 73 506 93 483 81 b 381 61 431 65 406 61 b 245 97 329 61 284 73 b 156 185 207 120 177 150 l 69 121 b 131 57 87 97 107 75 b 206 11 154 38 179 23 b 290 -16 232 -1 261 -10 b 379 -25 320 -22 350 -25 b 495 -8 418 -25 457 -19 b 598 43 534 3 568 20 b 672 131 628 66 653 96 b 700 258 691 167 700 209 b 674 380 700 307 691 348 b 606 459 656 412 633 438 b 512 510 578 480 547 497 b 408 546 477 523 443 535 b 328 574 381 555 354 564 b 260 609 303 583 280 595 b 213 661 241 623 225 641 b 194 739 200 681 194 707 b 213 821 194 770 201 798 b 263 878 226 844 242 863 b 331 913 283 894 306 905 b 404 924 356 920 380 924 b 525 897 451 924 492 915 b 607 825 558 878 586 855 z "},"T":{"ha":792,"x_min":0,"x_max":0,"o":"m 446 0 l 446 894 l 775 894 l 775 983 l 17 983 l 17 894 l 346 894 l 346 0 z "},"U":{"ha":986,"x_min":0,"x_max":0,"o":"m 493 -25 b 674 13 566 -25 627 -12 b 788 110 722 39 760 71 b 845 237 815 149 834 191 b 861 367 856 283 861 326 l 861 983 l 761 983 l 761 378 b 747 262 761 338 756 299 b 702 162 738 224 723 191 b 619 91 681 133 654 109 b 493 64 585 73 543 64 b 367 91 443 64 401 73 b 284 162 332 109 305 133 b 239 262 263 191 248 224 b 225 378 230 299 225 338 l 225 983 l 125 983 l 125 367 b 141 237 125 326 130 283 b 199 110 152 191 171 149 b 311 13 226 71 264 39 b 493 -25 358 -12 419 -25 z "},"V":{"ha":865,"x_min":0,"x_max":0,"o":"m 432 129 l 113 983 l 4 983 l 379 0 l 485 0 l 861 983 l 754 983 l 435 129 z "},"W":{"ha":1350,"x_min":0,"x_max":0,"o":"m 368 138 l 125 983 l 19 983 l 310 0 l 426 0 l 674 844 l 676 844 l 924 0 l 1040 0 l 1331 983 l 1225 983 l 985 138 l 982 138 l 736 983 l 617 983 l 371 138 z "},"X":{"ha":901,"x_min":0,"x_max":0,"o":"m 453 586 l 183 983 l 58 983 l 388 517 l 26 0 l 151 0 l 450 443 l 750 0 l 875 0 l 514 515 l 840 983 l 721 983 z "},"Y":{"ha":836,"x_min":0,"x_max":0,"o":"m 468 0 l 468 424 l 836 983 l 719 983 l 421 507 l 125 983 l 0 983 l 368 424 l 368 0 z "},"Z":{"ha":794,"x_min":0,"x_max":0,"o":"m 743 900 l 743 983 l 58 983 l 58 894 l 618 894 l 43 83 l 43 0 l 751 0 l 751 89 l 169 89 z "},"[":{"ha":417,"x_min":0,"x_max":0,"o":"m 306 942 l 306 1017 l 81 1017 l 81 -217 l 306 -217 l 306 -142 l 172 -142 l 172 942 z "},"\\":{"ha":514,"x_min":0,"x_max":0,"o":"m 7 981 l 426 -25 l 507 1 l 86 1008 z "},"]":{"ha":417,"x_min":0,"x_max":0,"o":"m 111 -142 l 111 -217 l 336 -217 l 336 1017 l 111 1017 l 111 942 l 244 942 l 244 -142 z "},"^":{"ha":925,"x_min":0,"x_max":0,"o":"m 429 983 l 111 382 l 197 382 l 463 883 l 728 382 l 814 382 l 496 983 z "},"_":{"ha":694,"x_min":0,"x_max":0,"o":"m 0 -104 l 0 -174 l 694 -174 l 694 -104 z "},"`":{"ha":333,"x_min":0,"x_max":0,"o":"m -14 983 l 169 783 l 251 783 l 113 983 z "},"a":{"ha":742,"x_min":0,"x_max":0,"o":"m 535 419 l 535 399 b 363 392 475 399 418 397 b 217 365 308 388 259 379 b 115 299 174 350 140 328 b 76 181 89 270 76 231 b 98 89 76 144 84 114 b 152 28 112 64 130 44 b 224 -6 174 12 198 1 b 301 -17 251 -13 276 -17 b 437 12 354 -17 399 -7 b 538 106 474 31 508 62 l 540 106 b 543 51 540 88 541 70 b 550 0 545 33 547 16 l 635 0 b 626 68 631 19 628 41 b 624 146 625 95 624 121 l 624 431 b 604 535 624 470 617 505 b 550 608 591 564 573 589 b 469 652 527 628 500 642 b 371 667 439 662 406 667 b 222 640 315 667 266 658 b 115 574 178 623 142 600 l 168 511 b 253 567 191 534 219 553 b 361 588 286 581 322 588 b 490 546 418 588 461 574 b 535 419 520 518 535 476 z m 507 325 l 535 325 l 535 276 b 521 194 535 248 530 220 b 481 126 512 169 498 146 b 415 78 463 106 441 90 b 326 61 389 67 360 61 b 272 67 308 61 290 63 b 222 88 253 72 237 78 b 187 126 207 98 196 111 b 174 185 178 142 174 162 b 204 258 174 215 184 240 b 283 301 225 277 251 291 b 390 320 315 310 350 317 b 507 325 429 323 468 325 z "},"b":{"ha":885,"x_min":0,"x_max":0,"o":"m 222 110 l 225 110 b 333 15 253 68 289 37 b 471 -17 378 -6 424 -17 b 609 10 522 -17 568 -8 b 715 82 650 27 685 51 b 783 190 744 113 766 149 b 807 325 799 232 807 277 b 783 460 807 373 799 418 b 715 568 766 501 744 538 b 609 640 685 599 650 623 b 471 667 568 658 522 667 b 333 634 424 667 378 656 b 225 538 289 612 253 580 l 222 538 l 222 1050 l 128 1050 l 128 0 l 222 0 z m 707 325 b 690 223 707 289 701 255 b 642 140 679 191 663 163 b 565 84 622 116 596 97 b 461 64 535 71 500 64 b 361 84 425 64 392 71 b 282 139 331 97 304 116 b 230 222 260 162 242 190 b 211 325 217 253 211 288 b 230 428 211 362 217 397 b 282 512 242 460 260 488 b 361 567 304 535 331 554 b 461 588 392 581 425 588 b 565 567 500 588 535 581 b 642 510 596 553 622 534 b 690 427 663 487 679 459 b 707 325 701 395 707 361 z "},"c":{"ha":694,"x_min":0,"x_max":0,"o":"m 593 501 l 667 554 b 558 638 639 591 603 619 b 425 667 513 657 469 667 b 282 641 372 667 325 658 b 173 569 239 624 203 600 b 103 461 143 539 119 503 b 78 325 86 419 78 374 b 103 189 78 276 86 231 b 173 81 119 147 143 111 b 282 9 203 50 239 26 b 425 -17 325 -8 372 -17 b 570 14 481 -17 530 -6 b 672 96 610 34 644 62 l 601 149 b 531 88 583 124 559 103 b 425 64 502 72 467 64 b 322 84 387 64 353 71 b 244 140 292 97 266 116 b 195 222 223 163 207 191 b 178 325 184 254 178 288 b 195 428 178 362 184 397 b 245 512 207 460 223 488 b 324 567 267 535 293 554 b 426 588 354 581 388 588 b 524 563 462 588 494 579 b 593 501 554 547 577 526 z "},"d":{"ha":885,"x_min":0,"x_max":0,"o":"m 660 110 l 663 110 l 663 0 l 757 0 l 757 1050 l 663 1050 l 663 538 l 660 538 b 551 634 632 580 596 612 b 414 667 507 656 461 667 b 276 640 363 667 317 658 b 170 568 234 623 199 599 b 102 460 141 538 118 501 b 78 325 86 418 78 373 b 102 190 78 277 86 232 b 170 82 118 149 141 113 b 276 10 199 51 234 27 b 414 -17 317 -8 363 -17 b 551 15 461 -17 507 -6 b 660 110 596 37 632 68 z m 178 325 b 194 427 178 361 183 395 b 242 510 206 459 222 487 b 319 567 263 534 289 553 b 424 588 350 581 385 588 b 524 567 460 588 493 581 b 603 512 554 554 581 535 b 655 428 625 488 642 460 b 674 325 667 397 674 362 b 655 222 674 288 667 253 b 603 139 642 190 625 162 b 524 84 581 116 554 97 b 424 64 493 71 460 64 b 319 84 385 64 350 71 b 242 140 289 97 263 116 b 194 223 222 163 206 191 b 178 325 183 255 178 289 z "},"e":{"ha":794,"x_min":0,"x_max":0,"o":"m 621 375 l 178 375 b 199 455 180 403 187 429 b 247 523 211 480 227 503 b 318 570 268 543 291 559 b 406 588 345 582 374 588 b 562 527 473 588 525 567 b 621 375 598 487 618 436 z m 717 344 b 697 469 717 389 710 431 b 638 572 683 508 663 542 b 540 641 612 601 579 624 b 406 667 501 658 456 667 b 276 641 359 667 316 658 b 172 569 237 624 202 600 b 103 461 143 539 119 503 b 78 325 86 419 78 374 b 103 189 78 276 86 231 b 174 81 121 147 144 111 b 280 9 203 50 239 26 b 414 -17 321 -8 366 -17 b 565 15 468 -17 518 -6 b 693 121 611 37 654 72 l 622 176 b 541 98 604 147 577 121 b 414 64 505 75 463 64 b 321 83 381 64 350 70 b 246 133 292 95 267 112 b 196 208 225 155 208 180 b 176 300 184 237 177 268 l 715 300 b 717 324 716 308 717 316 z "},"f":{"ha":410,"x_min":0,"x_max":0,"o":"m 400 571 l 400 650 l 247 650 l 247 817 b 252 882 247 840 249 862 b 270 935 255 902 261 920 b 308 971 279 951 291 963 b 369 983 324 979 344 983 b 404 981 382 983 394 982 b 435 974 414 979 425 976 l 451 1057 b 413 1065 439 1061 426 1063 b 374 1067 399 1066 386 1067 b 207 1003 299 1067 243 1045 b 153 828 171 960 153 902 l 153 650 l 17 650 l 17 571 l 153 571 l 153 0 l 247 0 l 247 571 z "},"g":{"ha":878,"x_min":0,"x_max":0,"o":"m 160 -131 l 92 -203 b 232 -299 131 -244 177 -275 b 404 -333 287 -322 344 -333 b 581 -300 476 -333 535 -322 b 688 -217 626 -278 662 -250 b 742 -107 715 -183 733 -147 b 757 6 752 -67 757 -30 l 757 650 l 663 650 l 663 538 l 660 538 b 553 633 634 579 598 611 b 414 667 507 656 461 667 b 276 640 363 667 317 658 b 170 568 234 623 199 599 b 102 461 141 538 118 502 b 78 331 86 420 78 377 b 102 199 78 283 86 239 b 170 94 118 158 141 123 b 276 25 199 65 234 42 b 414 0 317 8 363 0 b 553 33 461 0 508 11 b 660 128 599 56 635 87 l 663 128 l 663 6 b 649 -94 663 -30 658 -63 b 605 -175 639 -125 625 -152 b 526 -230 585 -198 559 -216 b 408 -250 494 -243 455 -250 b 266 -215 358 -250 311 -238 b 160 -131 221 -192 186 -164 z m 178 333 b 194 431 178 368 183 400 b 242 511 206 461 222 488 b 319 567 263 534 289 553 b 424 588 350 581 385 588 b 524 567 460 588 493 581 b 603 511 554 553 581 534 b 655 431 625 488 642 461 b 674 333 667 400 674 368 b 655 230 674 295 667 261 b 603 150 642 199 625 172 b 524 99 581 128 554 111 b 424 81 493 87 460 81 b 319 101 385 81 350 87 b 242 156 289 114 263 132 b 194 236 222 179 206 206 b 178 333 183 267 178 299 z "},"h":{"ha":810,"x_min":0,"x_max":0,"o":"m 225 543 l 222 543 l 222 1050 l 128 1050 l 128 0 l 222 0 l 222 333 b 239 447 222 377 228 415 b 283 526 250 478 265 505 b 347 572 302 547 323 562 b 419 588 370 582 394 588 b 505 571 454 588 482 582 b 559 524 528 560 546 544 b 588 453 572 504 582 481 b 596 360 593 425 596 394 l 596 0 l 690 0 l 690 399 b 628 593 690 479 670 544 b 443 667 587 642 525 667 b 313 633 397 667 353 656 b 225 543 272 611 243 581 z "},"i":{"ha":347,"x_min":0,"x_max":0,"o":"m 221 0 l 221 650 l 126 650 l 126 0 z m 240 900 b 219 948 240 919 233 935 b 174 967 206 960 190 967 b 128 948 157 967 142 960 b 107 900 114 935 107 919 b 128 852 107 881 114 865 b 174 833 142 840 157 833 b 219 852 190 833 206 840 b 240 900 233 865 240 881 z "},"j":{"ha":349,"x_min":0,"x_max":0,"o":"m -24 -244 l -37 -324 b 1 -331 -25 -327 -12 -330 b 38 -333 15 -333 27 -333 b 128 -316 75 -333 105 -328 b 185 -270 152 -304 171 -289 b 214 -205 199 -251 208 -229 b 222 -129 219 -180 222 -155 l 222 650 l 128 650 l 128 -114 b 124 -170 128 -134 127 -153 b 111 -214 122 -187 118 -202 b 83 -242 105 -226 95 -235 b 36 -253 71 -249 56 -253 b 6 -251 27 -253 17 -252 b -24 -244 -4 -249 -14 -247 z m 242 900 b 221 948 242 919 235 935 b 175 967 207 960 192 967 b 129 948 158 967 143 960 b 108 900 115 935 108 919 b 129 852 108 881 115 865 b 175 833 143 840 158 833 b 221 852 192 833 207 840 b 242 900 235 865 242 881 z "},"k":{"ha":708,"x_min":0,"x_max":0,"o":"m 222 357 l 222 1050 l 128 1050 l 128 0 l 222 0 l 222 342 l 226 342 l 557 0 l 696 0 l 335 353 l 663 650 l 526 650 l 226 357 z "},"l":{"ha":350,"x_min":0,"x_max":0,"o":"m 222 0 l 222 1050 l 128 1050 l 128 0 z "},"m":{"ha":1226,"x_min":0,"x_max":0,"o":"m 218 539 l 218 539 l 215 539 b 214 592 215 553 215 570 b 210 650 213 613 212 632 l 119 650 b 124 575 121 628 123 603 b 125 507 125 547 125 525 l 125 0 l 219 0 l 219 333 b 236 447 219 377 225 415 b 280 526 247 478 262 505 b 341 572 298 547 318 562 b 408 588 364 582 386 588 b 486 573 440 588 466 583 b 534 531 506 563 522 549 b 558 465 546 513 554 491 b 565 379 563 439 565 411 l 565 0 l 660 0 l 660 346 b 669 435 660 376 663 406 b 701 512 676 463 686 489 b 758 567 715 534 734 553 b 844 588 781 581 810 588 b 974 525 906 588 949 567 b 1013 360 1000 483 1013 428 l 1013 0 l 1107 0 l 1107 399 b 1045 593 1107 479 1086 544 b 860 667 1004 642 942 667 b 723 631 807 667 761 655 b 632 529 684 608 654 574 b 592 597 621 557 608 580 b 542 640 577 615 560 629 b 487 661 524 650 506 657 b 432 667 468 665 450 667 b 303 631 385 667 342 655 b 218 539 265 608 237 577 z "},"n":{"ha":807,"x_min":0,"x_max":0,"o":"m 210 650 l 119 650 b 124 575 121 628 123 603 b 125 507 125 547 125 525 l 125 0 l 219 0 l 219 333 b 236 447 219 377 225 415 b 281 526 247 478 262 505 b 344 572 299 547 320 562 b 417 588 367 582 392 588 b 502 571 451 588 479 582 b 556 524 525 560 543 544 b 585 453 570 504 579 481 b 593 360 590 425 593 394 l 593 0 l 688 0 l 688 399 b 626 593 688 479 667 544 b 440 667 584 642 523 667 b 308 631 394 667 350 655 b 218 539 267 608 237 577 l 215 539 b 214 592 215 553 215 570 b 210 650 213 613 212 632 z "},"o":{"ha":849,"x_min":0,"x_max":0,"o":"m 771 325 b 745 461 771 374 762 419 b 674 569 728 503 704 539 b 564 641 643 600 606 624 b 424 667 521 658 475 667 b 285 641 374 667 327 658 b 175 569 242 624 206 600 b 103 461 144 539 121 503 b 78 325 86 419 78 374 b 103 189 78 276 86 231 b 175 81 121 147 144 111 b 285 9 206 50 242 26 b 424 -17 327 -8 374 -17 b 564 9 475 -17 521 -8 b 674 81 606 26 643 50 b 745 189 704 111 728 147 b 771 325 762 231 771 276 z m 671 325 b 653 223 671 289 665 255 b 604 140 642 191 625 163 b 526 84 583 116 557 97 b 424 64 496 71 462 64 b 322 84 386 64 352 71 b 244 140 291 97 266 116 b 195 223 223 163 207 191 b 178 325 184 255 178 289 b 195 427 178 361 184 395 b 244 510 207 459 223 487 b 322 567 266 534 291 553 b 424 588 352 581 386 588 b 526 567 462 588 496 581 b 604 510 557 553 583 534 b 653 427 625 487 642 459 b 671 325 665 395 671 361 z "},"p":{"ha":882,"x_min":0,"x_max":0,"o":"m 219 -333 l 219 110 l 224 110 b 331 16 250 69 286 38 b 468 -17 376 -6 422 -17 b 606 10 519 -17 565 -8 b 712 82 647 27 683 51 b 780 190 741 113 764 149 b 804 325 796 232 804 277 b 780 460 804 373 796 418 b 712 568 764 501 741 538 b 606 640 683 599 647 623 b 468 667 565 658 519 667 b 331 634 422 667 376 656 b 224 538 286 612 250 580 l 219 538 l 219 650 l 125 650 l 125 -333 z m 704 325 b 688 223 704 289 699 255 b 640 140 676 191 660 163 b 563 84 619 116 593 97 b 458 64 532 71 497 64 b 358 84 422 64 389 71 b 279 139 328 97 301 116 b 227 222 257 162 240 190 b 208 325 215 253 208 288 b 227 428 208 362 215 397 b 279 512 240 460 257 488 b 358 567 301 535 328 554 b 458 588 389 581 422 588 b 563 567 497 588 532 581 b 640 510 593 553 619 534 b 688 427 660 487 676 459 b 704 325 699 395 704 361 z "},"q":{"ha":882,"x_min":0,"x_max":0,"o":"m 658 110 l 663 110 l 663 -333 l 757 -333 l 757 650 l 663 650 l 663 538 l 658 538 b 551 634 631 580 596 612 b 414 667 506 656 460 667 b 276 640 363 667 317 658 b 170 568 234 623 199 599 b 102 460 141 538 118 501 b 78 325 86 418 78 373 b 102 190 78 277 86 232 b 170 82 118 149 141 113 b 276 10 199 51 234 27 b 414 -17 317 -8 363 -17 b 551 16 460 -17 506 -6 b 658 110 596 38 631 69 z m 178 325 b 194 427 178 361 183 395 b 242 510 206 459 222 487 b 319 567 263 534 289 553 b 424 588 350 581 385 588 b 524 567 460 588 493 581 b 603 512 554 554 581 535 b 655 428 625 488 642 460 b 674 325 667 397 674 362 b 655 222 674 288 667 253 b 603 139 642 190 625 162 b 524 84 581 116 554 97 b 424 64 493 71 460 64 b 319 84 385 64 350 71 b 242 140 289 97 263 116 b 194 223 222 163 206 191 b 178 325 183 255 178 289 z "},"r":{"ha":500,"x_min":0,"x_max":0,"o":"m 125 507 l 125 507 l 125 0 l 219 0 l 219 333 b 235 445 219 377 225 414 b 277 522 246 476 260 502 b 338 565 294 541 314 556 b 410 579 361 575 385 579 b 449 576 423 579 436 578 b 476 571 462 575 471 573 l 489 660 b 459 665 479 663 469 664 b 426 667 449 666 438 667 b 301 631 380 667 338 655 b 218 539 264 608 237 577 l 215 539 b 214 592 215 553 215 570 b 210 650 213 613 212 632 l 119 650 b 124 575 121 628 123 603 b 125 507 125 547 125 525 z "},"s":{"ha":617,"x_min":0,"x_max":0,"o":"m 471 496 l 543 550 b 447 636 522 587 490 616 b 315 667 405 656 361 667 b 229 656 286 667 257 663 b 155 622 201 648 177 637 b 103 563 133 606 116 587 b 83 478 90 540 83 511 b 101 401 83 447 89 422 b 147 351 113 381 129 364 b 208 320 166 337 186 327 b 269 303 229 313 250 307 b 412 255 331 288 379 272 b 461 178 445 238 461 212 b 449 124 461 156 457 139 b 415 89 440 110 429 98 b 367 69 401 80 385 73 b 308 64 348 66 329 64 b 201 93 269 64 234 74 b 128 165 169 113 144 137 l 53 110 b 167 14 82 66 120 34 b 310 -17 213 -6 261 -17 b 398 -6 339 -17 369 -13 b 476 28 427 1 453 12 b 533 91 500 45 518 66 b 554 185 547 116 554 148 b 499 306 554 236 536 276 b 329 375 463 336 406 359 b 211 416 275 386 236 400 b 174 486 186 432 174 456 b 185 532 174 504 178 519 b 217 564 193 545 204 556 b 261 582 230 572 244 578 b 311 588 278 586 294 588 b 408 562 347 588 379 579 b 471 496 436 545 457 523 z "},"t":{"ha":440,"x_min":0,"x_max":0,"o":"m 418 571 l 418 650 l 235 650 l 235 833 l 140 833 l 140 650 l 6 650 l 6 571 l 140 571 l 140 165 b 156 78 140 129 146 100 b 197 25 167 56 181 38 b 251 -1 214 12 232 3 b 307 -8 271 -6 289 -8 b 366 -3 328 -8 348 -7 b 418 11 384 0 401 5 l 414 93 b 373 78 401 87 387 81 b 332 72 359 74 345 72 b 293 77 318 72 305 74 b 262 95 281 80 271 86 b 242 132 253 104 246 116 b 235 192 237 148 235 168 l 235 571 z "},"u":{"ha":807,"x_min":0,"x_max":0,"o":"m 597 0 l 688 0 b 683 75 686 22 684 47 b 682 143 682 103 682 125 l 682 650 l 588 650 l 588 317 b 571 203 588 273 582 235 b 526 124 560 172 545 145 b 463 78 508 103 487 88 b 390 63 440 68 415 63 b 305 79 356 63 328 68 b 251 126 282 90 264 106 b 222 197 237 146 228 169 b 214 290 217 225 214 256 l 214 650 l 119 650 l 119 251 b 181 57 119 171 140 106 b 367 -17 222 8 284 -17 b 499 19 413 -17 457 -5 b 589 111 540 42 570 73 l 592 111 b 593 58 592 97 592 80 b 597 0 594 37 595 18 z "},"v":{"ha":678,"x_min":0,"x_max":0,"o":"m 392 0 l 656 650 l 554 650 l 342 100 l 339 100 l 128 650 l 22 650 l 288 0 z "},"w":{"ha":1036,"x_min":0,"x_max":0,"o":"m 138 650 l 36 650 l 242 0 l 344 0 l 515 526 l 518 526 l 692 0 l 794 0 l 1000 650 l 900 650 l 744 122 l 742 122 l 564 650 l 472 650 l 297 122 l 294 122 z "},"x":{"ha":672,"x_min":0,"x_max":0,"o":"m 278 336 l 22 0 l 136 0 l 335 271 l 528 0 l 650 0 l 392 340 l 628 650 l 514 650 l 336 403 l 158 650 l 38 650 z "},"y":{"ha":678,"x_min":0,"x_max":0,"o":"m 349 101 l 128 650 l 22 650 l 300 1 l 247 -135 b 199 -220 233 -172 217 -200 b 122 -250 180 -240 155 -250 b 53 -239 98 -250 75 -246 l 43 -325 b 128 -333 71 -331 99 -333 b 258 -288 184 -333 228 -318 b 332 -168 288 -258 313 -218 l 656 650 l 553 650 l 351 101 z "},"z":{"ha":614,"x_min":0,"x_max":0,"o":"m 557 583 l 557 650 l 63 650 l 63 571 l 431 571 l 43 67 l 43 0 l 571 0 l 571 82 l 168 82 z "},"{":{"ha":417,"x_min":0,"x_max":0,"o":"m 0 442 l 0 358 b 82 318 36 358 63 345 b 110 204 100 291 110 253 l 110 -43 b 122 -125 110 -75 114 -103 b 156 -178 131 -147 142 -165 b 203 -208 169 -192 185 -202 b 260 -217 222 -214 240 -217 l 347 -217 l 347 -142 l 281 -142 b 240 -131 264 -142 250 -138 b 215 -104 229 -124 221 -115 b 204 -67 210 -93 206 -81 b 201 -26 202 -53 201 -39 l 201 221 b 187 305 201 254 197 282 b 152 359 177 328 166 346 b 111 388 139 372 125 382 b 78 399 97 394 86 398 l 78 401 b 111 412 86 402 97 406 b 152 441 125 418 139 428 b 187 495 166 454 177 472 b 201 579 197 518 201 546 l 201 826 b 204 867 201 839 202 853 b 215 904 206 881 210 893 b 240 931 221 915 229 924 b 281 942 250 938 264 942 l 347 942 l 347 1017 l 260 1017 b 203 1008 240 1017 222 1014 b 156 978 185 1002 169 992 b 122 925 142 965 131 947 b 110 843 114 903 110 875 l 110 596 b 82 482 110 547 100 509 b 0 442 63 455 36 442 z "},"|":{"ha":308,"x_min":0,"x_max":0,"o":"m 196 1042 l 113 1042 l 113 -347 l 196 -347 z "},"}":{"ha":417,"x_min":0,"x_max":0,"o":"m 417 358 l 417 442 b 335 482 381 442 353 455 b 307 596 316 509 307 547 l 307 843 b 294 925 307 875 303 903 b 261 978 286 947 275 965 b 213 1008 247 992 231 1002 b 157 1017 195 1014 176 1017 l 69 1017 l 69 942 l 136 942 b 177 931 153 942 166 938 b 201 904 188 924 196 915 b 213 867 207 893 211 881 b 215 826 214 853 215 839 l 215 579 b 230 495 215 546 220 518 b 265 441 240 472 251 454 b 306 412 278 428 292 418 b 339 401 319 406 331 402 l 339 399 b 306 388 331 398 319 394 b 265 359 292 382 278 372 b 230 305 251 346 240 328 b 215 221 220 282 215 254 l 215 -26 b 213 -67 215 -39 214 -53 b 201 -104 211 -81 207 -93 b 177 -131 196 -115 188 -124 b 136 -142 166 -138 153 -142 l 69 -142 l 69 -217 l 157 -217 b 213 -208 176 -217 195 -214 b 261 -178 231 -202 247 -192 b 294 -125 275 -165 286 -147 b 307 -43 303 -103 307 -75 l 307 204 b 335 318 307 253 316 291 b 417 358 353 345 381 358 z "},"~":{"ha":925,"x_min":0,"x_max":0,"o":"m 801 456 l 743 511 b 720 478 737 501 729 490 b 690 444 711 466 701 455 b 653 419 679 434 667 426 b 608 410 639 413 624 410 b 540 425 586 410 563 415 b 465 467 517 435 492 449 b 387 505 437 485 410 498 b 313 515 363 512 338 515 b 251 503 290 515 270 511 b 199 473 232 496 215 485 b 158 431 184 460 170 447 b 124 386 145 416 134 401 l 182 331 b 204 365 188 342 196 353 b 233 398 213 377 222 388 b 271 422 244 408 257 416 b 315 432 285 429 300 432 b 383 418 339 432 362 427 b 458 376 405 409 430 395 b 503 351 475 366 490 358 b 540 336 516 345 528 340 b 576 328 552 332 564 330 b 613 326 587 327 600 326 b 674 338 635 326 655 330 b 726 369 693 346 711 356 b 769 410 742 381 756 395 b 801 456 781 426 792 441 z "}," ":{"ha":347,"x_min":0,"x_max":0,"o":""},"¡":{"ha":456,"x_min":0,"x_max":0,"o":"m 278 -318 l 278 399 l 178 399 l 178 -318 z m 303 599 b 282 651 303 618 296 635 b 228 674 268 666 250 674 b 174 651 206 674 188 666 b 153 599 160 635 153 618 b 174 547 153 579 160 562 b 228 524 188 531 206 524 b 282 547 250 524 268 531 b 303 599 296 562 303 579 z "},"¢":{"ha":806,"x_min":0,"x_max":0,"o":"m 414 579 l 414 71 b 334 101 384 76 358 87 b 274 157 310 116 290 135 b 235 233 257 179 244 205 b 222 325 227 262 222 293 b 235 417 222 357 227 388 b 274 493 244 445 257 471 b 334 549 290 515 310 534 b 414 579 358 563 384 574 z m 481 68 l 481 582 b 569 555 514 580 544 571 b 629 497 595 539 615 519 l 704 554 b 601 635 675 589 640 616 b 481 665 563 653 522 663 l 481 750 l 414 750 l 414 663 b 292 627 369 658 328 646 b 200 553 256 608 225 584 b 142 450 175 523 156 489 b 122 325 129 411 122 369 b 142 200 122 281 129 239 b 200 97 156 161 175 127 b 292 23 225 66 256 42 b 414 -12 328 4 369 -8 l 414 -100 l 481 -100 l 481 -15 b 601 15 522 -13 563 -3 b 704 96 640 34 675 61 l 629 153 b 569 95 615 131 595 111 b 481 68 544 79 514 70 z "},"£":{"ha":806,"x_min":0,"x_max":0,"o":"m 579 465 l 579 549 l 346 549 l 346 669 b 352 749 346 693 348 719 b 378 832 356 778 365 806 b 436 897 392 858 411 880 b 536 924 461 915 494 924 b 624 905 569 924 598 917 b 690 854 650 892 672 875 l 756 925 b 658 989 728 955 695 976 b 540 1008 620 1002 581 1008 b 400 979 485 1008 438 999 b 309 903 362 960 332 934 b 260 797 286 871 270 836 b 246 678 251 757 246 718 l 246 549 l 113 549 l 113 465 l 246 465 l 246 83 l 104 83 l 104 0 l 710 0 l 710 83 l 346 83 l 346 465 z "},"€":{"ha":806,"x_min":0,"x_max":0,"o":"m 710 879 l 710 879 l 744 964 b 650 997 718 978 686 989 b 538 1008 614 1004 576 1008 b 396 985 488 1008 440 1000 b 275 915 351 969 311 946 b 183 803 239 885 208 847 b 125 651 157 758 138 708 l 46 651 l 18 575 l 114 575 b 110 533 112 564 111 550 b 108 483 109 516 108 499 b 110 442 108 470 109 456 b 113 406 111 427 112 415 l 44 406 l 17 329 l 122 329 b 167 197 131 284 145 240 b 249 84 188 155 216 117 b 369 5 283 51 323 25 b 521 -25 415 -15 465 -25 b 763 40 620 -25 700 -3 l 722 118 b 634 76 694 99 665 84 b 533 63 603 67 569 63 b 423 81 494 63 458 69 b 330 135 388 94 357 112 b 261 219 303 159 280 187 b 222 329 243 252 230 288 l 543 329 l 568 406 l 213 406 b 208 445 211 417 209 430 b 207 485 207 460 207 474 b 209 531 207 500 208 516 b 214 575 210 547 212 561 l 618 575 l 643 651 l 226 651 b 334 849 246 735 282 800 b 533 921 386 897 453 921 b 710 879 604 921 663 907 z "},"¥":{"ha":806,"x_min":0,"x_max":0,"o":"m 356 310 l 126 310 l 126 235 l 356 235 l 356 0 l 450 0 l 450 235 l 679 235 l 679 310 l 450 310 l 450 456 l 679 456 l 679 531 l 481 531 l 792 983 l 672 983 l 406 567 l 138 983 l 14 983 l 328 531 l 126 531 l 126 456 l 356 456 z "},"Š":{"ha":783,"x_min":0,"x_max":0,"o":"m 607 825 l 686 889 b 579 973 662 921 626 949 b 408 1008 532 997 475 1008 b 299 993 372 1008 336 1003 b 197 944 262 983 228 967 b 123 860 167 922 142 894 b 94 738 104 825 94 785 b 117 625 94 693 102 656 b 178 548 133 594 153 569 b 263 497 203 527 231 510 b 358 463 294 484 326 473 b 449 432 390 452 420 442 b 525 394 477 422 503 409 b 578 337 547 378 565 359 b 599 251 592 314 599 286 b 578 169 599 220 592 192 b 527 109 565 145 548 125 b 457 73 506 93 483 81 b 381 61 431 65 406 61 b 245 97 329 61 284 73 b 156 185 207 120 177 150 l 69 121 b 131 57 87 97 107 75 b 206 11 154 38 179 23 b 290 -16 232 -1 261 -10 b 379 -25 320 -22 350 -25 b 495 -8 418 -25 457 -19 b 598 43 534 3 568 20 b 672 131 628 66 653 96 b 700 258 691 167 700 209 b 674 380 700 307 691 348 b 606 459 656 412 633 438 b 512 510 578 480 547 497 b 408 546 477 523 443 535 b 328 574 381 555 354 564 b 260 609 303 583 280 595 b 213 661 241 623 225 641 b 194 739 200 681 194 707 b 213 821 194 770 201 798 b 263 878 226 844 242 863 b 331 913 283 894 306 905 b 404 924 356 920 380 924 b 525 897 451 924 492 915 b 607 825 558 878 586 855 z m 453 1061 l 604 1261 l 513 1261 l 397 1111 l 282 1261 l 190 1261 l 342 1061 z "},"§":{"ha":806,"x_min":0,"x_max":0,"o":"m 576 836 l 658 878 b 579 970 644 914 618 945 b 428 1008 540 996 490 1008 b 334 995 395 1008 364 1004 b 253 955 304 986 277 973 b 197 886 230 937 211 914 b 176 789 183 858 176 826 b 188 726 176 765 180 744 b 215 679 195 708 204 692 b 249 646 225 666 237 655 b 283 622 262 637 273 629 b 180 556 242 609 207 587 b 139 439 153 524 139 485 b 149 371 139 413 142 390 b 178 320 156 351 166 334 b 219 282 190 306 204 293 b 271 253 235 271 252 261 l 447 168 b 522 116 477 154 502 137 b 551 35 541 95 551 68 b 535 -32 551 8 546 -14 b 495 -74 525 -50 511 -63 b 443 -95 479 -84 462 -91 b 390 -101 425 -99 407 -101 b 281 -74 351 -101 315 -92 b 207 19 247 -55 223 -24 l 115 -25 b 223 -146 138 -80 173 -120 b 390 -185 272 -172 328 -185 b 488 -172 424 -185 456 -180 b 572 -130 519 -163 547 -149 b 630 -59 596 -111 616 -87 b 651 42 644 -31 651 3 b 626 144 651 81 643 116 b 553 215 610 172 585 196 b 640 281 587 228 616 250 b 676 397 664 312 676 351 b 634 520 676 448 662 489 b 533 594 606 551 572 576 l 413 651 b 362 675 395 659 378 667 b 319 705 346 683 331 693 b 288 746 306 716 296 730 b 276 801 280 762 276 780 b 318 892 276 840 290 871 b 426 925 346 914 382 925 b 483 917 448 925 467 922 b 527 896 500 911 515 904 b 558 867 540 888 550 878 b 576 836 566 857 572 846 z m 360 569 l 444 533 b 497 509 463 526 480 518 b 540 478 513 500 527 490 b 569 438 552 467 562 453 b 579 383 576 422 579 404 b 569 335 579 365 576 349 b 545 299 563 321 555 309 b 513 274 535 288 525 280 b 478 260 500 267 489 263 l 386 301 b 322 331 362 312 341 321 b 275 360 304 340 288 350 b 246 397 262 371 252 383 b 236 444 239 410 236 426 b 248 499 236 466 240 484 b 278 537 256 515 266 527 b 319 559 291 547 304 554 b 360 569 333 564 347 568 z "},"š":{"ha":617,"x_min":0,"x_max":0,"o":"m 471 496 l 543 550 b 447 636 522 587 490 616 b 315 667 405 656 361 667 b 229 656 286 667 257 663 b 155 622 201 648 177 637 b 103 563 133 606 116 587 b 83 478 90 540 83 511 b 101 401 83 447 89 422 b 147 351 113 381 129 364 b 208 320 166 337 186 327 b 269 303 229 313 250 307 b 412 255 331 288 379 272 b 461 178 445 238 461 212 b 449 124 461 156 457 139 b 415 89 440 110 429 98 b 367 69 401 80 385 73 b 308 64 348 66 329 64 b 201 93 269 64 234 74 b 128 165 169 113 144 137 l 53 110 b 167 14 82 66 120 34 b 310 -17 213 -6 261 -17 b 398 -6 339 -17 369 -13 b 476 28 427 1 453 12 b 533 91 500 45 518 66 b 554 185 547 116 554 148 b 499 306 554 236 536 276 b 329 375 463 336 406 359 b 211 416 275 386 236 400 b 174 486 186 432 174 456 b 185 532 174 504 178 519 b 217 564 193 545 204 556 b 261 582 230 572 244 578 b 311 588 278 586 294 588 b 408 562 347 588 379 579 b 471 496 436 545 457 523 z m 375 783 l 526 983 l 435 983 l 319 833 l 204 983 l 113 983 l 264 783 z "},"©":{"ha":1111,"x_min":0,"x_max":0,"o":"m 806 311 l 733 358 b 657 289 711 326 686 303 b 569 268 628 275 599 268 b 478 287 535 268 505 274 b 409 338 451 299 428 316 b 366 411 390 359 376 383 b 351 499 356 439 351 468 b 367 585 351 529 356 558 b 410 658 377 613 391 637 b 480 709 429 680 453 697 b 572 728 507 722 538 728 b 662 702 605 728 634 719 b 722 646 689 685 709 666 l 794 701 b 698 782 771 736 739 763 b 569 811 657 801 614 811 b 444 788 524 811 482 803 b 344 722 405 772 372 750 b 279 624 317 694 295 662 b 256 499 263 586 256 544 b 279 373 256 453 263 411 b 344 274 295 334 317 301 b 444 208 372 246 405 224 b 569 185 482 193 524 185 b 713 222 625 185 673 197 b 806 311 752 247 783 277 z m 28 490 b 69 287 28 418 42 350 b 183 121 97 223 135 168 b 351 10 230 74 286 37 b 557 -31 415 -17 484 -31 b 761 10 629 -31 697 -17 b 928 121 825 37 881 74 b 1042 287 976 168 1014 223 b 1083 490 1069 350 1083 418 b 1042 695 1083 563 1069 632 b 928 861 1014 759 976 814 b 761 973 881 908 825 946 b 557 1014 697 1000 629 1014 b 351 973 484 1014 415 1000 b 183 861 286 946 230 908 b 69 695 135 814 97 759 b 28 490 42 632 28 563 z m 111 490 b 147 663 111 551 123 609 b 242 805 170 717 202 765 b 384 901 283 845 330 877 b 557 936 438 924 496 936 b 729 901 618 936 675 924 b 870 805 783 877 830 845 b 965 663 910 765 942 717 b 1000 490 988 609 1000 551 b 965 318 1000 429 988 372 b 870 177 942 264 910 217 b 729 82 830 137 783 105 b 557 47 675 59 618 47 b 384 82 496 47 438 59 b 242 177 330 105 283 137 b 147 318 202 217 170 264 b 111 490 123 372 111 429 z "},"ª":{"ha":500,"x_min":0,"x_max":0,"o":"m 339 853 l 339 842 b 237 838 305 842 271 840 b 146 820 203 835 173 829 b 81 781 119 811 97 798 b 56 710 64 763 56 739 b 69 653 56 688 60 669 b 105 615 79 637 91 625 b 152 595 119 606 135 599 b 203 589 169 591 186 589 b 339 656 263 589 308 611 l 342 656 b 349 599 342 638 344 619 l 421 599 b 417 635 419 609 418 621 b 415 676 416 650 415 663 l 415 847 b 374 956 415 891 401 927 b 244 1000 346 985 303 1000 b 152 985 212 1000 181 995 b 78 942 123 975 98 960 l 122 893 b 173 925 135 906 152 917 b 238 938 194 933 215 938 b 310 917 267 938 291 931 b 339 853 329 903 339 881 z m 318 786 l 339 786 l 339 765 b 308 683 339 732 328 704 b 219 650 287 661 257 650 b 163 663 199 650 180 654 b 138 711 146 672 138 688 b 155 751 138 728 143 741 b 199 774 166 760 181 768 b 257 784 216 779 236 783 b 318 786 278 785 299 786 z "},"«":{"ha":669,"x_min":0,"x_max":0,"o":"m 172 333 l 332 578 l 267 624 l 72 333 l 267 43 l 332 89 z m 425 333 l 585 578 l 519 624 l 325 333 l 519 43 l 585 89 z "},"¬":{"ha":925,"x_min":0,"x_max":0,"o":"m 817 181 l 817 567 l 108 567 l 108 483 l 733 483 l 733 181 z "},"­":{"ha":444,"x_min":0,"x_max":0,"o":"m 378 297 l 378 376 l 67 376 l 67 297 z "},"®":{"ha":833,"x_min":0,"x_max":0,"o":"m 100 685 b 125 563 100 641 108 600 b 193 463 142 525 164 491 b 294 397 222 435 255 413 b 417 372 332 380 373 372 b 540 397 460 372 501 380 b 640 463 578 413 612 435 b 708 563 669 491 692 525 b 733 685 725 600 733 641 b 708 808 733 728 725 769 b 640 908 692 846 669 879 b 540 975 612 936 578 958 b 417 1000 501 992 460 1000 b 294 975 373 1000 332 992 b 193 908 255 958 222 936 b 125 808 164 879 142 846 b 100 685 108 769 100 728 z m 150 685 b 171 789 150 722 157 756 b 228 874 185 821 204 850 b 313 931 252 898 280 917 b 417 951 345 944 380 951 b 521 931 454 951 488 944 b 606 874 553 917 581 898 b 663 789 630 850 649 821 b 683 685 676 756 683 722 b 663 582 683 649 676 614 b 606 497 649 550 630 521 b 521 439 581 472 553 453 b 417 418 488 425 454 418 b 313 439 380 418 345 425 b 228 497 280 453 252 472 b 171 582 204 521 185 550 b 150 685 157 614 150 649 z m 293 864 l 293 508 l 357 508 l 357 657 l 403 657 l 486 508 l 564 508 l 468 664 b 528 697 493 669 513 680 b 550 760 543 713 550 734 b 539 808 550 779 546 795 b 509 840 531 821 522 832 b 467 858 497 849 482 855 b 418 864 451 862 435 864 z m 408 708 l 357 708 l 357 810 l 415 810 b 463 800 432 810 448 806 b 486 761 478 794 486 781 b 461 719 486 740 478 726 b 408 708 444 712 427 708 z "},"¯":{"ha":333,"x_min":0,"x_max":0,"o":"m 354 833 l 354 908 l -21 908 l -21 833 z "},"°":{"ha":556,"x_min":0,"x_max":0,"o":"m 485 793 b 469 876 485 823 480 850 b 426 942 459 901 445 923 b 360 985 408 960 386 975 b 278 1000 335 995 307 1000 b 195 985 248 1000 221 995 b 129 942 170 975 148 960 b 86 876 111 923 96 901 b 71 793 76 850 71 823 b 86 710 71 763 76 736 b 129 644 96 685 111 663 b 195 601 148 626 170 612 b 278 586 221 591 248 586 b 360 601 307 586 335 591 b 426 644 386 612 408 626 b 469 710 445 663 459 685 b 485 793 480 736 485 763 z m 418 793 b 407 738 418 774 414 755 b 377 694 400 721 390 706 b 333 664 365 681 350 671 b 278 653 316 656 297 653 b 223 664 258 653 240 656 b 178 694 206 671 191 681 b 149 738 166 706 156 721 b 138 793 141 755 138 774 b 149 848 138 813 141 831 b 178 892 156 865 166 880 b 223 922 191 905 206 915 b 278 933 240 930 258 933 b 333 922 297 933 316 930 b 377 892 350 915 365 905 b 407 848 390 880 400 865 b 418 793 414 831 418 813 z "},"±":{"ha":925,"x_min":0,"x_max":0,"o":"m 108 565 l 108 482 l 421 482 l 421 272 l 504 272 l 504 482 l 817 482 l 817 565 l 504 565 l 504 782 l 421 782 l 421 565 z m 108 150 l 108 67 l 817 67 l 817 150 z "},"²":{"ha":514,"x_min":0,"x_max":0,"o":"m 443 403 l 443 478 l 164 478 l 342 656 b 377 692 354 668 366 680 b 408 733 389 705 399 718 b 431 780 418 747 425 763 b 440 836 437 797 440 816 b 426 907 440 863 435 887 b 386 958 416 927 403 944 b 328 988 369 971 350 981 b 258 999 306 995 282 999 b 136 953 211 999 170 984 b 71 838 102 923 80 885 l 154 825 b 192 896 161 855 173 878 b 258 922 210 913 232 922 b 325 899 285 922 307 915 b 351 836 343 884 351 863 b 333 769 351 810 345 788 b 292 717 320 750 306 732 l 60 482 l 60 403 z "},"³":{"ha":514,"x_min":0,"x_max":0,"o":"m 190 743 l 190 672 l 228 672 b 276 667 244 672 261 670 b 319 649 292 663 306 657 b 349 618 331 641 341 631 b 361 571 357 605 361 589 b 327 494 361 537 350 511 b 250 469 304 478 279 469 b 178 492 223 469 199 477 b 133 554 158 506 143 527 l 54 528 b 133 426 73 481 99 448 b 250 394 166 405 206 394 b 324 406 276 394 301 398 b 386 439 348 413 369 424 b 428 494 404 454 418 472 b 444 571 439 517 444 542 b 419 660 444 606 436 636 b 349 713 402 684 378 701 b 406 765 373 725 392 743 b 428 842 421 786 428 812 b 414 910 428 868 423 891 b 376 960 405 930 392 947 b 319 990 359 974 341 984 b 251 1000 298 997 275 1000 b 153 974 216 1000 183 991 b 75 893 122 957 96 930 l 144 857 b 190 908 156 879 172 896 b 249 926 208 920 227 926 b 317 903 275 926 298 919 b 344 840 335 887 344 866 b 310 765 344 805 333 780 b 228 743 288 750 260 743 z "},"Ž":{"ha":794,"x_min":0,"x_max":0,"o":"m 743 900 l 743 983 l 58 983 l 58 894 l 618 894 l 43 83 l 43 0 l 751 0 l 751 89 l 169 89 z m 454 1061 l 606 1261 l 514 1261 l 399 1111 l 283 1261 l 192 1261 l 343 1061 z "},"µ":{"ha":772,"x_min":0,"x_max":0,"o":"m 100 650 l 100 -317 l 192 -317 l 192 24 b 344 -17 230 -3 281 -17 b 409 -7 366 -17 387 -13 b 471 19 431 0 451 8 b 524 58 490 31 508 44 b 563 106 539 73 552 89 l 565 106 l 565 0 l 664 0 b 659 72 662 24 660 48 b 657 143 658 95 657 119 l 657 650 l 565 650 l 565 317 b 550 210 565 277 560 241 b 508 132 540 179 526 153 b 446 83 491 111 470 94 b 368 67 422 72 396 67 b 230 119 301 67 255 84 b 192 290 204 153 192 211 l 192 650 z "},"¶":{"ha":833,"x_min":0,"x_max":0,"o":"m 713 -175 l 713 983 l 383 983 b 151 908 285 983 208 958 b 67 697 95 858 67 788 b 88 596 67 661 74 627 b 148 514 103 564 122 537 b 240 459 173 491 204 472 b 357 439 275 446 314 439 l 357 -175 l 449 -175 l 449 908 l 621 908 l 621 -175 z "},"·":{"ha":361,"x_min":0,"x_max":0,"o":"m 256 436 b 235 488 256 456 249 473 b 181 511 221 503 203 511 b 126 488 158 511 140 503 b 106 436 113 473 106 456 b 126 384 106 417 113 399 b 181 361 140 369 158 361 b 235 384 203 361 221 369 b 256 436 249 399 256 417 z "},"ž":{"ha":614,"x_min":0,"x_max":0,"o":"m 557 583 l 557 650 l 63 650 l 63 571 l 431 571 l 43 67 l 43 0 l 571 0 l 571 82 l 168 82 z m 368 783 l 519 983 l 428 983 l 313 833 l 197 983 l 106 983 l 257 783 z "},"¹":{"ha":514,"x_min":0,"x_max":0,"o":"m 322 397 l 322 983 l 251 983 l 96 856 l 149 799 l 238 878 l 238 397 z "},"º":{"ha":500,"x_min":0,"x_max":0,"o":"m 461 794 b 445 878 461 825 456 853 b 401 942 434 903 420 924 b 335 985 383 960 361 975 b 250 1000 309 995 281 1000 b 165 985 219 1000 191 995 b 99 942 139 975 117 960 b 55 878 80 924 66 903 b 39 794 44 853 39 825 b 55 712 39 765 44 737 b 99 647 66 686 80 665 b 165 604 117 628 139 614 b 250 589 191 594 219 589 b 335 604 281 589 309 594 b 401 647 361 614 383 628 b 445 712 420 665 434 686 b 461 794 456 737 461 765 z m 381 794 b 372 741 381 776 378 758 b 347 696 367 724 358 709 b 306 665 336 683 322 672 b 250 653 290 657 271 653 b 194 665 229 653 210 657 b 153 696 178 672 164 683 b 128 741 142 709 133 724 b 119 794 122 758 119 776 b 128 848 119 813 122 831 b 153 893 133 865 142 880 b 194 924 164 906 178 916 b 250 936 210 932 229 936 b 306 924 271 936 290 932 b 347 893 322 916 336 906 b 372 848 358 880 367 865 b 381 794 378 831 381 813 z "},"»":{"ha":669,"x_min":0,"x_max":0,"o":"m 497 333 l 338 89 l 403 43 l 597 333 l 403 624 l 338 578 z m 244 333 l 85 89 l 150 43 l 344 333 l 150 624 l 85 578 z "},"Œ":{"ha":1378,"x_min":0,"x_max":0,"o":"m 1296 983 l 615 983 b 431 953 554 983 493 973 b 265 860 370 932 314 902 b 144 706 215 819 175 768 b 99 492 114 645 99 573 b 144 276 99 409 114 337 b 265 123 175 215 215 164 b 431 31 314 82 370 51 b 615 0 493 10 554 0 l 1313 0 l 1313 89 l 833 89 l 833 468 l 1263 468 l 1263 556 l 833 556 l 833 894 l 1296 894 z m 643 894 l 733 894 l 733 89 l 643 89 b 449 124 569 89 504 100 b 313 215 394 147 349 177 b 231 343 276 252 249 295 b 204 492 213 391 204 441 b 231 640 204 543 213 592 b 313 769 249 688 276 731 b 449 860 349 806 394 837 b 643 894 504 883 569 894 z "},"œ":{"ha":1381,"x_min":0,"x_max":0,"o":"m 990 667 b 828 624 929 667 875 653 b 714 508 781 596 743 557 b 596 624 684 557 645 596 b 422 667 547 653 489 667 b 284 641 372 667 326 658 b 175 569 242 624 206 600 b 103 461 144 539 121 503 b 78 325 86 419 78 374 b 103 189 78 276 86 231 b 175 81 121 147 144 111 b 284 9 206 50 242 26 b 422 -17 326 -8 372 -17 b 597 26 489 -17 547 -3 b 715 142 646 54 686 93 b 831 26 744 93 782 54 b 999 -17 879 -3 935 -17 b 1151 15 1053 -17 1104 -6 b 1279 121 1197 37 1240 72 l 1208 176 b 1127 98 1190 147 1163 121 b 1000 64 1091 75 1049 64 b 906 83 967 64 935 70 b 831 133 877 95 852 112 b 780 208 809 155 792 180 b 760 300 767 237 761 268 l 1301 300 b 1303 324 1302 308 1303 316 l 1303 344 b 1283 469 1303 389 1296 431 b 1224 572 1269 508 1250 542 b 1126 641 1198 601 1165 624 b 990 667 1086 658 1041 667 z m 671 325 b 653 223 671 289 665 255 b 603 140 642 191 625 163 b 525 84 582 116 556 97 b 422 64 494 71 460 64 b 320 84 384 64 350 71 b 242 140 290 97 264 116 b 192 223 221 163 204 191 b 175 325 181 255 175 289 b 192 427 175 361 181 395 b 242 510 204 459 221 487 b 320 567 264 534 290 553 b 422 588 350 581 384 588 b 525 567 460 588 494 581 b 603 510 556 553 582 534 b 653 427 625 487 642 459 b 671 325 665 395 671 361 z m 1207 375 l 764 375 b 785 455 766 403 773 429 b 833 523 797 480 813 503 b 904 570 854 543 877 559 b 992 588 931 582 960 588 b 1148 527 1059 588 1111 567 b 1207 375 1184 487 1204 436 z "},"Ÿ":{"ha":836,"x_min":0,"x_max":0,"o":"m 468 0 l 468 424 l 836 983 l 719 983 l 421 507 l 125 983 l 0 983 l 368 424 l 368 0 z m 217 1176 b 236 1127 217 1158 223 1141 b 288 1106 249 1113 266 1106 b 339 1127 309 1106 326 1113 b 358 1176 352 1141 358 1158 b 339 1226 358 1195 352 1211 b 288 1247 326 1240 309 1247 b 236 1226 266 1247 249 1240 b 217 1176 223 1211 217 1195 z m 483 1176 b 503 1127 483 1158 490 1141 b 554 1106 516 1113 533 1106 b 606 1127 575 1106 593 1113 b 625 1176 619 1141 625 1158 b 606 1226 625 1195 619 1211 b 554 1247 593 1240 575 1247 b 503 1226 533 1247 516 1240 b 483 1176 490 1211 483 1195 z "},"¿":{"ha":669,"x_min":0,"x_max":0,"o":"m 297 399 l 297 335 b 292 271 297 310 295 288 b 274 223 288 253 282 237 b 241 182 265 209 254 195 b 192 139 228 169 211 155 b 142 95 174 124 157 109 b 101 47 126 81 112 65 b 74 -12 89 30 80 10 b 64 -90 67 -35 64 -61 b 85 -194 64 -129 71 -164 b 143 -272 100 -225 119 -251 b 228 -319 167 -292 196 -308 b 333 -335 261 -329 296 -335 b 516 -273 406 -335 466 -314 b 611 -103 566 -232 597 -175 l 517 -86 b 459 -203 509 -133 490 -172 b 338 -249 428 -233 388 -249 b 270 -237 313 -249 291 -245 b 215 -206 249 -230 231 -219 b 178 -154 200 -192 187 -175 b 164 -85 169 -134 164 -111 b 187 6 164 -49 172 -19 b 244 69 202 30 221 51 l 283 104 b 324 143 297 116 311 129 b 360 189 338 157 350 172 b 385 244 371 206 379 224 b 394 315 391 265 394 288 l 394 399 z m 261 599 b 282 547 261 579 268 562 b 336 524 296 531 314 524 b 390 547 358 524 376 531 b 411 599 404 562 411 579 b 390 651 411 618 404 635 b 336 674 376 666 358 674 b 282 651 314 674 296 666 b 261 599 268 635 261 618 z "},"À":{"ha":972,"x_min":0,"x_max":0,"o":"m 124 0 l 231 258 l 739 258 l 847 0 l 958 0 l 536 983 l 439 983 l 14 0 z m 268 350 l 485 872 l 701 350 z m 267 1261 l 450 1061 l 532 1061 l 393 1261 z "},"Á":{"ha":972,"x_min":0,"x_max":0,"o":"m 124 0 l 231 258 l 739 258 l 847 0 l 958 0 l 536 983 l 439 983 l 14 0 z m 268 350 l 485 872 l 701 350 z m 526 1061 l 710 1261 l 583 1261 l 444 1061 z "},"Â":{"ha":972,"x_min":0,"x_max":0,"o":"m 124 0 l 231 258 l 739 258 l 847 0 l 958 0 l 536 983 l 439 983 l 14 0 z m 268 350 l 485 872 l 701 350 z m 692 1061 l 540 1261 l 429 1261 l 278 1061 l 369 1061 l 485 1211 l 600 1061 z "},"Ã":{"ha":972,"x_min":0,"x_max":0,"o":"m 124 0 l 231 258 l 739 258 l 847 0 l 958 0 l 536 983 l 439 983 l 14 0 z m 268 350 l 485 872 l 701 350 z m 261 1078 l 321 1078 b 342 1126 325 1095 333 1111 b 389 1147 352 1140 368 1147 b 435 1138 404 1147 419 1144 b 482 1115 450 1131 466 1124 b 532 1093 498 1107 514 1100 b 583 1083 550 1087 567 1083 b 636 1096 604 1083 621 1088 b 674 1128 651 1104 663 1115 b 698 1174 684 1142 692 1157 b 711 1228 704 1191 708 1209 l 651 1228 b 630 1180 647 1210 640 1194 b 583 1158 620 1166 605 1158 b 539 1169 569 1158 555 1162 b 490 1190 523 1176 507 1183 b 440 1213 474 1199 457 1206 b 389 1222 422 1219 406 1222 b 335 1210 368 1222 350 1218 b 299 1177 321 1201 309 1191 b 274 1131 288 1164 280 1148 b 261 1078 268 1113 264 1095 z "},"Ä":{"ha":972,"x_min":0,"x_max":0,"o":"m 124 0 l 231 258 l 739 258 l 847 0 l 958 0 l 536 983 l 439 983 l 14 0 z m 268 350 l 485 872 l 701 350 z m 283 1176 b 303 1127 283 1158 290 1141 b 354 1106 316 1113 333 1106 b 406 1127 375 1106 393 1113 b 425 1176 419 1141 425 1158 b 406 1226 425 1195 419 1211 b 354 1247 393 1240 375 1247 b 303 1226 333 1247 316 1240 b 283 1176 290 1211 283 1195 z m 550 1176 b 569 1127 550 1158 556 1141 b 621 1106 582 1113 600 1106 b 672 1127 642 1106 659 1113 b 692 1176 685 1141 692 1158 b 672 1226 692 1195 685 1211 b 621 1247 659 1240 642 1247 b 569 1226 600 1247 582 1240 b 550 1176 556 1211 550 1195 z "},"Å":{"ha":972,"x_min":0,"x_max":0,"o":"m 124 0 l 231 258 l 739 258 l 847 0 l 958 0 l 536 983 l 439 983 l 14 0 z m 268 350 l 485 872 l 701 350 z m 619 1181 b 609 1233 619 1199 616 1216 b 580 1274 602 1249 592 1263 b 537 1302 567 1286 553 1295 b 486 1313 521 1309 504 1313 b 435 1302 468 1313 450 1309 b 392 1274 419 1295 405 1286 b 363 1233 380 1263 370 1249 b 353 1181 356 1216 353 1199 b 363 1128 353 1162 356 1145 b 392 1086 370 1112 380 1098 b 435 1058 405 1074 419 1065 b 486 1049 450 1052 468 1049 b 537 1058 504 1049 521 1052 b 580 1086 553 1065 567 1074 b 609 1128 592 1098 602 1112 b 619 1181 616 1145 619 1162 z m 569 1181 b 545 1122 569 1157 561 1138 b 486 1099 529 1106 509 1099 b 427 1122 463 1099 443 1106 b 403 1181 411 1138 403 1157 b 427 1239 403 1204 411 1223 b 486 1263 443 1255 463 1263 b 545 1239 509 1263 529 1255 b 569 1181 561 1223 569 1204 z "},"Æ":{"ha":1375,"x_min":0,"x_max":0,"o":"m 821 89 l 821 468 l 1250 468 l 1250 556 l 821 556 l 821 894 l 1283 894 l 1283 983 l 656 983 l 15 0 l 129 0 l 307 275 l 721 275 l 721 0 l 1300 0 l 1300 89 z m 721 363 l 358 363 l 701 894 l 721 894 z "},"Ç":{"ha":1000,"x_min":0,"x_max":0,"o":"m 958 158 l 881 208 b 753 97 846 157 804 120 b 592 63 702 74 648 63 b 422 97 529 62 472 74 b 293 191 371 120 328 152 b 212 328 258 230 231 276 b 183 492 193 380 183 434 b 211 656 183 549 193 604 b 292 792 230 707 256 753 b 420 886 327 832 370 863 b 592 921 471 909 528 921 b 680 910 623 921 653 917 b 756 881 707 902 732 893 b 816 839 779 869 799 855 b 857 792 833 823 847 807 l 940 853 b 878 917 924 877 903 898 b 794 966 853 936 825 953 b 697 997 764 979 731 990 b 590 1008 662 1005 626 1008 b 387 969 517 1008 449 995 b 224 862 324 944 270 908 b 117 699 178 816 143 762 b 78 492 91 636 78 567 b 111 297 78 422 89 357 b 205 140 133 237 165 184 b 349 30 245 95 293 58 b 533 -22 405 2 467 -16 l 461 -136 l 486 -157 b 546 -146 506 -150 525 -146 b 601 -159 569 -146 587 -150 b 621 -200 614 -168 621 -181 b 611 -228 621 -211 618 -221 b 588 -248 605 -236 597 -243 b 558 -258 578 -253 569 -256 b 532 -261 548 -260 539 -261 b 481 -257 514 -261 497 -260 b 432 -242 464 -254 448 -249 l 410 -292 b 476 -312 429 -301 451 -308 b 540 -319 500 -317 522 -319 b 597 -314 559 -319 578 -318 b 650 -294 617 -310 634 -304 b 689 -257 666 -285 679 -273 b 704 -199 699 -241 704 -222 b 668 -124 704 -165 692 -140 b 590 -99 644 -107 618 -99 b 542 -104 570 -99 554 -100 l 590 -25 b 713 -10 635 -25 676 -20 b 816 29 751 -1 785 13 b 898 88 847 46 874 65 b 958 158 922 110 942 133 z "},"È":{"ha":822,"x_min":0,"x_max":0,"o":"m 231 89 l 231 468 l 707 468 l 707 556 l 231 556 l 231 894 l 740 894 l 740 983 l 131 983 l 131 0 l 757 0 l 757 89 z m 256 1261 l 439 1061 l 521 1061 l 382 1261 z "},"É":{"ha":822,"x_min":0,"x_max":0,"o":"m 231 89 l 231 468 l 707 468 l 707 556 l 231 556 l 231 894 l 740 894 l 740 983 l 131 983 l 131 0 l 757 0 l 757 89 z m 450 1061 l 633 1261 l 507 1261 l 368 1061 z "},"Ê":{"ha":822,"x_min":0,"x_max":0,"o":"m 231 89 l 231 468 l 707 468 l 707 556 l 231 556 l 231 894 l 740 894 l 740 983 l 131 983 l 131 0 l 757 0 l 757 89 z m 646 1061 l 494 1261 l 383 1261 l 232 1061 l 324 1061 l 439 1211 l 554 1061 z "},"Ë":{"ha":822,"x_min":0,"x_max":0,"o":"m 231 89 l 231 468 l 707 468 l 707 556 l 231 556 l 231 894 l 740 894 l 740 983 l 131 983 l 131 0 l 757 0 l 757 89 z m 235 1176 b 254 1127 235 1158 241 1141 b 306 1106 267 1113 284 1106 b 357 1127 327 1106 344 1113 b 376 1176 370 1141 376 1158 b 357 1226 376 1195 370 1211 b 306 1247 344 1240 327 1247 b 254 1226 284 1247 267 1240 b 235 1176 241 1211 235 1195 z m 501 1176 b 521 1127 501 1158 508 1141 b 572 1106 534 1113 551 1106 b 624 1127 594 1106 611 1113 b 643 1176 637 1141 643 1158 b 624 1226 643 1195 637 1211 b 572 1247 611 1240 594 1247 b 521 1226 551 1247 534 1240 b 501 1176 508 1211 501 1195 z "},"Ì":{"ha":361,"x_min":0,"x_max":0,"o":"m 231 0 l 231 983 l 131 983 l 131 0 z m -36 1261 l 147 1061 l 229 1061 l 90 1261 z "},"Í":{"ha":361,"x_min":0,"x_max":0,"o":"m 231 0 l 231 983 l 131 983 l 131 0 z m 213 1061 l 396 1261 l 269 1261 l 131 1061 z "},"Î":{"ha":361,"x_min":0,"x_max":0,"o":"m 231 0 l 231 983 l 131 983 l 131 0 z m 388 1061 l 236 1261 l 125 1261 l -26 1061 l 65 1061 l 181 1211 l 296 1061 z "},"Ï":{"ha":361,"x_min":0,"x_max":0,"o":"m 231 0 l 231 983 l 131 983 l 131 0 z m -24 1176 b -4 1127 -24 1158 -17 1141 b 47 1106 9 1113 26 1106 b 99 1127 69 1106 86 1113 b 118 1176 112 1141 118 1158 b 99 1226 118 1195 112 1211 b 47 1247 86 1240 69 1247 b -4 1226 26 1247 9 1240 b -24 1176 -17 1211 -24 1195 z m 243 1176 b 263 1127 243 1158 250 1141 b 314 1106 275 1113 293 1106 b 365 1127 335 1106 352 1113 b 385 1176 378 1141 385 1158 b 365 1226 385 1195 378 1211 b 314 1247 352 1240 335 1247 b 263 1226 293 1247 275 1240 b 243 1176 250 1211 243 1195 z "},"Ð":{"ha":1051,"x_min":0,"x_max":0,"o":"m 119 482 l 119 0 l 446 0 b 630 31 507 0 568 10 b 797 123 691 51 747 82 b 917 276 846 164 886 215 b 963 492 947 338 963 409 b 917 706 963 573 947 645 b 797 860 886 768 846 819 b 630 953 747 902 691 932 b 446 983 568 973 507 983 l 119 983 l 119 557 l 18 557 l 18 482 z m 219 92 l 219 482 l 578 482 l 578 557 l 219 557 l 219 892 l 414 892 b 609 858 489 892 554 880 b 747 767 664 835 710 805 b 828 640 783 730 810 687 b 854 492 845 592 854 543 b 828 344 854 441 845 391 b 747 216 810 296 783 253 b 609 126 710 178 664 148 b 414 92 554 103 489 92 z "},"Ñ":{"ha":1061,"x_min":0,"x_max":0,"o":"m 828 146 l 256 983 l 131 983 l 131 0 l 231 0 l 231 846 l 233 846 l 806 0 l 931 0 l 931 983 l 831 983 l 831 146 z m 310 1078 l 369 1078 b 391 1126 374 1095 381 1111 b 438 1147 401 1140 416 1147 b 483 1138 452 1147 468 1144 b 531 1115 499 1131 515 1124 b 581 1093 546 1107 563 1100 b 632 1083 598 1087 615 1083 b 685 1096 652 1083 670 1088 b 722 1128 700 1104 712 1115 b 747 1174 732 1142 740 1157 b 760 1228 753 1191 757 1209 l 700 1228 b 678 1180 695 1210 688 1194 b 632 1158 669 1166 653 1158 b 588 1169 618 1158 603 1162 b 539 1190 572 1176 556 1183 b 488 1213 522 1199 505 1206 b 438 1222 471 1219 454 1222 b 384 1210 416 1222 398 1218 b 347 1177 370 1201 357 1191 b 323 1131 337 1164 329 1148 b 310 1078 317 1113 313 1095 z "},"Ò":{"ha":1181,"x_min":0,"x_max":0,"o":"m 1103 492 b 1064 699 1103 567 1090 636 b 956 862 1038 762 1002 816 b 794 969 910 908 856 944 b 590 1008 731 995 663 1008 b 387 969 517 1008 449 995 b 224 862 324 944 270 908 b 117 699 178 816 143 762 b 78 492 91 636 78 567 b 117 285 78 417 91 348 b 224 122 143 222 178 167 b 387 14 270 76 324 40 b 590 -25 449 -12 517 -25 b 794 14 663 -25 731 -12 b 956 122 856 40 910 76 b 1064 285 1002 167 1038 222 b 1103 492 1090 348 1103 417 z m 997 492 b 969 328 997 434 988 380 b 889 192 951 276 924 231 b 760 99 854 153 811 122 b 590 64 710 75 653 64 b 420 99 527 64 471 75 b 292 192 370 122 327 153 b 211 328 256 231 230 276 b 183 492 193 380 183 434 b 211 656 183 549 193 604 b 292 792 230 707 256 753 b 420 886 327 832 370 863 b 590 921 471 909 527 921 b 760 886 653 921 710 909 b 889 792 811 863 854 832 b 969 656 924 753 951 707 b 997 492 988 604 997 549 z m 426 1261 l 610 1061 l 692 1061 l 553 1261 z "},"Ó":{"ha":1181,"x_min":0,"x_max":0,"o":"m 1103 492 b 1064 699 1103 567 1090 636 b 956 862 1038 762 1002 816 b 794 969 910 908 856 944 b 590 1008 731 995 663 1008 b 387 969 517 1008 449 995 b 224 862 324 944 270 908 b 117 699 178 816 143 762 b 78 492 91 636 78 567 b 117 285 78 417 91 348 b 224 122 143 222 178 167 b 387 14 270 76 324 40 b 590 -25 449 -12 517 -25 b 794 14 663 -25 731 -12 b 956 122 856 40 910 76 b 1064 285 1002 167 1038 222 b 1103 492 1090 348 1103 417 z m 997 492 b 969 328 997 434 988 380 b 889 192 951 276 924 231 b 760 99 854 153 811 122 b 590 64 710 75 653 64 b 420 99 527 64 471 75 b 292 192 370 122 327 153 b 211 328 256 231 230 276 b 183 492 193 380 183 434 b 211 656 183 549 193 604 b 292 792 230 707 256 753 b 420 886 327 832 370 863 b 590 921 471 909 527 921 b 760 886 653 921 710 909 b 889 792 811 863 854 832 b 969 656 924 753 951 707 b 997 492 988 604 997 549 z m 592 1061 l 775 1261 l 649 1261 l 510 1061 z "},"Ô":{"ha":1181,"x_min":0,"x_max":0,"o":"m 1103 492 b 1064 699 1103 567 1090 636 b 956 862 1038 762 1002 816 b 794 969 910 908 856 944 b 590 1008 731 995 663 1008 b 387 969 517 1008 449 995 b 224 862 324 944 270 908 b 117 699 178 816 143 762 b 78 492 91 636 78 567 b 117 285 78 417 91 348 b 224 122 143 222 178 167 b 387 14 270 76 324 40 b 590 -25 449 -12 517 -25 b 794 14 663 -25 731 -12 b 956 122 856 40 910 76 b 1064 285 1002 167 1038 222 b 1103 492 1090 348 1103 417 z m 997 492 b 969 328 997 434 988 380 b 889 192 951 276 924 231 b 760 99 854 153 811 122 b 590 64 710 75 653 64 b 420 99 527 64 471 75 b 292 192 370 122 327 153 b 211 328 256 231 230 276 b 183 492 193 380 183 434 b 211 656 183 549 193 604 b 292 792 230 707 256 753 b 420 886 327 832 370 863 b 590 921 471 909 527 921 b 760 886 653 921 710 909 b 889 792 811 863 854 832 b 969 656 924 753 951 707 b 997 492 988 604 997 549 z m 797 1061 l 646 1261 l 535 1261 l 383 1061 l 475 1061 l 590 1211 l 706 1061 z "},"Õ":{"ha":1181,"x_min":0,"x_max":0,"o":"m 1103 492 b 1064 699 1103 567 1090 636 b 956 862 1038 762 1002 816 b 794 969 910 908 856 944 b 590 1008 731 995 663 1008 b 387 969 517 1008 449 995 b 224 862 324 944 270 908 b 117 699 178 816 143 762 b 78 492 91 636 78 567 b 117 285 78 417 91 348 b 224 122 143 222 178 167 b 387 14 270 76 324 40 b 590 -25 449 -12 517 -25 b 794 14 663 -25 731 -12 b 956 122 856 40 910 76 b 1064 285 1002 167 1038 222 b 1103 492 1090 348 1103 417 z m 997 492 b 969 328 997 434 988 380 b 889 192 951 276 924 231 b 760 99 854 153 811 122 b 590 64 710 75 653 64 b 420 99 527 64 471 75 b 292 192 370 122 327 153 b 211 328 256 231 230 276 b 183 492 193 380 183 434 b 211 656 183 549 193 604 b 292 792 230 707 256 753 b 420 886 327 832 370 863 b 590 921 471 909 527 921 b 760 886 653 921 710 909 b 889 792 811 863 854 832 b 969 656 924 753 951 707 b 997 492 988 604 997 549 z m 365 1078 l 425 1078 b 447 1126 430 1095 437 1111 b 493 1147 456 1140 472 1147 b 539 1138 508 1147 523 1144 b 586 1115 555 1131 570 1124 b 636 1093 602 1107 619 1100 b 688 1083 654 1087 671 1083 b 740 1096 708 1083 725 1088 b 778 1128 755 1104 768 1115 b 802 1174 788 1142 796 1157 b 815 1228 808 1191 813 1209 l 756 1228 b 734 1180 751 1210 744 1194 b 688 1158 724 1166 709 1158 b 643 1169 674 1158 659 1162 b 594 1190 627 1176 611 1183 b 544 1213 578 1199 561 1206 b 493 1222 527 1219 510 1222 b 440 1210 472 1222 454 1218 b 403 1177 425 1201 413 1191 b 378 1131 393 1164 384 1148 b 365 1078 372 1113 368 1095 z "},"Ö":{"ha":1181,"x_min":0,"x_max":0,"o":"m 1103 492 b 1064 699 1103 567 1090 636 b 956 862 1038 762 1002 816 b 794 969 910 908 856 944 b 590 1008 731 995 663 1008 b 387 969 517 1008 449 995 b 224 862 324 944 270 908 b 117 699 178 816 143 762 b 78 492 91 636 78 567 b 117 285 78 417 91 348 b 224 122 143 222 178 167 b 387 14 270 76 324 40 b 590 -25 449 -12 517 -25 b 794 14 663 -25 731 -12 b 956 122 856 40 910 76 b 1064 285 1002 167 1038 222 b 1103 492 1090 348 1103 417 z m 997 492 b 969 328 997 434 988 380 b 889 192 951 276 924 231 b 760 99 854 153 811 122 b 590 64 710 75 653 64 b 420 99 527 64 471 75 b 292 192 370 122 327 153 b 211 328 256 231 230 276 b 183 492 193 380 183 434 b 211 656 183 549 193 604 b 292 792 230 707 256 753 b 420 886 327 832 370 863 b 590 921 471 909 527 921 b 760 886 653 921 710 909 b 889 792 811 863 854 832 b 969 656 924 753 951 707 b 997 492 988 604 997 549 z m 386 1176 b 406 1127 386 1158 393 1141 b 457 1106 419 1113 436 1106 b 508 1127 478 1106 495 1113 b 528 1176 521 1141 528 1158 b 508 1226 528 1195 521 1211 b 457 1247 495 1240 478 1247 b 406 1226 436 1247 419 1240 b 386 1176 393 1211 386 1195 z m 653 1176 b 672 1127 653 1158 659 1141 b 724 1106 685 1113 702 1106 b 775 1127 745 1106 762 1113 b 794 1176 788 1141 794 1158 b 775 1226 794 1195 788 1211 b 724 1247 762 1240 745 1247 b 672 1226 702 1247 685 1240 b 653 1176 659 1211 653 1195 z "},"×":{"ha":925,"x_min":0,"x_max":0,"o":"m 463 481 l 242 701 l 183 643 l 404 421 l 183 200 l 242 140 l 463 361 l 682 140 l 742 200 l 521 421 l 742 643 l 682 701 z "},"Ø":{"ha":1181,"x_min":0,"x_max":0,"o":"m 969 847 l 1075 961 l 1024 1008 l 918 896 b 769 979 874 932 824 960 b 590 1008 714 999 654 1008 b 387 969 517 1008 449 995 b 224 862 324 944 270 908 b 117 699 178 816 143 762 b 78 492 91 636 78 567 b 113 294 78 420 89 355 b 211 136 136 234 169 181 l 106 22 l 157 -25 l 263 88 b 411 5 306 52 356 25 b 590 -25 467 -15 526 -25 b 794 14 663 -25 731 -12 b 956 122 856 40 910 76 b 1064 285 1002 167 1038 222 b 1103 492 1090 348 1103 417 b 1068 689 1103 563 1091 629 b 969 847 1045 749 1012 802 z m 328 157 l 904 775 b 974 644 935 737 958 694 b 997 492 989 595 997 544 b 969 328 997 434 988 380 b 890 192 951 276 924 231 b 762 99 855 153 812 122 b 590 64 711 75 654 64 b 444 88 536 64 487 72 b 328 157 401 104 362 127 z m 856 826 l 279 208 b 208 338 248 245 224 288 b 183 492 191 387 183 438 b 211 656 183 549 193 604 b 291 792 230 707 256 753 b 419 886 326 832 368 863 b 590 921 469 909 526 921 b 740 896 645 921 695 913 b 856 826 784 879 823 856 z "},"Ù":{"ha":986,"x_min":0,"x_max":0,"o":"m 493 -25 b 674 13 566 -25 627 -12 b 788 110 722 39 760 71 b 845 237 815 149 834 191 b 861 367 856 283 861 326 l 861 983 l 761 983 l 761 378 b 747 262 761 338 756 299 b 702 162 738 224 723 191 b 619 91 681 133 654 109 b 493 64 585 73 543 64 b 367 91 443 64 401 73 b 284 162 332 109 305 133 b 239 262 263 191 248 224 b 225 378 230 299 225 338 l 225 983 l 125 983 l 125 367 b 141 237 125 326 130 283 b 199 110 152 191 171 149 b 311 13 226 71 264 39 b 493 -25 358 -12 419 -25 z m 311 1261 l 494 1061 l 576 1061 l 438 1261 z "},"Ú":{"ha":986,"x_min":0,"x_max":0,"o":"m 493 -25 b 674 13 566 -25 627 -12 b 788 110 722 39 760 71 b 845 237 815 149 834 191 b 861 367 856 283 861 326 l 861 983 l 761 983 l 761 378 b 747 262 761 338 756 299 b 702 162 738 224 723 191 b 619 91 681 133 654 109 b 493 64 585 73 543 64 b 367 91 443 64 401 73 b 284 162 332 109 305 133 b 239 262 263 191 248 224 b 225 378 230 299 225 338 l 225 983 l 125 983 l 125 367 b 141 237 125 326 130 283 b 199 110 152 191 171 149 b 311 13 226 71 264 39 b 493 -25 358 -12 419 -25 z m 507 1061 l 690 1261 l 564 1261 l 425 1061 z "},"Û":{"ha":986,"x_min":0,"x_max":0,"o":"m 493 -25 b 674 13 566 -25 627 -12 b 788 110 722 39 760 71 b 845 237 815 149 834 191 b 861 367 856 283 861 326 l 861 983 l 761 983 l 761 378 b 747 262 761 338 756 299 b 702 162 738 224 723 191 b 619 91 681 133 654 109 b 493 64 585 73 543 64 b 367 91 443 64 401 73 b 284 162 332 109 305 133 b 239 262 263 191 248 224 b 225 378 230 299 225 338 l 225 983 l 125 983 l 125 367 b 141 237 125 326 130 283 b 199 110 152 191 171 149 b 311 13 226 71 264 39 b 493 -25 358 -12 419 -25 z m 700 1061 l 549 1261 l 438 1261 l 286 1061 l 378 1061 l 493 1211 l 608 1061 z "},"Ü":{"ha":986,"x_min":0,"x_max":0,"o":"m 493 -25 b 674 13 566 -25 627 -12 b 788 110 722 39 760 71 b 845 237 815 149 834 191 b 861 367 856 283 861 326 l 861 983 l 761 983 l 761 378 b 747 262 761 338 756 299 b 702 162 738 224 723 191 b 619 91 681 133 654 109 b 493 64 585 73 543 64 b 367 91 443 64 401 73 b 284 162 332 109 305 133 b 239 262 263 191 248 224 b 225 378 230 299 225 338 l 225 983 l 125 983 l 125 367 b 141 237 125 326 130 283 b 199 110 152 191 171 149 b 311 13 226 71 264 39 b 493 -25 358 -12 419 -25 z m 290 1176 b 310 1127 290 1158 297 1141 b 361 1106 323 1113 340 1106 b 413 1127 382 1106 400 1113 b 432 1176 425 1141 432 1158 b 413 1226 432 1195 425 1211 b 361 1247 400 1240 382 1247 b 310 1226 340 1247 323 1240 b 290 1176 297 1211 290 1195 z m 557 1176 b 576 1127 557 1158 563 1141 b 628 1106 589 1113 606 1106 b 679 1127 649 1106 666 1113 b 699 1176 692 1141 699 1158 b 679 1226 699 1195 692 1211 b 628 1247 666 1240 649 1247 b 576 1226 606 1247 589 1240 b 557 1176 563 1211 557 1195 z "},"Ý":{"ha":836,"x_min":0,"x_max":0,"o":"m 468 0 l 468 424 l 836 983 l 719 983 l 421 507 l 125 983 l 0 983 l 368 424 l 368 0 z m 464 1061 l 647 1261 l 521 1261 l 382 1061 z "},"Þ":{"ha":806,"x_min":0,"x_max":0,"o":"m 131 983 l 131 0 l 231 0 l 231 242 l 406 242 b 542 258 456 242 501 247 b 648 308 584 269 619 286 b 716 390 677 329 700 357 b 740 506 732 422 740 461 b 717 622 740 550 732 589 b 649 703 701 654 678 682 b 544 752 620 725 585 741 b 408 768 504 763 458 768 l 231 768 l 231 983 z m 231 329 l 231 679 l 392 679 b 569 638 468 679 527 666 b 632 506 611 611 632 567 b 571 374 632 447 612 403 b 392 329 530 344 470 329 z "},"ß":{"ha":829,"x_min":0,"x_max":0,"o":"m 217 0 l 217 753 b 224 830 217 777 219 803 b 253 905 229 857 239 882 b 311 961 267 928 286 946 b 410 983 336 976 369 983 b 476 972 433 983 455 980 b 533 940 498 965 516 954 b 571 886 549 925 562 907 b 585 813 580 865 585 840 b 529 680 585 752 566 708 b 389 638 492 652 445 638 l 378 638 l 378 554 l 390 554 b 585 493 471 554 536 534 b 658 311 634 452 658 392 b 592 129 658 233 636 173 b 414 64 547 86 488 64 b 380 65 404 64 392 64 b 347 69 367 66 356 68 l 347 -10 b 385 -15 358 -12 371 -13 b 424 -17 400 -16 413 -17 b 561 6 475 -17 520 -9 b 666 72 602 22 637 44 b 733 176 695 101 718 135 b 757 310 749 216 757 261 b 740 419 757 350 751 386 b 691 507 728 453 712 482 b 616 567 670 532 645 552 b 519 597 587 583 555 593 l 519 600 b 681 821 627 639 681 713 b 658 925 681 860 673 894 b 599 1002 644 956 624 981 b 515 1050 575 1023 547 1039 b 414 1067 483 1061 449 1067 b 272 1038 356 1067 309 1057 b 182 965 234 1019 204 995 b 135 865 160 936 144 902 b 122 756 127 828 122 792 l 122 0 z "},"à":{"ha":742,"x_min":0,"x_max":0,"o":"m 535 419 l 535 399 b 363 392 475 399 418 397 b 217 365 308 388 259 379 b 115 299 174 350 140 328 b 76 181 89 270 76 231 b 98 89 76 144 84 114 b 152 28 112 64 130 44 b 224 -6 174 12 198 1 b 301 -17 251 -13 276 -17 b 437 12 354 -17 399 -7 b 538 106 474 31 508 62 l 540 106 b 543 51 540 88 541 70 b 550 0 545 33 547 16 l 635 0 b 626 68 631 19 628 41 b 624 146 625 95 624 121 l 624 431 b 604 535 624 470 617 505 b 550 608 591 564 573 589 b 469 652 527 628 500 642 b 371 667 439 662 406 667 b 222 640 315 667 266 658 b 115 574 178 623 142 600 l 168 511 b 253 567 191 534 219 553 b 361 588 286 581 322 588 b 490 546 418 588 461 574 b 535 419 520 518 535 476 z m 507 325 l 535 325 l 535 276 b 521 194 535 248 530 220 b 481 126 512 169 498 146 b 415 78 463 106 441 90 b 326 61 389 67 360 61 b 272 67 308 61 290 63 b 222 88 253 72 237 78 b 187 126 207 98 196 111 b 174 185 178 142 174 162 b 204 258 174 215 184 240 b 283 301 225 277 251 291 b 390 320 315 310 350 317 b 507 325 429 323 468 325 z m 200 983 l 383 783 l 465 783 l 326 983 z "},"á":{"ha":742,"x_min":0,"x_max":0,"o":"m 535 419 l 535 399 b 363 392 475 399 418 397 b 217 365 308 388 259 379 b 115 299 174 350 140 328 b 76 181 89 270 76 231 b 98 89 76 144 84 114 b 152 28 112 64 130 44 b 224 -6 174 12 198 1 b 301 -17 251 -13 276 -17 b 437 12 354 -17 399 -7 b 538 106 474 31 508 62 l 540 106 b 543 51 540 88 541 70 b 550 0 545 33 547 16 l 635 0 b 626 68 631 19 628 41 b 624 146 625 95 624 121 l 624 431 b 604 535 624 470 617 505 b 550 608 591 564 573 589 b 469 652 527 628 500 642 b 371 667 439 662 406 667 b 222 640 315 667 266 658 b 115 574 178 623 142 600 l 168 511 b 253 567 191 534 219 553 b 361 588 286 581 322 588 b 490 546 418 588 461 574 b 535 419 520 518 535 476 z m 507 325 l 535 325 l 535 276 b 521 194 535 248 530 220 b 481 126 512 169 498 146 b 415 78 463 106 441 90 b 326 61 389 67 360 61 b 272 67 308 61 290 63 b 222 88 253 72 237 78 b 187 126 207 98 196 111 b 174 185 178 142 174 162 b 204 258 174 215 184 240 b 283 301 225 277 251 291 b 390 320 315 310 350 317 b 507 325 429 323 468 325 z m 381 783 l 564 983 l 438 983 l 299 783 z "},"â":{"ha":742,"x_min":0,"x_max":0,"o":"m 535 419 l 535 399 b 363 392 475 399 418 397 b 217 365 308 388 259 379 b 115 299 174 350 140 328 b 76 181 89 270 76 231 b 98 89 76 144 84 114 b 152 28 112 64 130 44 b 224 -6 174 12 198 1 b 301 -17 251 -13 276 -17 b 437 12 354 -17 399 -7 b 538 106 474 31 508 62 l 540 106 b 543 51 540 88 541 70 b 550 0 545 33 547 16 l 635 0 b 626 68 631 19 628 41 b 624 146 625 95 624 121 l 624 431 b 604 535 624 470 617 505 b 550 608 591 564 573 589 b 469 652 527 628 500 642 b 371 667 439 662 406 667 b 222 640 315 667 266 658 b 115 574 178 623 142 600 l 168 511 b 253 567 191 534 219 553 b 361 588 286 581 322 588 b 490 546 418 588 461 574 b 535 419 520 518 535 476 z m 507 325 l 535 325 l 535 276 b 521 194 535 248 530 220 b 481 126 512 169 498 146 b 415 78 463 106 441 90 b 326 61 389 67 360 61 b 272 67 308 61 290 63 b 222 88 253 72 237 78 b 187 126 207 98 196 111 b 174 185 178 142 174 162 b 204 258 174 215 184 240 b 283 301 225 277 251 291 b 390 320 315 310 350 317 b 507 325 429 323 468 325 z m 581 783 l 429 983 l 318 983 l 167 783 l 258 783 l 374 933 l 489 783 z "},"ã":{"ha":742,"x_min":0,"x_max":0,"o":"m 535 419 l 535 399 b 363 392 475 399 418 397 b 217 365 308 388 259 379 b 115 299 174 350 140 328 b 76 181 89 270 76 231 b 98 89 76 144 84 114 b 152 28 112 64 130 44 b 224 -6 174 12 198 1 b 301 -17 251 -13 276 -17 b 437 12 354 -17 399 -7 b 538 106 474 31 508 62 l 540 106 b 543 51 540 88 541 70 b 550 0 545 33 547 16 l 635 0 b 626 68 631 19 628 41 b 624 146 625 95 624 121 l 624 431 b 604 535 624 470 617 505 b 550 608 591 564 573 589 b 469 652 527 628 500 642 b 371 667 439 662 406 667 b 222 640 315 667 266 658 b 115 574 178 623 142 600 l 168 511 b 253 567 191 534 219 553 b 361 588 286 581 322 588 b 490 546 418 588 461 574 b 535 419 520 518 535 476 z m 507 325 l 535 325 l 535 276 b 521 194 535 248 530 220 b 481 126 512 169 498 146 b 415 78 463 106 441 90 b 326 61 389 67 360 61 b 272 67 308 61 290 63 b 222 88 253 72 237 78 b 187 126 207 98 196 111 b 174 185 178 142 174 162 b 204 258 174 215 184 240 b 283 301 225 277 251 291 b 390 320 315 310 350 317 b 507 325 429 323 468 325 z m 143 800 l 203 800 b 224 848 207 818 215 834 b 271 869 234 862 250 869 b 317 860 286 869 301 866 b 364 838 332 853 348 846 b 414 815 380 829 396 822 b 465 806 431 809 449 806 b 518 818 486 806 503 810 b 556 851 533 826 545 837 b 580 897 566 864 574 879 b 593 950 586 914 590 931 l 533 950 b 512 902 529 932 522 916 b 465 881 502 888 487 881 b 421 891 451 881 437 884 b 372 913 405 898 389 905 b 322 935 356 921 339 928 b 271 944 304 941 288 944 b 217 932 250 944 232 940 b 181 899 203 924 191 913 b 156 853 170 886 162 870 b 143 800 150 835 146 818 z "},"ä":{"ha":742,"x_min":0,"x_max":0,"o":"m 535 419 l 535 399 b 363 392 475 399 418 397 b 217 365 308 388 259 379 b 115 299 174 350 140 328 b 76 181 89 270 76 231 b 98 89 76 144 84 114 b 152 28 112 64 130 44 b 224 -6 174 12 198 1 b 301 -17 251 -13 276 -17 b 437 12 354 -17 399 -7 b 538 106 474 31 508 62 l 540 106 b 543 51 540 88 541 70 b 550 0 545 33 547 16 l 635 0 b 626 68 631 19 628 41 b 624 146 625 95 624 121 l 624 431 b 604 535 624 470 617 505 b 550 608 591 564 573 589 b 469 652 527 628 500 642 b 371 667 439 662 406 667 b 222 640 315 667 266 658 b 115 574 178 623 142 600 l 168 511 b 253 567 191 534 219 553 b 361 588 286 581 322 588 b 490 546 418 588 461 574 b 535 419 520 518 535 476 z m 507 325 l 535 325 l 535 276 b 521 194 535 248 530 220 b 481 126 512 169 498 146 b 415 78 463 106 441 90 b 326 61 389 67 360 61 b 272 67 308 61 290 63 b 222 88 253 72 237 78 b 187 126 207 98 196 111 b 174 185 178 142 174 162 b 204 258 174 215 184 240 b 283 301 225 277 251 291 b 390 320 315 310 350 317 b 507 325 429 323 468 325 z m 165 899 b 185 849 165 880 172 864 b 236 828 198 835 215 828 b 288 849 257 828 275 835 b 307 899 300 864 307 880 b 288 948 307 917 300 934 b 236 969 275 962 257 969 b 185 948 215 969 198 962 b 165 899 172 934 165 917 z m 432 899 b 451 849 432 880 438 864 b 503 828 464 835 481 828 b 554 849 524 828 541 835 b 574 899 567 864 574 880 b 554 948 574 917 567 934 b 503 969 541 962 524 969 b 451 948 481 969 464 962 b 432 899 438 934 432 917 z "},"å":{"ha":742,"x_min":0,"x_max":0,"o":"m 535 419 l 535 399 b 363 392 475 399 418 397 b 217 365 308 388 259 379 b 115 299 174 350 140 328 b 76 181 89 270 76 231 b 98 89 76 144 84 114 b 152 28 112 64 130 44 b 224 -6 174 12 198 1 b 301 -17 251 -13 276 -17 b 437 12 354 -17 399 -7 b 538 106 474 31 508 62 l 540 106 b 543 51 540 88 541 70 b 550 0 545 33 547 16 l 635 0 b 626 68 631 19 628 41 b 624 146 625 95 624 121 l 624 431 b 604 535 624 470 617 505 b 550 608 591 564 573 589 b 469 652 527 628 500 642 b 371 667 439 662 406 667 b 222 640 315 667 266 658 b 115 574 178 623 142 600 l 168 511 b 253 567 191 534 219 553 b 361 588 286 581 322 588 b 490 546 418 588 461 574 b 535 419 520 518 535 476 z m 507 325 l 535 325 l 535 276 b 521 194 535 248 530 220 b 481 126 512 169 498 146 b 415 78 463 106 441 90 b 326 61 389 67 360 61 b 272 67 308 61 290 63 b 222 88 253 72 237 78 b 187 126 207 98 196 111 b 174 185 178 142 174 162 b 204 258 174 215 184 240 b 283 301 225 277 251 291 b 390 320 315 310 350 317 b 507 325 429 323 468 325 z m 501 903 b 491 955 501 921 498 939 b 462 997 484 971 474 985 b 419 1024 449 1008 435 1017 b 368 1035 403 1031 386 1035 b 317 1024 350 1035 332 1031 b 274 997 301 1017 287 1008 b 245 955 262 985 252 971 b 235 903 238 939 235 921 b 245 851 235 884 238 867 b 274 808 252 834 262 820 b 317 781 287 796 301 787 b 368 771 332 774 350 771 b 419 781 386 771 403 774 b 462 808 435 787 449 796 b 491 851 474 820 484 834 b 501 903 498 867 501 884 z m 451 903 b 427 844 451 880 443 860 b 368 821 411 829 391 821 b 309 844 345 821 325 829 b 285 903 293 860 285 880 b 309 961 285 926 293 945 b 368 985 325 977 345 985 b 427 961 391 985 411 977 b 451 903 443 945 451 926 z "},"æ":{"ha":1208,"x_min":0,"x_max":0,"o":"m 1131 344 b 1112 469 1131 389 1124 431 b 1056 572 1099 508 1081 542 b 963 641 1031 601 1000 624 b 835 667 925 658 883 667 b 692 630 783 667 735 654 b 589 531 649 605 615 572 b 509 631 573 574 547 608 b 375 667 472 655 427 667 b 220 640 319 667 268 658 b 107 572 172 622 135 599 l 161 511 b 251 567 186 534 216 553 b 361 588 285 581 322 588 b 487 534 418 588 459 570 b 528 396 514 498 528 452 l 528 375 b 363 369 472 375 417 373 b 219 344 309 366 261 357 b 117 283 177 330 143 310 b 78 174 91 256 78 220 b 99 85 78 138 85 109 b 153 26 113 61 131 41 b 228 -6 175 12 200 1 b 313 -17 257 -13 285 -17 b 396 -10 341 -17 369 -14 b 472 15 423 -5 448 3 b 535 61 495 26 516 42 b 583 135 554 81 570 105 b 683 24 605 88 638 50 b 842 -17 728 -3 781 -17 b 986 15 894 -17 942 -6 b 1108 121 1031 37 1071 72 l 1040 175 b 963 97 1023 145 997 119 b 842 63 929 74 889 63 b 753 81 810 63 781 69 b 682 132 726 94 702 111 b 634 208 662 153 646 178 b 615 300 622 237 616 268 l 1129 300 b 1131 321 1130 306 1131 313 z m 1035 375 l 619 375 b 639 455 620 403 627 429 b 686 523 651 480 667 503 b 753 570 706 543 728 559 b 835 588 779 582 806 588 b 982 528 898 588 947 568 b 1035 375 1017 488 1035 437 z m 500 300 l 528 300 l 528 253 b 478 113 528 194 511 148 b 329 60 446 77 396 60 b 271 65 309 60 289 62 b 222 84 252 69 236 75 b 188 119 207 93 196 105 b 175 175 179 134 175 153 b 202 243 175 204 184 226 b 274 281 220 260 244 272 b 378 297 304 289 339 294 b 500 300 418 299 458 300 z "},"ç":{"ha":694,"x_min":0,"x_max":0,"o":"m 593 501 l 667 554 b 558 638 639 591 603 619 b 425 667 513 657 469 667 b 282 641 372 667 325 658 b 173 569 239 624 203 600 b 103 461 143 539 119 503 b 78 325 86 419 78 374 b 99 199 78 280 85 238 b 158 96 113 160 132 125 b 252 23 184 66 216 42 b 375 -14 289 4 330 -8 l 299 -136 l 324 -157 b 383 -146 343 -150 363 -146 b 438 -159 406 -146 425 -150 b 458 -200 452 -168 458 -181 b 449 -228 458 -211 455 -221 b 425 -248 442 -236 434 -243 b 396 -258 416 -253 406 -256 b 369 -261 386 -260 377 -261 b 318 -257 352 -261 335 -260 b 269 -242 301 -254 285 -249 l 247 -292 b 313 -312 267 -301 289 -308 b 378 -319 338 -317 359 -319 b 435 -314 396 -319 415 -318 b 488 -294 454 -310 472 -304 b 526 -257 503 -285 516 -273 b 542 -199 537 -241 542 -222 b 506 -124 542 -165 530 -140 b 428 -99 481 -107 456 -99 b 379 -104 407 -99 391 -100 l 433 -17 b 574 16 488 -15 535 -4 b 672 96 613 36 645 63 l 601 149 b 531 88 583 124 559 103 b 425 64 502 72 467 64 b 322 84 387 64 353 71 b 244 140 292 97 266 116 b 195 222 223 163 207 191 b 178 325 184 254 178 288 b 195 428 178 362 184 397 b 245 512 207 460 223 488 b 324 567 267 535 293 554 b 426 588 354 581 388 588 b 524 563 462 588 494 579 b 593 501 554 547 577 526 z "},"è":{"ha":794,"x_min":0,"x_max":0,"o":"m 621 375 l 178 375 b 199 455 180 403 187 429 b 247 523 211 480 227 503 b 318 570 268 543 291 559 b 406 588 345 582 374 588 b 562 527 473 588 525 567 b 621 375 598 487 618 436 z m 717 344 b 697 469 717 389 710 431 b 638 572 683 508 663 542 b 540 641 612 601 579 624 b 406 667 501 658 456 667 b 276 641 359 667 316 658 b 172 569 237 624 202 600 b 103 461 143 539 119 503 b 78 325 86 419 78 374 b 103 189 78 276 86 231 b 174 81 121 147 144 111 b 280 9 203 50 239 26 b 414 -17 321 -8 366 -17 b 565 15 468 -17 518 -6 b 693 121 611 37 654 72 l 622 176 b 541 98 604 147 577 121 b 414 64 505 75 463 64 b 321 83 381 64 350 70 b 246 133 292 95 267 112 b 196 208 225 155 208 180 b 176 300 184 237 177 268 l 715 300 b 717 324 716 308 717 316 z m 208 983 l 392 783 l 474 783 l 335 983 z "},"é":{"ha":794,"x_min":0,"x_max":0,"o":"m 621 375 l 178 375 b 199 455 180 403 187 429 b 247 523 211 480 227 503 b 318 570 268 543 291 559 b 406 588 345 582 374 588 b 562 527 473 588 525 567 b 621 375 598 487 618 436 z m 717 344 b 697 469 717 389 710 431 b 638 572 683 508 663 542 b 540 641 612 601 579 624 b 406 667 501 658 456 667 b 276 641 359 667 316 658 b 172 569 237 624 202 600 b 103 461 143 539 119 503 b 78 325 86 419 78 374 b 103 189 78 276 86 231 b 174 81 121 147 144 111 b 280 9 203 50 239 26 b 414 -17 321 -8 366 -17 b 565 15 468 -17 518 -6 b 693 121 611 37 654 72 l 622 176 b 541 98 604 147 577 121 b 414 64 505 75 463 64 b 321 83 381 64 350 70 b 246 133 292 95 267 112 b 196 208 225 155 208 180 b 176 300 184 237 177 268 l 715 300 b 717 324 716 308 717 316 z m 431 783 l 614 983 l 488 983 l 349 783 z "},"ê":{"ha":794,"x_min":0,"x_max":0,"o":"m 621 375 l 178 375 b 199 455 180 403 187 429 b 247 523 211 480 227 503 b 318 570 268 543 291 559 b 406 588 345 582 374 588 b 562 527 473 588 525 567 b 621 375 598 487 618 436 z m 717 344 b 697 469 717 389 710 431 b 638 572 683 508 663 542 b 540 641 612 601 579 624 b 406 667 501 658 456 667 b 276 641 359 667 316 658 b 172 569 237 624 202 600 b 103 461 143 539 119 503 b 78 325 86 419 78 374 b 103 189 78 276 86 231 b 174 81 121 147 144 111 b 280 9 203 50 239 26 b 414 -17 321 -8 366 -17 b 565 15 468 -17 518 -6 b 693 121 611 37 654 72 l 622 176 b 541 98 604 147 577 121 b 414 64 505 75 463 64 b 321 83 381 64 350 70 b 246 133 292 95 267 112 b 196 208 225 155 208 180 b 176 300 184 237 177 268 l 715 300 b 717 324 716 308 717 316 z m 622 783 l 471 983 l 360 983 l 208 783 l 300 783 l 415 933 l 531 783 z "},"ë":{"ha":794,"x_min":0,"x_max":0,"o":"m 621 375 l 178 375 b 199 455 180 403 187 429 b 247 523 211 480 227 503 b 318 570 268 543 291 559 b 406 588 345 582 374 588 b 562 527 473 588 525 567 b 621 375 598 487 618 436 z m 717 344 b 697 469 717 389 710 431 b 638 572 683 508 663 542 b 540 641 612 601 579 624 b 406 667 501 658 456 667 b 276 641 359 667 316 658 b 172 569 237 624 202 600 b 103 461 143 539 119 503 b 78 325 86 419 78 374 b 103 189 78 276 86 231 b 174 81 121 147 144 111 b 280 9 203 50 239 26 b 414 -17 321 -8 366 -17 b 565 15 468 -17 518 -6 b 693 121 611 37 654 72 l 622 176 b 541 98 604 147 577 121 b 414 64 505 75 463 64 b 321 83 381 64 350 70 b 246 133 292 95 267 112 b 196 208 225 155 208 180 b 176 300 184 237 177 268 l 715 300 b 717 324 716 308 717 316 z m 211 899 b 231 849 211 880 218 864 b 282 828 244 835 261 828 b 333 849 303 828 320 835 b 353 899 346 864 353 880 b 333 948 353 917 346 934 b 282 969 320 962 303 969 b 231 948 261 969 244 962 b 211 899 218 934 211 917 z m 478 899 b 497 849 478 880 484 864 b 549 828 510 835 527 828 b 600 849 570 828 587 835 b 619 899 613 864 619 880 b 600 948 619 917 613 934 b 549 969 587 962 570 969 b 497 948 527 969 510 962 b 478 899 484 934 478 917 z "},"ì":{"ha":347,"x_min":0,"x_max":0,"o":"m 221 0 l 221 650 l 126 650 l 126 0 z m -46 983 l 138 783 l 219 783 l 81 983 z "},"í":{"ha":347,"x_min":0,"x_max":0,"o":"m 221 0 l 221 650 l 126 650 l 126 0 z m 208 783 l 392 983 l 265 983 l 126 783 z "},"î":{"ha":347,"x_min":0,"x_max":0,"o":"m 221 0 l 221 650 l 126 650 l 126 0 z m 383 783 l 232 983 l 121 983 l -31 783 l 61 783 l 176 933 l 292 783 z "},"ï":{"ha":347,"x_min":0,"x_max":0,"o":"m 221 0 l 221 650 l 126 650 l 126 0 z m -29 899 b -10 849 -29 880 -23 864 b 42 828 3 835 20 828 b 93 849 63 828 80 835 b 113 899 106 864 113 880 b 93 948 113 917 106 934 b 42 969 80 962 63 969 b -10 948 20 969 3 962 b -29 899 -23 934 -29 917 z m 238 899 b 257 849 238 880 244 864 b 308 828 270 835 287 828 b 360 849 330 828 347 835 b 379 899 373 864 379 880 b 360 948 379 917 373 934 b 308 969 347 962 330 969 b 257 948 287 969 270 962 b 238 899 244 934 238 917 z "},"ð":{"ha":849,"x_min":0,"x_max":0,"o":"m 167 325 b 184 426 167 361 172 395 b 233 508 196 458 212 485 b 309 563 253 531 279 550 b 411 583 339 577 373 583 b 513 563 449 583 483 577 b 590 508 543 550 569 531 b 640 426 612 485 628 458 b 657 325 651 395 657 361 b 640 224 657 289 651 255 b 590 142 628 192 612 165 b 513 87 569 119 543 100 b 411 67 483 73 449 67 b 309 87 373 67 339 73 b 233 142 279 100 253 119 b 184 224 212 165 196 192 b 167 325 172 255 167 289 z m 489 917 l 632 992 l 576 1040 l 435 967 b 367 1024 413 986 391 1005 b 296 1081 344 1043 320 1062 l 214 1029 b 281 982 234 1015 257 1000 b 353 922 306 964 330 944 l 200 844 l 250 794 l 406 874 b 528 742 450 836 491 792 b 622 589 566 693 597 642 l 619 586 b 521 647 586 614 553 634 b 411 667 488 660 452 667 b 273 641 361 667 315 658 b 164 569 231 624 194 600 b 92 461 133 539 109 503 b 67 325 75 419 67 374 b 92 189 67 276 75 231 b 164 81 109 147 133 111 b 273 9 194 50 231 26 b 411 -17 315 -8 361 -17 b 573 17 475 -17 529 -5 b 680 104 617 40 653 69 b 739 222 707 139 727 179 b 757 350 751 266 757 308 b 736 511 757 405 750 458 b 679 663 722 564 703 615 b 594 800 655 712 627 757 b 489 917 562 843 527 881 z "},"ñ":{"ha":807,"x_min":0,"x_max":0,"o":"m 210 650 l 119 650 b 124 575 121 628 123 603 b 125 507 125 547 125 525 l 125 0 l 219 0 l 219 333 b 236 447 219 377 225 415 b 281 526 247 478 262 505 b 344 572 299 547 320 562 b 417 588 367 582 392 588 b 502 571 451 588 479 582 b 556 524 525 560 543 544 b 585 453 570 504 579 481 b 593 360 590 425 593 394 l 593 0 l 688 0 l 688 399 b 626 593 688 479 667 544 b 440 667 584 642 523 667 b 308 631 394 667 350 655 b 218 539 267 608 237 577 l 215 539 b 214 592 215 553 215 570 b 210 650 213 613 212 632 z m 182 800 l 242 800 b 263 848 246 818 253 834 b 310 869 273 862 288 869 b 356 860 325 869 340 866 b 403 838 371 853 387 846 b 453 815 419 829 435 822 b 504 806 470 809 488 806 b 557 818 525 806 542 810 b 594 851 572 826 584 837 b 619 897 605 864 613 879 b 632 950 625 914 629 931 l 572 950 b 551 902 568 932 560 916 b 504 881 541 888 525 881 b 460 891 490 881 475 884 b 411 913 444 898 428 905 b 360 935 394 921 378 928 b 310 944 343 941 326 944 b 256 932 288 944 271 940 b 219 899 242 924 230 913 b 195 853 209 886 201 870 b 182 800 189 835 185 818 z "},"ò":{"ha":849,"x_min":0,"x_max":0,"o":"m 771 325 b 745 461 771 374 762 419 b 674 569 728 503 704 539 b 564 641 643 600 606 624 b 424 667 521 658 475 667 b 285 641 374 667 327 658 b 175 569 242 624 206 600 b 103 461 144 539 121 503 b 78 325 86 419 78 374 b 103 189 78 276 86 231 b 175 81 121 147 144 111 b 285 9 206 50 242 26 b 424 -17 327 -8 374 -17 b 564 9 475 -17 521 -8 b 674 81 606 26 643 50 b 745 189 704 111 728 147 b 771 325 762 231 771 276 z m 671 325 b 653 223 671 289 665 255 b 604 140 642 191 625 163 b 526 84 583 116 557 97 b 424 64 496 71 462 64 b 322 84 386 64 352 71 b 244 140 291 97 266 116 b 195 223 223 163 207 191 b 178 325 184 255 178 289 b 195 427 178 361 184 395 b 244 510 207 459 223 487 b 322 567 266 534 291 553 b 424 588 352 581 386 588 b 526 567 462 588 496 581 b 604 510 557 553 583 534 b 653 427 625 487 642 459 b 671 325 665 395 671 361 z m 213 983 l 396 783 l 478 783 l 339 983 z "},"ó":{"ha":849,"x_min":0,"x_max":0,"o":"m 771 325 b 745 461 771 374 762 419 b 674 569 728 503 704 539 b 564 641 643 600 606 624 b 424 667 521 658 475 667 b 285 641 374 667 327 658 b 175 569 242 624 206 600 b 103 461 144 539 121 503 b 78 325 86 419 78 374 b 103 189 78 276 86 231 b 175 81 121 147 144 111 b 285 9 206 50 242 26 b 424 -17 327 -8 374 -17 b 564 9 475 -17 521 -8 b 674 81 606 26 643 50 b 745 189 704 111 728 147 b 771 325 762 231 771 276 z m 671 325 b 653 223 671 289 665 255 b 604 140 642 191 625 163 b 526 84 583 116 557 97 b 424 64 496 71 462 64 b 322 84 386 64 352 71 b 244 140 291 97 266 116 b 195 223 223 163 207 191 b 178 325 184 255 178 289 b 195 427 178 361 184 395 b 244 510 207 459 223 487 b 322 567 266 534 291 553 b 424 588 352 581 386 588 b 526 567 462 588 496 581 b 604 510 557 553 583 534 b 653 427 625 487 642 459 b 671 325 665 395 671 361 z m 449 783 l 632 983 l 506 983 l 367 783 z "},"ô":{"ha":849,"x_min":0,"x_max":0,"o":"m 771 325 b 745 461 771 374 762 419 b 674 569 728 503 704 539 b 564 641 643 600 606 624 b 424 667 521 658 475 667 b 285 641 374 667 327 658 b 175 569 242 624 206 600 b 103 461 144 539 121 503 b 78 325 86 419 78 374 b 103 189 78 276 86 231 b 175 81 121 147 144 111 b 285 9 206 50 242 26 b 424 -17 327 -8 374 -17 b 564 9 475 -17 521 -8 b 674 81 606 26 643 50 b 745 189 704 111 728 147 b 771 325 762 231 771 276 z m 671 325 b 653 223 671 289 665 255 b 604 140 642 191 625 163 b 526 84 583 116 557 97 b 424 64 496 71 462 64 b 322 84 386 64 352 71 b 244 140 291 97 266 116 b 195 223 223 163 207 191 b 178 325 184 255 178 289 b 195 427 178 361 184 395 b 244 510 207 459 223 487 b 322 567 266 534 291 553 b 424 588 352 581 386 588 b 526 567 462 588 496 581 b 604 510 557 553 583 534 b 653 427 625 487 642 459 b 671 325 665 395 671 361 z m 631 783 l 479 983 l 368 983 l 217 783 l 308 783 l 424 933 l 539 783 z "},"õ":{"ha":849,"x_min":0,"x_max":0,"o":"m 771 325 b 745 461 771 374 762 419 b 674 569 728 503 704 539 b 564 641 643 600 606 624 b 424 667 521 658 475 667 b 285 641 374 667 327 658 b 175 569 242 624 206 600 b 103 461 144 539 121 503 b 78 325 86 419 78 374 b 103 189 78 276 86 231 b 175 81 121 147 144 111 b 285 9 206 50 242 26 b 424 -17 327 -8 374 -17 b 564 9 475 -17 521 -8 b 674 81 606 26 643 50 b 745 189 704 111 728 147 b 771 325 762 231 771 276 z m 671 325 b 653 223 671 289 665 255 b 604 140 642 191 625 163 b 526 84 583 116 557 97 b 424 64 496 71 462 64 b 322 84 386 64 352 71 b 244 140 291 97 266 116 b 195 223 223 163 207 191 b 178 325 184 255 178 289 b 195 427 178 361 184 395 b 244 510 207 459 223 487 b 322 567 266 534 291 553 b 424 588 352 581 386 588 b 526 567 462 588 496 581 b 604 510 557 553 583 534 b 653 427 625 487 642 459 b 671 325 665 395 671 361 z m 199 800 l 258 800 b 280 848 263 818 270 834 b 326 869 290 862 305 869 b 372 860 341 869 356 866 b 419 838 388 853 404 846 b 469 815 435 829 452 822 b 521 806 487 809 504 806 b 574 818 541 806 559 810 b 611 851 588 826 601 837 b 635 897 621 864 629 879 b 649 950 641 914 646 931 l 589 950 b 567 902 584 932 577 916 b 521 881 558 888 542 881 b 476 891 507 881 492 884 b 428 913 461 898 444 905 b 377 935 411 921 394 928 b 326 944 360 941 343 944 b 273 932 305 944 287 940 b 236 899 259 924 246 913 b 212 853 226 886 218 870 b 199 800 206 835 201 818 z "},"ö":{"ha":849,"x_min":0,"x_max":0,"o":"m 771 325 b 745 461 771 374 762 419 b 674 569 728 503 704 539 b 564 641 643 600 606 624 b 424 667 521 658 475 667 b 285 641 374 667 327 658 b 175 569 242 624 206 600 b 103 461 144 539 121 503 b 78 325 86 419 78 374 b 103 189 78 276 86 231 b 175 81 121 147 144 111 b 285 9 206 50 242 26 b 424 -17 327 -8 374 -17 b 564 9 475 -17 521 -8 b 674 81 606 26 643 50 b 745 189 704 111 728 147 b 771 325 762 231 771 276 z m 671 325 b 653 223 671 289 665 255 b 604 140 642 191 625 163 b 526 84 583 116 557 97 b 424 64 496 71 462 64 b 322 84 386 64 352 71 b 244 140 291 97 266 116 b 195 223 223 163 207 191 b 178 325 184 255 178 289 b 195 427 178 361 184 395 b 244 510 207 459 223 487 b 322 567 266 534 291 553 b 424 588 352 581 386 588 b 526 567 462 588 496 581 b 604 510 557 553 583 534 b 653 427 625 487 642 459 b 671 325 665 395 671 361 z m 219 899 b 239 849 219 880 226 864 b 290 828 252 835 269 828 b 342 849 312 828 329 835 b 361 899 355 864 361 880 b 342 948 361 917 355 934 b 290 969 329 962 312 969 b 239 948 269 969 252 962 b 219 899 226 934 219 917 z m 486 899 b 506 849 486 880 493 864 b 557 828 519 835 536 828 b 608 849 578 828 595 835 b 628 899 621 864 628 880 b 608 948 628 917 621 934 b 557 969 595 962 578 969 b 506 948 536 969 519 962 b 486 899 493 934 486 917 z "},"÷":{"ha":925,"x_min":0,"x_max":0,"o":"m 817 379 l 817 463 l 108 463 l 108 379 z m 538 646 b 517 698 538 665 531 683 b 463 721 503 713 485 721 b 408 698 440 721 422 713 b 388 646 394 683 388 665 b 408 594 388 626 394 609 b 463 571 422 578 440 571 b 517 594 485 571 503 578 b 538 646 531 609 538 626 z m 538 196 b 517 248 538 215 531 233 b 463 271 503 263 485 271 b 408 248 440 271 422 263 b 388 196 394 233 388 215 b 408 144 388 176 394 159 b 463 121 422 128 440 121 b 517 144 485 121 503 128 b 538 196 531 159 538 176 z "},"ø":{"ha":849,"x_min":0,"x_max":0,"o":"m 261 114 l 625 488 b 663 413 642 467 654 442 b 675 325 671 384 675 355 b 657 221 675 288 669 253 b 606 137 645 188 628 160 b 526 81 583 113 557 94 b 421 60 495 67 460 60 b 333 74 388 60 359 65 b 261 114 306 84 282 97 z m 585 535 l 221 161 b 185 235 205 181 193 206 b 174 325 178 263 174 294 b 191 428 174 362 179 397 b 241 513 203 460 219 488 b 319 569 263 537 289 556 b 424 590 350 583 385 590 b 515 576 456 590 486 586 b 585 535 543 567 566 553 z m 688 551 l 779 646 l 735 689 l 643 594 b 543 648 613 618 580 635 b 422 667 506 660 466 667 b 284 641 372 667 326 658 b 175 569 242 624 206 600 b 103 461 144 539 121 503 b 78 325 86 419 78 374 b 99 201 78 281 85 239 b 158 99 113 162 132 128 l 67 4 l 111 -39 l 204 56 b 301 3 232 33 264 16 b 422 -17 337 -10 378 -17 b 563 9 473 -17 520 -8 b 673 81 605 26 642 50 b 745 189 704 111 728 147 b 771 325 762 231 771 276 b 748 451 771 370 763 412 b 688 551 733 489 713 523 z "},"ù":{"ha":807,"x_min":0,"x_max":0,"o":"m 597 0 l 688 0 b 683 75 686 22 684 47 b 682 143 682 103 682 125 l 682 650 l 588 650 l 588 317 b 571 203 588 273 582 235 b 526 124 560 172 545 145 b 463 78 508 103 487 88 b 390 63 440 68 415 63 b 305 79 356 63 328 68 b 251 126 282 90 264 106 b 222 197 237 146 228 169 b 214 290 217 225 214 256 l 214 650 l 119 650 l 119 251 b 181 57 119 171 140 106 b 367 -17 222 8 284 -17 b 499 19 413 -17 457 -5 b 589 111 540 42 570 73 l 592 111 b 593 58 592 97 592 80 b 597 0 594 37 595 18 z m 201 983 l 385 783 l 467 783 l 328 983 z "},"ú":{"ha":807,"x_min":0,"x_max":0,"o":"m 597 0 l 688 0 b 683 75 686 22 684 47 b 682 143 682 103 682 125 l 682 650 l 588 650 l 588 317 b 571 203 588 273 582 235 b 526 124 560 172 545 145 b 463 78 508 103 487 88 b 390 63 440 68 415 63 b 305 79 356 63 328 68 b 251 126 282 90 264 106 b 222 197 237 146 228 169 b 214 290 217 225 214 256 l 214 650 l 119 650 l 119 251 b 181 57 119 171 140 106 b 367 -17 222 8 284 -17 b 499 19 413 -17 457 -5 b 589 111 540 42 570 73 l 592 111 b 593 58 592 97 592 80 b 597 0 594 37 595 18 z m 417 783 l 600 983 l 474 983 l 335 783 z "},"û":{"ha":807,"x_min":0,"x_max":0,"o":"m 597 0 l 688 0 b 683 75 686 22 684 47 b 682 143 682 103 682 125 l 682 650 l 588 650 l 588 317 b 571 203 588 273 582 235 b 526 124 560 172 545 145 b 463 78 508 103 487 88 b 390 63 440 68 415 63 b 305 79 356 63 328 68 b 251 126 282 90 264 106 b 222 197 237 146 228 169 b 214 290 217 225 214 256 l 214 650 l 119 650 l 119 251 b 181 57 119 171 140 106 b 367 -17 222 8 284 -17 b 499 19 413 -17 457 -5 b 589 111 540 42 570 73 l 592 111 b 593 58 592 97 592 80 b 597 0 594 37 595 18 z m 608 783 l 457 983 l 346 983 l 194 783 l 286 783 l 401 933 l 517 783 z "},"ü":{"ha":807,"x_min":0,"x_max":0,"o":"m 597 0 l 688 0 b 683 75 686 22 684 47 b 682 143 682 103 682 125 l 682 650 l 588 650 l 588 317 b 571 203 588 273 582 235 b 526 124 560 172 545 145 b 463 78 508 103 487 88 b 390 63 440 68 415 63 b 305 79 356 63 328 68 b 251 126 282 90 264 106 b 222 197 237 146 228 169 b 214 290 217 225 214 256 l 214 650 l 119 650 l 119 251 b 181 57 119 171 140 106 b 367 -17 222 8 284 -17 b 499 19 413 -17 457 -5 b 589 111 540 42 570 73 l 592 111 b 593 58 592 97 592 80 b 597 0 594 37 595 18 z m 197 899 b 217 849 197 880 204 864 b 268 828 230 835 247 828 b 319 849 289 828 306 835 b 339 899 332 864 339 880 b 319 948 339 917 332 934 b 268 969 306 962 289 969 b 217 948 247 969 230 962 b 197 899 204 934 197 917 z m 464 899 b 483 849 464 880 470 864 b 535 828 496 835 513 828 b 586 849 556 828 573 835 b 606 899 599 864 606 880 b 586 948 606 917 599 934 b 535 969 573 962 556 969 b 483 948 513 969 496 962 b 464 899 470 934 464 917 z "},"ý":{"ha":678,"x_min":0,"x_max":0,"o":"m 349 101 l 128 650 l 22 650 l 300 1 l 247 -135 b 199 -220 233 -172 217 -200 b 122 -250 180 -240 155 -250 b 53 -239 98 -250 75 -246 l 43 -325 b 128 -333 71 -331 99 -333 b 258 -288 184 -333 228 -318 b 332 -168 288 -258 313 -218 l 656 650 l 553 650 l 351 101 z m 371 783 l 554 983 l 428 983 l 289 783 z "},"þ":{"ha":879,"x_min":0,"x_max":0,"o":"m 464 -17 b 598 9 512 -17 557 -8 b 705 81 639 26 675 50 b 776 189 735 111 759 147 b 801 325 793 231 801 276 b 776 461 801 374 793 419 b 705 569 759 503 735 539 b 598 641 675 600 639 624 b 464 667 557 658 512 667 b 328 634 417 667 372 656 b 222 538 285 612 250 580 l 219 538 l 219 1050 l 128 1050 l 128 -333 l 219 -333 l 219 110 l 222 110 b 327 15 249 67 284 35 b 464 -17 370 -6 416 -17 z m 701 325 b 684 224 701 289 696 255 b 635 142 672 192 656 165 b 558 87 613 119 588 100 b 456 67 528 73 494 67 b 353 87 418 67 384 73 b 277 142 323 100 298 119 b 228 224 256 165 240 192 b 211 325 217 255 211 289 b 228 426 211 361 217 395 b 277 508 240 458 256 485 b 353 563 298 531 323 550 b 456 583 384 577 418 583 b 558 563 494 583 528 577 b 635 508 588 550 613 531 b 684 426 656 485 672 458 b 701 325 696 395 701 361 z "},"ÿ":{"ha":678,"x_min":0,"x_max":0,"o":"m 349 101 l 128 650 l 22 650 l 300 1 l 247 -135 b 199 -220 233 -172 217 -200 b 122 -250 180 -240 155 -250 b 53 -239 98 -250 75 -246 l 43 -325 b 128 -333 71 -331 99 -333 b 258 -288 184 -333 228 -318 b 332 -168 288 -258 313 -218 l 656 650 l 553 650 l 351 101 z m 146 899 b 165 849 146 880 152 864 b 217 828 178 835 195 828 b 268 849 238 828 255 835 b 288 899 281 864 288 880 b 268 948 288 917 281 934 b 217 969 255 962 238 969 b 165 948 195 969 178 962 b 146 899 152 934 146 917 z m 413 899 b 432 849 413 880 419 864 b 483 828 445 835 462 828 b 535 849 505 828 522 835 b 554 899 548 864 554 880 b 535 948 554 917 548 934 b 483 969 522 962 505 969 b 432 948 462 969 445 962 b 413 899 419 934 413 917 z "},"¤":{"ha":806,"x_min":0,"x_max":0,"o":"m 667 599 l 782 714 l 726 768 l 610 651 b 518 703 583 674 552 691 b 406 721 484 715 446 721 b 292 702 364 721 326 715 b 199 651 257 690 226 673 l 81 768 l 25 714 l 143 596 b 97 506 123 569 107 539 b 81 396 86 472 81 436 b 147 190 81 312 103 243 l 25 67 l 81 11 l 204 135 b 406 67 263 89 330 67 b 515 84 444 67 481 72 b 606 132 548 96 579 112 l 728 11 l 782 67 l 663 186 b 714 280 685 213 702 244 b 732 396 726 316 732 354 b 715 508 732 438 726 475 b 667 599 704 542 688 572 z m 406 635 b 501 616 441 635 473 628 b 574 565 530 603 554 586 b 621 488 594 543 610 517 b 638 396 632 459 638 428 b 621 302 638 363 632 331 b 574 225 610 273 594 247 b 501 173 554 203 530 185 b 406 154 473 160 441 154 b 310 173 370 154 338 160 b 236 225 281 185 256 203 b 190 302 216 247 200 273 b 174 396 179 331 174 363 b 190 488 174 428 179 459 b 236 565 200 517 216 543 b 310 616 256 586 281 603 b 406 635 338 628 370 635 z "},"¦":{"ha":308,"x_min":0,"x_max":0,"o":"m 196 938 l 113 938 l 113 451 l 196 451 z m 196 243 l 113 243 l 113 -243 l 196 -243 z "},"¨":{"ha":333,"x_min":0,"x_max":0,"o":"m -37 899 b -18 849 -37 880 -31 864 b 33 828 -5 835 12 828 b 85 849 55 828 72 835 b 104 899 98 864 104 880 b 85 948 104 917 98 934 b 33 969 72 962 55 969 b -18 948 12 969 -5 962 b -37 899 -31 934 -37 917 z m 229 899 b 249 849 229 880 236 864 b 300 828 262 835 279 828 b 351 849 321 828 338 835 b 371 899 364 864 371 880 b 351 948 371 917 364 934 b 300 969 338 962 321 969 b 249 948 279 969 262 962 b 229 899 236 934 229 917 z "},"´":{"ha":333,"x_min":0,"x_max":0,"o":"m 164 783 l 347 983 l 221 983 l 82 783 z "},"¸":{"ha":333,"x_min":0,"x_max":0,"o":"m 151 -104 l 217 0 l 157 0 l 71 -136 l 96 -157 b 156 -146 115 -150 135 -146 b 210 -159 179 -146 197 -150 b 231 -200 224 -168 231 -181 b 221 -228 231 -211 227 -221 b 197 -248 214 -236 206 -243 b 168 -258 188 -253 178 -256 b 142 -261 158 -260 149 -261 b 90 -257 124 -261 107 -260 b 42 -242 74 -254 57 -249 l 19 -292 b 85 -312 39 -301 61 -308 b 150 -319 110 -317 131 -319 b 207 -314 169 -319 188 -318 b 260 -294 226 -310 244 -304 b 299 -257 275 -285 288 -273 b 314 -199 309 -241 314 -222 b 278 -124 314 -165 302 -140 b 200 -99 254 -107 228 -99 b 151 -104 180 -99 163 -100 z "},"¼":{"ha":1167,"x_min":0,"x_max":0,"o":"m 1004 211 l 1004 586 l 910 586 l 667 208 l 667 136 l 928 136 l 928 0 l 1004 0 l 1004 136 l 1088 136 l 1088 211 z m 924 472 l 928 472 l 928 211 l 754 211 z m 322 397 l 322 983 l 251 983 l 96 856 l 149 799 l 238 878 l 238 397 z m 301 -43 l 926 989 l 856 1026 l 229 -6 z "},"½":{"ha":1167,"x_min":0,"x_max":0,"o":"m 1092 0 l 1092 75 l 813 75 l 990 253 b 1026 290 1002 265 1014 277 b 1057 330 1037 302 1048 316 b 1080 377 1066 344 1074 360 b 1089 433 1086 394 1089 413 b 1074 504 1089 460 1084 484 b 1035 555 1065 525 1051 541 b 976 585 1018 568 999 578 b 907 596 954 592 931 596 b 785 551 860 596 819 581 b 719 435 750 521 729 482 l 803 422 b 840 493 809 452 822 475 b 907 519 859 511 881 519 b 974 497 934 519 956 512 b 1000 433 991 481 1000 460 b 981 366 1000 407 994 385 b 940 314 969 347 955 330 l 708 79 l 708 0 z m 301 -43 l 926 989 l 856 1026 l 229 -6 z m 322 397 l 322 983 l 251 983 l 96 856 l 149 799 l 238 878 l 238 397 z "},"¾":{"ha":1167,"x_min":0,"x_max":0,"o":"m 1004 211 l 1004 586 l 910 586 l 667 208 l 667 136 l 928 136 l 928 0 l 1004 0 l 1004 136 l 1088 136 l 1088 211 z m 924 472 l 928 472 l 928 211 l 754 211 z m 190 743 l 190 672 l 228 672 b 276 667 244 672 261 670 b 319 649 292 663 306 657 b 349 618 331 641 341 631 b 361 571 357 605 361 589 b 327 494 361 537 350 511 b 250 469 304 478 279 469 b 178 492 223 469 199 477 b 133 554 158 506 143 527 l 54 528 b 133 426 73 481 99 448 b 250 394 166 405 206 394 b 324 406 276 394 301 398 b 386 439 348 413 369 424 b 428 494 404 454 418 472 b 444 571 439 517 444 542 b 419 660 444 606 436 636 b 349 713 402 684 378 701 b 406 765 373 725 392 743 b 428 842 421 786 428 812 b 414 910 428 868 423 891 b 376 960 405 930 392 947 b 319 990 359 974 341 984 b 251 1000 298 997 275 1000 b 153 974 216 1000 183 991 b 75 893 122 957 96 930 l 144 857 b 190 908 156 879 172 896 b 249 926 208 920 227 926 b 317 903 275 926 298 919 b 344 840 335 887 344 866 b 310 765 344 805 333 780 b 228 743 288 750 260 743 z m 301 -43 l 926 989 l 856 1026 l 229 -6 z "},"Ā":{"ha":972,"x_min":0,"x_max":0,"o":"m 124 0 l 231 258 l 739 258 l 847 0 l 958 0 l 536 983 l 439 983 l 14 0 z m 268 350 l 485 872 l 701 350 z m 675 1111 l 675 1186 l 300 1186 l 300 1111 z "},"ā":{"ha":742,"x_min":0,"x_max":0,"o":"m 535 419 l 535 399 b 363 392 475 399 418 397 b 217 365 308 388 259 379 b 115 299 174 350 140 328 b 76 181 89 270 76 231 b 98 89 76 144 84 114 b 152 28 112 64 130 44 b 224 -6 174 12 198 1 b 301 -17 251 -13 276 -17 b 437 12 354 -17 399 -7 b 538 106 474 31 508 62 l 540 106 b 543 51 540 88 541 70 b 550 0 545 33 547 16 l 635 0 b 626 68 631 19 628 41 b 624 146 625 95 624 121 l 624 431 b 604 535 624 470 617 505 b 550 608 591 564 573 589 b 469 652 527 628 500 642 b 371 667 439 662 406 667 b 222 640 315 667 266 658 b 115 574 178 623 142 600 l 168 511 b 253 567 191 534 219 553 b 361 588 286 581 322 588 b 490 546 418 588 461 574 b 535 419 520 518 535 476 z m 507 325 l 535 325 l 535 276 b 521 194 535 248 530 220 b 481 126 512 169 498 146 b 415 78 463 106 441 90 b 326 61 389 67 360 61 b 272 67 308 61 290 63 b 222 88 253 72 237 78 b 187 126 207 98 196 111 b 174 185 178 142 174 162 b 204 258 174 215 184 240 b 283 301 225 277 251 291 b 390 320 315 310 350 317 b 507 325 429 323 468 325 z m 563 833 l 563 908 l 188 908 l 188 833 z "},"Ă":{"ha":972,"x_min":0,"x_max":0,"o":"m 124 0 l 231 258 l 739 258 l 847 0 l 958 0 l 536 983 l 439 983 l 14 0 z m 268 350 l 485 872 l 701 350 z m 692 1261 l 631 1261 b 581 1180 624 1225 607 1198 b 488 1153 554 1162 523 1153 b 394 1180 452 1153 421 1162 b 344 1261 368 1198 351 1225 l 283 1261 b 345 1126 287 1203 308 1158 b 488 1078 383 1094 430 1078 b 630 1126 545 1078 592 1094 b 692 1261 667 1158 688 1203 z "},"ă":{"ha":742,"x_min":0,"x_max":0,"o":"m 535 419 l 535 399 b 363 392 475 399 418 397 b 217 365 308 388 259 379 b 115 299 174 350 140 328 b 76 181 89 270 76 231 b 98 89 76 144 84 114 b 152 28 112 64 130 44 b 224 -6 174 12 198 1 b 301 -17 251 -13 276 -17 b 437 12 354 -17 399 -7 b 538 106 474 31 508 62 l 540 106 b 543 51 540 88 541 70 b 550 0 545 33 547 16 l 635 0 b 626 68 631 19 628 41 b 624 146 625 95 624 121 l 624 431 b 604 535 624 470 617 505 b 550 608 591 564 573 589 b 469 652 527 628 500 642 b 371 667 439 662 406 667 b 222 640 315 667 266 658 b 115 574 178 623 142 600 l 168 511 b 253 567 191 534 219 553 b 361 588 286 581 322 588 b 490 546 418 588 461 574 b 535 419 520 518 535 476 z m 507 325 l 535 325 l 535 276 b 521 194 535 248 530 220 b 481 126 512 169 498 146 b 415 78 463 106 441 90 b 326 61 389 67 360 61 b 272 67 308 61 290 63 b 222 88 253 72 237 78 b 187 126 207 98 196 111 b 174 185 178 142 174 162 b 204 258 174 215 184 240 b 283 301 225 277 251 291 b 390 320 315 310 350 317 b 507 325 429 323 468 325 z m 583 983 l 522 983 b 472 902 516 947 499 920 b 379 875 445 884 414 875 b 286 902 344 875 313 884 b 236 983 259 920 243 947 l 175 983 b 237 848 179 925 199 880 b 379 800 274 816 322 800 b 522 848 437 800 484 816 b 583 983 559 880 580 925 z "},"Ą":{"ha":972,"x_min":0,"x_max":0,"o":"m 974 -260 l 947 -204 b 915 -227 938 -214 927 -222 b 876 -235 902 -232 889 -235 b 828 -216 858 -235 842 -228 b 807 -168 814 -203 807 -187 b 835 -90 807 -141 816 -115 b 914 0 853 -64 880 -34 l 958 0 l 536 983 l 439 983 l 14 0 l 124 0 l 231 258 l 739 258 l 847 0 b 804 -38 833 -11 819 -24 b 764 -84 789 -53 776 -68 b 735 -135 752 -100 742 -117 b 724 -192 727 -153 724 -172 b 734 -240 724 -209 727 -225 b 762 -277 741 -254 750 -266 b 801 -301 773 -288 787 -296 b 849 -310 816 -307 832 -310 b 917 -297 872 -310 894 -305 b 974 -260 939 -288 958 -275 z m 268 350 l 485 872 l 701 350 z "},"ą":{"ha":742,"x_min":0,"x_max":0,"o":"m 679 -260 l 653 -204 b 620 -227 644 -214 633 -222 b 582 -235 608 -232 595 -235 b 533 -216 563 -235 547 -228 b 513 -168 519 -203 513 -187 b 540 -90 513 -141 522 -115 b 619 0 559 -64 585 -34 l 635 0 b 626 68 631 19 628 41 b 624 146 625 95 624 121 l 624 431 b 604 535 624 470 617 505 b 550 608 591 564 573 589 b 469 652 527 628 500 642 b 371 667 439 662 406 667 b 222 640 315 667 266 658 b 115 574 178 623 142 600 l 168 511 b 253 567 191 534 219 553 b 361 588 286 581 322 588 b 490 546 418 588 461 574 b 535 419 520 518 535 476 l 535 399 b 363 392 475 399 418 397 b 217 365 308 388 259 379 b 115 299 174 350 140 328 b 76 181 89 270 76 231 b 98 89 76 144 84 114 b 152 28 112 64 130 44 b 224 -6 174 12 198 1 b 301 -17 251 -13 276 -17 b 437 12 354 -17 399 -7 b 538 106 474 31 508 62 l 540 106 b 543 51 540 88 541 70 b 550 0 545 33 547 16 l 553 0 b 510 -38 539 -11 525 -24 b 469 -84 495 -53 481 -68 b 440 -135 457 -100 448 -117 b 429 -192 433 -153 429 -172 b 440 -240 429 -209 433 -225 b 467 -277 447 -254 456 -266 b 507 -301 479 -288 492 -296 b 554 -310 522 -307 538 -310 b 622 -297 577 -310 600 -305 b 679 -260 644 -288 663 -275 z m 507 325 l 535 325 l 535 276 b 521 194 535 248 530 220 b 481 126 512 169 498 146 b 415 78 463 106 441 90 b 326 61 389 67 360 61 b 272 67 308 61 290 63 b 222 88 253 72 237 78 b 187 126 207 98 196 111 b 174 185 178 142 174 162 b 204 258 174 215 184 240 b 283 301 225 277 251 291 b 390 320 315 310 350 317 b 507 325 429 323 468 325 z "},"Ć":{"ha":1000,"x_min":0,"x_max":0,"o":"m 958 158 l 881 208 b 753 97 846 157 804 120 b 592 63 702 74 648 63 b 422 97 529 62 472 74 b 293 191 371 120 328 152 b 212 328 258 230 231 276 b 183 492 193 380 183 434 b 211 656 183 549 193 604 b 292 792 230 707 256 753 b 420 886 327 832 370 863 b 592 921 471 909 528 921 b 680 910 623 921 653 917 b 756 881 707 902 732 893 b 816 839 779 869 799 855 b 857 792 833 823 847 807 l 940 853 b 878 917 924 877 903 898 b 794 966 853 936 825 953 b 697 997 764 979 731 990 b 590 1008 662 1005 626 1008 b 387 969 517 1008 449 995 b 224 862 324 944 270 908 b 117 699 178 816 143 762 b 78 492 91 636 78 567 b 116 285 78 417 91 348 b 222 122 141 222 177 167 b 385 14 268 76 322 40 b 590 -25 448 -12 516 -25 b 713 -10 635 -25 676 -20 b 816 29 751 -1 785 13 b 898 88 847 46 874 65 b 958 158 922 110 942 133 z m 594 1061 l 778 1261 l 651 1261 l 513 1061 z "},"ć":{"ha":694,"x_min":0,"x_max":0,"o":"m 593 501 l 667 554 b 558 638 639 591 603 619 b 425 667 513 657 469 667 b 282 641 372 667 325 658 b 173 569 239 624 203 600 b 103 461 143 539 119 503 b 78 325 86 419 78 374 b 103 189 78 276 86 231 b 173 81 119 147 143 111 b 282 9 203 50 239 26 b 425 -17 325 -8 372 -17 b 570 14 481 -17 530 -6 b 672 96 610 34 644 62 l 601 149 b 531 88 583 124 559 103 b 425 64 502 72 467 64 b 322 84 387 64 353 71 b 244 140 292 97 266 116 b 195 222 223 163 207 191 b 178 325 184 254 178 288 b 195 428 178 362 184 397 b 245 512 207 460 223 488 b 324 567 267 535 293 554 b 426 588 354 581 388 588 b 524 563 462 588 494 579 b 593 501 554 547 577 526 z m 429 783 l 613 983 l 486 983 l 347 783 z "},"Ĉ":{"ha":1000,"x_min":0,"x_max":0,"o":"m 958 158 l 881 208 b 753 97 846 157 804 120 b 592 63 702 74 648 63 b 422 97 529 62 472 74 b 293 191 371 120 328 152 b 212 328 258 230 231 276 b 183 492 193 380 183 434 b 211 656 183 549 193 604 b 292 792 230 707 256 753 b 420 886 327 832 370 863 b 592 921 471 909 528 921 b 680 910 623 921 653 917 b 756 881 707 902 732 893 b 816 839 779 869 799 855 b 857 792 833 823 847 807 l 940 853 b 878 917 924 877 903 898 b 794 966 853 936 825 953 b 697 997 764 979 731 990 b 590 1008 662 1005 626 1008 b 387 969 517 1008 449 995 b 224 862 324 944 270 908 b 117 699 178 816 143 762 b 78 492 91 636 78 567 b 116 285 78 417 91 348 b 222 122 141 222 177 167 b 385 14 268 76 322 40 b 590 -25 448 -12 516 -25 b 713 -10 635 -25 676 -20 b 816 29 751 -1 785 13 b 898 88 847 46 874 65 b 958 158 922 110 942 133 z m 796 1061 l 644 1261 l 533 1261 l 382 1061 l 474 1061 l 589 1211 l 704 1061 z "},"ĉ":{"ha":694,"x_min":0,"x_max":0,"o":"m 593 501 l 667 554 b 558 638 639 591 603 619 b 425 667 513 657 469 667 b 282 641 372 667 325 658 b 173 569 239 624 203 600 b 103 461 143 539 119 503 b 78 325 86 419 78 374 b 103 189 78 276 86 231 b 173 81 119 147 143 111 b 282 9 203 50 239 26 b 425 -17 325 -8 372 -17 b 570 14 481 -17 530 -6 b 672 96 610 34 644 62 l 601 149 b 531 88 583 124 559 103 b 425 64 502 72 467 64 b 322 84 387 64 353 71 b 244 140 292 97 266 116 b 195 222 223 163 207 191 b 178 325 184 254 178 288 b 195 428 178 362 184 397 b 245 512 207 460 223 488 b 324 567 267 535 293 554 b 426 588 354 581 388 588 b 524 563 462 588 494 579 b 593 501 554 547 577 526 z m 628 783 l 476 983 l 365 983 l 214 783 l 306 783 l 421 933 l 536 783 z "},"Ċ":{"ha":1000,"x_min":0,"x_max":0,"o":"m 958 158 l 881 208 b 753 97 846 157 804 120 b 592 63 702 74 648 63 b 422 97 529 62 472 74 b 293 191 371 120 328 152 b 212 328 258 230 231 276 b 183 492 193 380 183 434 b 211 656 183 549 193 604 b 292 792 230 707 256 753 b 420 886 327 832 370 863 b 592 921 471 909 528 921 b 680 910 623 921 653 917 b 756 881 707 902 732 893 b 816 839 779 869 799 855 b 857 792 833 823 847 807 l 940 853 b 878 917 924 877 903 898 b 794 966 853 936 825 953 b 697 997 764 979 731 990 b 590 1008 662 1005 626 1008 b 387 969 517 1008 449 995 b 224 862 324 944 270 908 b 117 699 178 816 143 762 b 78 492 91 636 78 567 b 116 285 78 417 91 348 b 222 122 141 222 177 167 b 385 14 268 76 322 40 b 590 -25 448 -12 516 -25 b 713 -10 635 -25 676 -20 b 816 29 751 -1 785 13 b 898 88 847 46 874 65 b 958 158 922 110 942 133 z m 643 1178 b 622 1226 643 1197 636 1213 b 576 1244 608 1238 593 1244 b 531 1226 560 1244 544 1238 b 510 1178 517 1213 510 1197 b 531 1130 510 1158 517 1142 b 576 1111 544 1117 560 1111 b 622 1130 593 1111 608 1117 b 643 1178 636 1142 643 1158 z "},"ċ":{"ha":694,"x_min":0,"x_max":0,"o":"m 593 501 l 667 554 b 558 638 639 591 603 619 b 425 667 513 657 469 667 b 282 641 372 667 325 658 b 173 569 239 624 203 600 b 103 461 143 539 119 503 b 78 325 86 419 78 374 b 103 189 78 276 86 231 b 173 81 119 147 143 111 b 282 9 203 50 239 26 b 425 -17 325 -8 372 -17 b 570 14 481 -17 530 -6 b 672 96 610 34 644 62 l 601 149 b 531 88 583 124 559 103 b 425 64 502 72 467 64 b 322 84 387 64 353 71 b 244 140 292 97 266 116 b 195 222 223 163 207 191 b 178 325 184 254 178 288 b 195 428 178 362 184 397 b 245 512 207 460 223 488 b 324 567 267 535 293 554 b 426 588 354 581 388 588 b 524 563 462 588 494 579 b 593 501 554 547 577 526 z m 476 900 b 456 948 476 919 469 935 b 410 967 442 960 426 967 b 364 948 393 967 378 960 b 343 900 350 935 343 919 b 364 852 343 881 350 865 b 410 833 378 840 393 833 b 456 852 426 833 442 840 b 476 900 469 865 476 881 z "},"Č":{"ha":1000,"x_min":0,"x_max":0,"o":"m 958 158 l 881 208 b 753 97 846 157 804 120 b 592 63 702 74 648 63 b 422 97 529 62 472 74 b 293 191 371 120 328 152 b 212 328 258 230 231 276 b 183 492 193 380 183 434 b 211 656 183 549 193 604 b 292 792 230 707 256 753 b 420 886 327 832 370 863 b 592 921 471 909 528 921 b 680 910 623 921 653 917 b 756 881 707 902 732 893 b 816 839 779 869 799 855 b 857 792 833 823 847 807 l 940 853 b 878 917 924 877 903 898 b 794 966 853 936 825 953 b 697 997 764 979 731 990 b 590 1008 662 1005 626 1008 b 387 969 517 1008 449 995 b 224 862 324 944 270 908 b 117 699 178 816 143 762 b 78 492 91 636 78 567 b 116 285 78 417 91 348 b 222 122 141 222 177 167 b 385 14 268 76 322 40 b 590 -25 448 -12 516 -25 b 713 -10 635 -25 676 -20 b 816 29 751 -1 785 13 b 898 88 847 46 874 65 b 958 158 922 110 942 133 z m 643 1061 l 794 1261 l 703 1261 l 588 1111 l 472 1261 l 381 1261 l 532 1061 z "},"č":{"ha":694,"x_min":0,"x_max":0,"o":"m 593 501 l 667 554 b 558 638 639 591 603 619 b 425 667 513 657 469 667 b 282 641 372 667 325 658 b 173 569 239 624 203 600 b 103 461 143 539 119 503 b 78 325 86 419 78 374 b 103 189 78 276 86 231 b 173 81 119 147 143 111 b 282 9 203 50 239 26 b 425 -17 325 -8 372 -17 b 570 14 481 -17 530 -6 b 672 96 610 34 644 62 l 601 149 b 531 88 583 124 559 103 b 425 64 502 72 467 64 b 322 84 387 64 353 71 b 244 140 292 97 266 116 b 195 222 223 163 207 191 b 178 325 184 254 178 288 b 195 428 178 362 184 397 b 245 512 207 460 223 488 b 324 567 267 535 293 554 b 426 588 354 581 388 588 b 524 563 462 588 494 579 b 593 501 554 547 577 526 z m 478 783 l 629 983 l 538 983 l 422 833 l 307 983 l 215 983 l 367 783 z "},"Ď":{"ha":1051,"x_min":0,"x_max":0,"o":"m 131 983 l 131 0 l 457 0 b 641 31 518 0 579 10 b 808 123 703 51 758 82 b 928 276 857 164 897 215 b 974 492 958 338 974 409 b 928 706 974 573 958 645 b 808 860 897 768 857 819 b 641 953 758 902 703 932 b 457 983 579 973 518 983 z m 231 89 l 231 894 l 429 894 b 623 860 503 894 568 883 b 760 769 678 837 724 806 b 841 640 796 731 823 688 b 868 492 859 592 868 543 b 841 343 868 441 859 391 b 760 215 823 295 796 252 b 623 124 724 177 678 147 b 429 89 568 100 503 89 z m 538 1061 l 689 1261 l 597 1261 l 482 1111 l 367 1261 l 275 1261 l 426 1061 z "},"ď":{"ha":885,"x_min":0,"x_max":0,"o":"m 660 110 l 663 110 l 663 0 l 757 0 l 757 1050 l 663 1050 l 663 538 l 660 538 b 551 634 632 580 596 612 b 414 667 507 656 461 667 b 276 640 363 667 317 658 b 170 568 234 623 199 599 b 102 460 141 538 118 501 b 78 325 86 418 78 373 b 102 190 78 277 86 232 b 170 82 118 149 141 113 b 276 10 199 51 234 27 b 414 -17 317 -8 363 -17 b 551 15 461 -17 507 -6 b 660 110 596 37 632 68 z m 178 325 b 194 427 178 361 183 395 b 242 510 206 459 222 487 b 319 567 263 534 289 553 b 424 588 350 581 385 588 b 524 567 460 588 493 581 b 603 512 554 554 581 535 b 655 428 625 488 642 460 b 674 325 667 397 674 362 b 655 222 674 288 667 253 b 603 139 642 190 625 162 b 524 84 581 116 554 97 b 424 64 493 71 460 64 b 319 84 385 64 350 71 b 242 140 289 97 263 116 b 194 223 222 163 206 191 b 178 325 183 255 178 289 z m 914 726 l 1019 983 l 921 983 l 835 726 z "},"Đ":{"ha":1051,"x_min":0,"x_max":0,"o":"m 119 482 l 119 0 l 446 0 b 630 31 507 0 568 10 b 797 123 691 51 747 82 b 917 276 846 164 886 215 b 963 492 947 338 963 409 b 917 706 963 573 947 645 b 797 860 886 768 846 819 b 630 953 747 902 691 932 b 446 983 568 973 507 983 l 119 983 l 119 557 l 18 557 l 18 482 z m 219 92 l 219 482 l 578 482 l 578 557 l 219 557 l 219 892 l 414 892 b 609 858 489 892 554 880 b 747 767 664 835 710 805 b 828 640 783 730 810 687 b 854 492 845 592 854 543 b 828 344 854 441 845 391 b 747 216 810 296 783 253 b 609 126 710 178 664 148 b 414 92 554 103 489 92 z "},"đ":{"ha":885,"x_min":0,"x_max":0,"o":"m 663 861 l 446 861 l 446 792 l 663 792 l 663 538 l 660 538 b 551 634 632 580 596 612 b 414 667 507 656 461 667 b 276 640 363 667 317 658 b 170 568 234 623 199 599 b 102 460 141 538 118 501 b 78 325 86 418 78 373 b 102 190 78 277 86 232 b 170 82 118 149 141 113 b 276 10 199 51 234 27 b 414 -17 317 -8 363 -17 b 551 15 461 -17 507 -6 b 660 110 596 37 632 68 l 663 110 l 663 0 l 757 0 l 757 792 l 835 792 l 835 861 l 757 861 l 757 1050 l 663 1050 z m 178 325 b 194 427 178 361 183 395 b 242 510 206 459 222 487 b 319 567 263 534 289 553 b 424 588 350 581 385 588 b 524 567 460 588 493 581 b 603 512 554 554 581 535 b 655 428 625 488 642 460 b 674 325 667 397 674 362 b 655 222 674 288 667 253 b 603 139 642 190 625 162 b 524 84 581 116 554 97 b 424 64 493 71 460 64 b 319 84 385 64 350 71 b 242 140 289 97 263 116 b 194 223 222 163 206 191 b 178 325 183 255 178 289 z "},"Ē":{"ha":822,"x_min":0,"x_max":0,"o":"m 231 89 l 231 468 l 707 468 l 707 556 l 231 556 l 231 894 l 740 894 l 740 983 l 131 983 l 131 0 l 757 0 l 757 89 z m 628 1111 l 628 1186 l 253 1186 l 253 1111 z "},"ē":{"ha":794,"x_min":0,"x_max":0,"o":"m 621 375 l 178 375 b 199 455 180 403 187 429 b 247 523 211 480 227 503 b 318 570 268 543 291 559 b 406 588 345 582 374 588 b 562 527 473 588 525 567 b 621 375 598 487 618 436 z m 717 344 b 697 469 717 389 710 431 b 638 572 683 508 663 542 b 540 641 612 601 579 624 b 406 667 501 658 456 667 b 276 641 359 667 316 658 b 172 569 237 624 202 600 b 103 461 143 539 119 503 b 78 325 86 419 78 374 b 103 189 78 276 86 231 b 174 81 121 147 144 111 b 280 9 203 50 239 26 b 414 -17 321 -8 366 -17 b 565 15 468 -17 518 -6 b 693 121 611 37 654 72 l 622 176 b 541 98 604 147 577 121 b 414 64 505 75 463 64 b 321 83 381 64 350 70 b 246 133 292 95 267 112 b 196 208 225 155 208 180 b 176 300 184 237 177 268 l 715 300 b 717 324 716 308 717 316 z m 599 833 l 599 908 l 224 908 l 224 833 z "},"Ĕ":{"ha":822,"x_min":0,"x_max":0,"o":"m 231 89 l 231 468 l 707 468 l 707 556 l 231 556 l 231 894 l 740 894 l 740 983 l 131 983 l 131 0 l 757 0 l 757 89 z m 643 1261 l 582 1261 b 532 1180 575 1225 559 1198 b 439 1153 505 1162 474 1153 b 346 1180 404 1153 373 1162 b 296 1261 319 1198 302 1225 l 235 1261 b 297 1126 238 1203 259 1158 b 439 1078 334 1094 381 1078 b 581 1126 496 1078 544 1094 b 643 1261 619 1158 639 1203 z "},"ĕ":{"ha":794,"x_min":0,"x_max":0,"o":"m 621 375 l 178 375 b 199 455 180 403 187 429 b 247 523 211 480 227 503 b 318 570 268 543 291 559 b 406 588 345 582 374 588 b 562 527 473 588 525 567 b 621 375 598 487 618 436 z m 717 344 b 697 469 717 389 710 431 b 638 572 683 508 663 542 b 540 641 612 601 579 624 b 406 667 501 658 456 667 b 276 641 359 667 316 658 b 172 569 237 624 202 600 b 103 461 143 539 119 503 b 78 325 86 419 78 374 b 103 189 78 276 86 231 b 174 81 121 147 144 111 b 280 9 203 50 239 26 b 414 -17 321 -8 366 -17 b 565 15 468 -17 518 -6 b 693 121 611 37 654 72 l 622 176 b 541 98 604 147 577 121 b 414 64 505 75 463 64 b 321 83 381 64 350 70 b 246 133 292 95 267 112 b 196 208 225 155 208 180 b 176 300 184 237 177 268 l 715 300 b 717 324 716 308 717 316 z m 613 983 l 551 983 b 501 902 545 947 528 920 b 408 875 475 884 444 875 b 315 902 373 875 342 884 b 265 983 288 920 272 947 l 204 983 b 266 848 208 925 228 880 b 408 800 303 816 351 800 b 551 848 466 800 513 816 b 613 983 588 880 609 925 z "},"Ė":{"ha":822,"x_min":0,"x_max":0,"o":"m 231 89 l 231 468 l 707 468 l 707 556 l 231 556 l 231 894 l 740 894 l 740 983 l 131 983 l 131 0 l 757 0 l 757 89 z m 513 1178 b 492 1226 513 1197 506 1213 b 446 1244 478 1238 463 1244 b 400 1226 429 1244 414 1238 b 379 1178 386 1213 379 1197 b 400 1130 379 1158 386 1142 b 446 1111 414 1117 429 1111 b 492 1130 463 1111 478 1117 b 513 1178 506 1142 513 1158 z "},"ė":{"ha":794,"x_min":0,"x_max":0,"o":"m 621 375 l 178 375 b 199 455 180 403 187 429 b 247 523 211 480 227 503 b 318 570 268 543 291 559 b 406 588 345 582 374 588 b 562 527 473 588 525 567 b 621 375 598 487 618 436 z m 717 344 b 697 469 717 389 710 431 b 638 572 683 508 663 542 b 540 641 612 601 579 624 b 406 667 501 658 456 667 b 276 641 359 667 316 658 b 172 569 237 624 202 600 b 103 461 143 539 119 503 b 78 325 86 419 78 374 b 103 189 78 276 86 231 b 174 81 121 147 144 111 b 280 9 203 50 239 26 b 414 -17 321 -8 366 -17 b 565 15 468 -17 518 -6 b 693 121 611 37 654 72 l 622 176 b 541 98 604 147 577 121 b 414 64 505 75 463 64 b 321 83 381 64 350 70 b 246 133 292 95 267 112 b 196 208 225 155 208 180 b 176 300 184 237 177 268 l 715 300 b 717 324 716 308 717 316 z m 475 900 b 454 948 475 919 468 935 b 408 967 440 960 425 967 b 363 948 392 967 376 960 b 342 900 349 935 342 919 b 363 852 342 881 349 865 b 408 833 376 840 392 833 b 454 852 425 833 440 840 b 475 900 468 865 475 881 z "},"Ę":{"ha":822,"x_min":0,"x_max":0,"o":"m 794 -260 l 768 -204 b 735 -227 759 -214 748 -222 b 697 -235 723 -232 710 -235 b 649 -216 679 -235 663 -228 b 628 -168 635 -203 628 -187 b 656 -90 628 -141 637 -115 b 735 0 674 -64 700 -34 l 757 0 l 757 89 l 231 89 l 231 468 l 707 468 l 707 556 l 231 556 l 231 894 l 740 894 l 740 983 l 131 983 l 131 0 l 668 0 b 625 -38 654 -11 640 -24 b 585 -84 610 -53 597 -68 b 556 -135 573 -100 563 -117 b 544 -192 548 -153 544 -172 b 555 -240 544 -209 548 -225 b 583 -277 562 -254 571 -266 b 622 -301 594 -288 607 -296 b 669 -310 637 -307 653 -310 b 738 -297 693 -310 715 -305 b 794 -260 760 -288 779 -275 z "},"ę":{"ha":794,"x_min":0,"x_max":0,"o":"m 554 -260 l 528 -204 b 495 -227 519 -214 508 -222 b 457 -235 483 -232 470 -235 b 408 -216 438 -235 422 -228 b 388 -168 394 -203 388 -187 b 413 -93 388 -142 396 -117 b 483 -10 429 -69 453 -41 b 596 32 523 -2 561 12 b 693 121 631 52 663 82 l 622 176 b 541 98 604 147 577 121 b 414 64 505 75 463 64 b 321 83 381 64 350 70 b 246 133 292 95 267 112 b 196 208 225 155 208 180 b 176 300 184 237 177 268 l 715 300 b 717 324 716 308 717 316 l 717 344 b 697 469 717 389 710 431 b 638 572 683 508 663 542 b 540 641 612 601 579 624 b 406 667 501 658 456 667 b 276 641 359 667 316 658 b 172 569 237 624 202 600 b 103 461 143 539 119 503 b 78 325 86 419 78 374 b 103 190 78 276 86 231 b 172 82 119 148 142 113 b 276 10 201 51 235 28 b 407 -17 316 -7 360 -16 b 336 -94 381 -39 357 -65 b 304 -192 315 -124 304 -156 b 315 -240 304 -209 308 -225 b 342 -277 322 -254 331 -266 b 382 -301 354 -288 367 -296 b 429 -310 397 -307 413 -310 b 497 -297 452 -310 475 -305 b 554 -260 519 -288 538 -275 z m 621 375 l 178 375 b 199 455 180 403 187 429 b 247 523 211 480 227 503 b 318 570 268 543 291 559 b 406 588 345 582 374 588 b 562 527 473 588 525 567 b 621 375 598 487 618 436 z "},"Ě":{"ha":822,"x_min":0,"x_max":0,"o":"m 231 89 l 231 468 l 707 468 l 707 556 l 231 556 l 231 894 l 740 894 l 740 983 l 131 983 l 131 0 l 757 0 l 757 89 z m 496 1061 l 647 1261 l 556 1261 l 440 1111 l 325 1261 l 233 1261 l 385 1061 z "},"ě":{"ha":794,"x_min":0,"x_max":0,"o":"m 621 375 l 178 375 b 199 455 180 403 187 429 b 247 523 211 480 227 503 b 318 570 268 543 291 559 b 406 588 345 582 374 588 b 562 527 473 588 525 567 b 621 375 598 487 618 436 z m 717 344 b 697 469 717 389 710 431 b 638 572 683 508 663 542 b 540 641 612 601 579 624 b 406 667 501 658 456 667 b 276 641 359 667 316 658 b 172 569 237 624 202 600 b 103 461 143 539 119 503 b 78 325 86 419 78 374 b 103 189 78 276 86 231 b 174 81 121 147 144 111 b 280 9 203 50 239 26 b 414 -17 321 -8 366 -17 b 565 15 468 -17 518 -6 b 693 121 611 37 654 72 l 622 176 b 541 98 604 147 577 121 b 414 64 505 75 463 64 b 321 83 381 64 350 70 b 246 133 292 95 267 112 b 196 208 225 155 208 180 b 176 300 184 237 177 268 l 715 300 b 717 324 716 308 717 316 z m 464 783 l 615 983 l 524 983 l 408 833 l 293 983 l 201 983 l 353 783 z "},"Ĝ":{"ha":1082,"x_min":0,"x_max":0,"o":"m 876 807 l 946 876 b 796 974 904 918 854 950 b 590 1008 738 997 669 1008 b 387 969 517 1008 449 995 b 224 862 324 944 270 908 b 117 699 178 816 143 762 b 78 492 91 636 78 567 b 116 285 78 417 91 348 b 222 122 141 222 177 167 b 385 14 268 76 322 40 b 590 -25 448 -12 516 -25 b 783 -1 657 -25 721 -17 b 957 71 845 14 903 38 l 957 514 l 628 514 l 628 426 l 857 426 l 857 128 b 744 82 828 109 791 94 b 592 64 698 70 647 64 b 422 99 529 64 472 75 b 293 192 371 122 328 153 b 212 328 258 231 231 276 b 183 492 193 380 183 434 b 212 656 183 549 193 604 b 293 792 231 707 258 753 b 422 886 328 832 371 863 b 592 921 472 909 529 921 b 754 891 653 921 707 911 b 876 807 801 871 842 843 z m 804 1061 l 653 1261 l 542 1261 l 390 1061 l 482 1061 l 597 1211 l 713 1061 z "},"ĝ":{"ha":878,"x_min":0,"x_max":0,"o":"m 160 -131 l 92 -203 b 232 -299 131 -244 177 -275 b 404 -333 287 -322 344 -333 b 581 -300 476 -333 535 -322 b 688 -217 626 -278 662 -250 b 742 -107 715 -183 733 -147 b 757 6 752 -67 757 -30 l 757 650 l 663 650 l 663 538 l 660 538 b 553 633 634 579 598 611 b 414 667 507 656 461 667 b 276 640 363 667 317 658 b 170 568 234 623 199 599 b 102 461 141 538 118 502 b 78 331 86 420 78 377 b 102 199 78 283 86 239 b 170 94 118 158 141 123 b 276 25 199 65 234 42 b 414 0 317 8 363 0 b 553 33 461 0 508 11 b 660 128 599 56 635 87 l 663 128 l 663 6 b 649 -94 663 -30 658 -63 b 605 -175 639 -125 625 -152 b 526 -230 585 -198 559 -216 b 408 -250 494 -243 455 -250 b 266 -215 358 -250 311 -238 b 160 -131 221 -192 186 -164 z m 178 333 b 194 431 178 368 183 400 b 242 511 206 461 222 488 b 319 567 263 534 289 553 b 424 588 350 581 385 588 b 524 567 460 588 493 581 b 603 511 554 553 581 534 b 655 431 625 488 642 461 b 674 333 667 400 674 368 b 655 230 674 295 667 261 b 603 150 642 199 625 172 b 524 99 581 128 554 111 b 424 81 493 87 460 81 b 319 101 385 81 350 87 b 242 156 289 114 263 132 b 194 236 222 179 206 206 b 178 333 183 267 178 299 z m 635 783 l 483 983 l 372 983 l 221 783 l 313 783 l 428 933 l 543 783 z "},"Ğ":{"ha":1082,"x_min":0,"x_max":0,"o":"m 876 807 l 946 876 b 796 974 904 918 854 950 b 590 1008 738 997 669 1008 b 387 969 517 1008 449 995 b 224 862 324 944 270 908 b 117 699 178 816 143 762 b 78 492 91 636 78 567 b 116 285 78 417 91 348 b 222 122 141 222 177 167 b 385 14 268 76 322 40 b 590 -25 448 -12 516 -25 b 783 -1 657 -25 721 -17 b 957 71 845 14 903 38 l 957 514 l 628 514 l 628 426 l 857 426 l 857 128 b 744 82 828 109 791 94 b 592 64 698 70 647 64 b 422 99 529 64 472 75 b 293 192 371 122 328 153 b 212 328 258 231 231 276 b 183 492 193 380 183 434 b 212 656 183 549 193 604 b 293 792 231 707 258 753 b 422 886 328 832 371 863 b 592 921 472 909 529 921 b 754 891 653 921 707 911 b 876 807 801 871 842 843 z m 796 1261 l 735 1261 b 685 1180 728 1225 712 1198 b 592 1153 658 1162 627 1153 b 499 1180 556 1153 525 1162 b 449 1261 472 1198 455 1225 l 388 1261 b 449 1126 391 1203 412 1158 b 592 1078 487 1094 534 1078 b 734 1126 649 1078 697 1094 b 796 1261 772 1158 792 1203 z "},"ğ":{"ha":878,"x_min":0,"x_max":0,"o":"m 160 -131 l 92 -203 b 232 -299 131 -244 177 -275 b 404 -333 287 -322 344 -333 b 581 -300 476 -333 535 -322 b 688 -217 626 -278 662 -250 b 742 -107 715 -183 733 -147 b 757 6 752 -67 757 -30 l 757 650 l 663 650 l 663 538 l 660 538 b 553 633 634 579 598 611 b 414 667 507 656 461 667 b 276 640 363 667 317 658 b 170 568 234 623 199 599 b 102 461 141 538 118 502 b 78 331 86 420 78 377 b 102 199 78 283 86 239 b 170 94 118 158 141 123 b 276 25 199 65 234 42 b 414 0 317 8 363 0 b 553 33 461 0 508 11 b 660 128 599 56 635 87 l 663 128 l 663 6 b 649 -94 663 -30 658 -63 b 605 -175 639 -125 625 -152 b 526 -230 585 -198 559 -216 b 408 -250 494 -243 455 -250 b 266 -215 358 -250 311 -238 b 160 -131 221 -192 186 -164 z m 178 333 b 194 431 178 368 183 400 b 242 511 206 461 222 488 b 319 567 263 534 289 553 b 424 588 350 581 385 588 b 524 567 460 588 493 581 b 603 511 554 553 581 534 b 655 431 625 488 642 461 b 674 333 667 400 674 368 b 655 230 674 295 667 261 b 603 150 642 199 625 172 b 524 99 581 128 554 111 b 424 81 493 87 460 81 b 319 101 385 81 350 87 b 242 156 289 114 263 132 b 194 236 222 179 206 206 b 178 333 183 267 178 299 z m 635 983 l 574 983 b 524 902 567 947 550 920 b 431 875 497 884 466 875 b 338 902 395 875 364 884 b 288 983 311 920 294 947 l 226 983 b 288 848 230 925 251 880 b 431 800 326 816 373 800 b 573 848 488 800 535 816 b 635 983 610 880 631 925 z "},"Ġ":{"ha":1082,"x_min":0,"x_max":0,"o":"m 876 807 l 946 876 b 796 974 904 918 854 950 b 590 1008 738 997 669 1008 b 387 969 517 1008 449 995 b 224 862 324 944 270 908 b 117 699 178 816 143 762 b 78 492 91 636 78 567 b 116 285 78 417 91 348 b 222 122 141 222 177 167 b 385 14 268 76 322 40 b 590 -25 448 -12 516 -25 b 783 -1 657 -25 721 -17 b 957 71 845 14 903 38 l 957 514 l 628 514 l 628 426 l 857 426 l 857 128 b 744 82 828 109 791 94 b 592 64 698 70 647 64 b 422 99 529 64 472 75 b 293 192 371 122 328 153 b 212 328 258 231 231 276 b 183 492 193 380 183 434 b 212 656 183 549 193 604 b 293 792 231 707 258 753 b 422 886 328 832 371 863 b 592 921 472 909 529 921 b 754 891 653 921 707 911 b 876 807 801 871 842 843 z m 657 1178 b 636 1226 657 1197 650 1213 b 590 1244 622 1238 607 1244 b 544 1226 574 1244 558 1238 b 524 1178 531 1213 524 1197 b 544 1130 524 1158 531 1142 b 590 1111 558 1117 574 1111 b 636 1130 607 1111 622 1117 b 657 1178 650 1142 657 1158 z "},"ġ":{"ha":878,"x_min":0,"x_max":0,"o":"m 160 -131 l 92 -203 b 232 -299 131 -244 177 -275 b 404 -333 287 -322 344 -333 b 581 -300 476 -333 535 -322 b 688 -217 626 -278 662 -250 b 742 -107 715 -183 733 -147 b 757 6 752 -67 757 -30 l 757 650 l 663 650 l 663 538 l 660 538 b 553 633 634 579 598 611 b 414 667 507 656 461 667 b 276 640 363 667 317 658 b 170 568 234 623 199 599 b 102 461 141 538 118 502 b 78 331 86 420 78 377 b 102 199 78 283 86 239 b 170 94 118 158 141 123 b 276 25 199 65 234 42 b 414 0 317 8 363 0 b 553 33 461 0 508 11 b 660 128 599 56 635 87 l 663 128 l 663 6 b 649 -94 663 -30 658 -63 b 605 -175 639 -125 625 -152 b 526 -230 585 -198 559 -216 b 408 -250 494 -243 455 -250 b 266 -215 358 -250 311 -238 b 160 -131 221 -192 186 -164 z m 178 333 b 194 431 178 368 183 400 b 242 511 206 461 222 488 b 319 567 263 534 289 553 b 424 588 350 581 385 588 b 524 567 460 588 493 581 b 603 511 554 553 581 534 b 655 431 625 488 642 461 b 674 333 667 400 674 368 b 655 230 674 295 667 261 b 603 150 642 199 625 172 b 524 99 581 128 554 111 b 424 81 493 87 460 81 b 319 101 385 81 350 87 b 242 156 289 114 263 132 b 194 236 222 179 206 206 b 178 333 183 267 178 299 z m 493 900 b 472 948 493 919 486 935 b 426 967 458 960 443 967 b 381 948 410 967 394 960 b 360 900 367 935 360 919 b 381 852 360 881 367 865 b 426 833 394 840 410 833 b 472 852 443 833 458 840 b 493 900 486 865 493 881 z "},"Ģ":{"ha":1088,"x_min":0,"x_max":0,"o":"m 876 807 l 946 876 b 796 974 904 918 854 950 b 590 1008 738 997 669 1008 b 387 969 517 1008 449 995 b 224 862 324 944 270 908 b 117 699 178 816 143 762 b 78 492 91 636 78 567 b 116 285 78 417 91 348 b 222 122 141 222 177 167 b 385 14 268 76 322 40 b 590 -25 448 -12 516 -25 b 783 -1 657 -25 721 -17 b 957 71 845 14 903 38 l 957 514 l 628 514 l 628 426 l 857 426 l 857 128 b 744 82 828 109 791 94 b 592 64 698 70 647 64 b 422 99 529 64 472 75 b 293 192 371 122 328 153 b 212 328 258 231 231 276 b 183 492 193 380 183 434 b 212 656 183 549 193 604 b 293 792 231 707 258 753 b 422 886 328 832 371 863 b 592 921 472 909 529 921 b 754 891 653 921 707 911 b 876 807 801 871 842 843 z m 556 -319 l 661 -62 l 563 -62 l 476 -319 z "},"ģ":{"ha":878,"x_min":0,"x_max":0,"o":"m 160 -131 l 92 -203 b 232 -299 131 -244 177 -275 b 404 -333 287 -322 344 -333 b 581 -300 476 -333 535 -322 b 688 -217 626 -278 662 -250 b 742 -107 715 -183 733 -147 b 757 6 752 -67 757 -30 l 757 650 l 663 650 l 663 538 l 660 538 b 553 633 634 579 598 611 b 414 667 507 656 461 667 b 276 640 363 667 317 658 b 170 568 234 623 199 599 b 102 461 141 538 118 502 b 78 331 86 420 78 377 b 102 199 78 283 86 239 b 170 94 118 158 141 123 b 276 25 199 65 234 42 b 414 0 317 8 363 0 b 553 33 461 0 508 11 b 660 128 599 56 635 87 l 663 128 l 663 6 b 649 -94 663 -30 658 -63 b 605 -175 639 -125 625 -152 b 526 -230 585 -198 559 -216 b 408 -250 494 -243 455 -250 b 266 -215 358 -250 311 -238 b 160 -131 221 -192 186 -164 z m 178 333 b 194 431 178 368 183 400 b 242 511 206 461 222 488 b 319 567 263 534 289 553 b 424 588 350 581 385 588 b 524 567 460 588 493 581 b 603 511 554 553 581 534 b 655 431 625 488 642 461 b 674 333 667 400 674 368 b 655 230 674 295 667 261 b 603 150 642 199 625 172 b 524 99 581 128 554 111 b 424 81 493 87 460 81 b 319 101 385 81 350 87 b 242 156 289 114 263 132 b 194 236 222 179 206 206 b 178 333 183 267 178 299 z m 496 1040 l 390 783 l 489 783 l 575 1040 z "},"Ĥ":{"ha":997,"x_min":0,"x_max":0,"o":"m 131 983 l 131 0 l 231 0 l 231 465 l 767 465 l 767 0 l 867 0 l 867 983 l 767 983 l 767 557 l 231 557 l 231 983 z m 704 1061 l 553 1261 l 442 1261 l 290 1061 l 382 1061 l 497 1211 l 613 1061 z "},"ĥ":{"ha":810,"x_min":0,"x_max":0,"o":"m 225 543 l 222 543 l 222 1050 l 128 1050 l 128 0 l 222 0 l 222 333 b 239 447 222 377 228 415 b 283 526 250 478 265 505 b 347 572 302 547 323 562 b 419 588 370 582 394 588 b 505 571 454 588 482 582 b 559 524 528 560 546 544 b 588 453 572 504 582 481 b 596 360 593 425 596 394 l 596 0 l 690 0 l 690 399 b 628 593 690 479 670 544 b 443 667 587 642 525 667 b 313 633 397 667 353 656 b 225 543 272 611 243 581 z m 383 1106 l 232 1306 l 121 1306 l -31 1106 l 61 1106 l 176 1256 l 292 1106 z "},"Ħ":{"ha":997,"x_min":0,"x_max":0,"o":"m 131 983 l 131 0 l 231 0 l 231 465 l 767 465 l 767 0 l 867 0 l 867 983 l 767 983 l 767 764 l 231 764 l 231 983 z m 767 557 l 231 557 l 231 694 l 767 694 z "},"ħ":{"ha":810,"x_min":0,"x_max":0,"o":"m 128 861 l 53 861 l 53 792 l 128 792 l 128 0 l 222 0 l 222 333 b 239 447 222 377 228 415 b 283 526 250 478 265 505 b 347 572 302 547 323 562 b 419 588 370 582 394 588 b 505 571 454 588 482 582 b 559 524 528 560 546 544 b 588 453 572 504 582 481 b 596 360 593 425 596 394 l 596 0 l 690 0 l 690 399 b 628 593 690 479 670 544 b 443 667 587 642 525 667 b 313 633 397 667 353 656 b 225 543 272 611 243 581 l 222 543 l 222 792 l 442 792 l 442 861 l 222 861 l 222 1050 l 128 1050 z "},"Ĩ":{"ha":361,"x_min":0,"x_max":0,"o":"m 231 0 l 231 983 l 131 983 l 131 0 z m -43 1078 l 17 1078 b 38 1126 21 1095 28 1111 b 85 1147 48 1140 63 1147 b 131 1138 100 1147 115 1144 b 178 1115 146 1131 162 1124 b 228 1093 194 1107 210 1100 b 279 1083 245 1087 263 1083 b 332 1096 300 1083 317 1088 b 369 1128 347 1104 359 1115 b 394 1174 380 1142 388 1157 b 407 1228 400 1191 404 1209 l 347 1228 b 326 1180 343 1210 335 1194 b 279 1158 316 1166 300 1158 b 235 1169 265 1158 250 1162 b 186 1190 219 1176 203 1183 b 135 1213 169 1199 153 1206 b 85 1222 118 1219 101 1222 b 31 1210 63 1222 46 1218 b -6 1177 17 1201 5 1191 b -30 1131 -16 1164 -24 1148 b -43 1078 -36 1113 -40 1095 z "},"ĩ":{"ha":347,"x_min":0,"x_max":0,"o":"m 221 0 l 221 650 l 126 650 l 126 0 z m -49 800 l 11 800 b 33 848 16 818 23 834 b 79 869 42 862 58 869 b 125 860 94 869 109 866 b 172 838 141 853 156 846 b 222 815 188 829 205 822 b 274 806 240 809 257 806 b 326 818 294 806 312 810 b 364 851 341 826 354 837 b 388 897 374 864 382 879 b 401 950 394 914 399 931 l 342 950 b 320 902 337 932 330 916 b 274 881 310 888 295 881 b 229 891 260 881 245 884 b 181 913 213 898 197 905 b 130 935 164 921 147 928 b 79 944 113 941 96 944 b 26 932 58 944 40 940 b -11 899 11 924 -1 913 b -35 853 -21 886 -29 870 b -49 800 -41 835 -46 818 z "},"Ī":{"ha":361,"x_min":0,"x_max":0,"o":"m 231 0 l 231 983 l 131 983 l 131 0 z m 369 1111 l 369 1186 l -6 1186 l -6 1111 z "},"ī":{"ha":347,"x_min":0,"x_max":0,"o":"m 221 0 l 221 650 l 126 650 l 126 0 z m 363 833 l 363 908 l -12 908 l -12 833 z "},"Į":{"ha":361,"x_min":0,"x_max":0,"o":"m 282 -260 l 256 -204 b 223 -227 246 -214 235 -222 b 185 -235 210 -232 198 -235 b 136 -216 166 -235 150 -228 b 115 -168 122 -203 115 -187 b 143 -90 115 -141 125 -115 b 222 0 162 -64 188 -34 l 231 0 l 231 983 l 131 983 l 131 0 l 156 0 b 113 -38 142 -11 127 -24 b 72 -84 98 -53 84 -68 b 43 -135 60 -100 50 -117 b 32 -192 36 -153 32 -172 b 42 -240 32 -209 35 -225 b 70 -277 49 -254 59 -266 b 110 -301 82 -288 95 -296 b 157 -310 125 -307 140 -310 b 225 -297 180 -310 203 -305 b 282 -260 247 -288 266 -275 z "},"į":{"ha":347,"x_min":0,"x_max":0,"o":"m 275 -260 l 249 -204 b 216 -227 239 -214 228 -222 b 178 -235 203 -232 191 -235 b 129 -216 159 -235 143 -228 b 108 -168 115 -203 108 -187 b 136 -90 108 -141 118 -115 b 215 0 155 -64 181 -34 l 221 0 l 221 650 l 126 650 l 126 0 l 149 0 b 106 -38 135 -11 120 -24 b 65 -84 91 -53 77 -68 b 36 -135 53 -100 44 -117 b 25 -192 29 -153 25 -172 b 35 -240 25 -209 28 -225 b 63 -277 42 -254 52 -266 b 103 -301 75 -288 88 -296 b 150 -310 118 -307 133 -310 b 218 -297 173 -310 196 -305 b 275 -260 240 -288 259 -275 z m 240 900 b 219 948 240 919 233 935 b 174 967 206 960 190 967 b 128 948 157 967 142 960 b 107 900 114 935 107 919 b 128 852 107 881 114 865 b 174 833 142 840 157 833 b 219 852 190 833 206 840 b 240 900 233 865 240 881 z "},"İ":{"ha":361,"x_min":0,"x_max":0,"o":"m 231 0 l 231 983 l 131 983 l 131 0 z m 249 1178 b 228 1226 249 1197 242 1213 b 182 1244 214 1238 199 1244 b 136 1226 165 1244 150 1238 b 115 1178 122 1213 115 1197 b 136 1130 115 1158 122 1142 b 182 1111 150 1117 165 1111 b 228 1130 199 1111 214 1117 b 249 1178 242 1142 249 1158 z "},"ı":{"ha":347,"x_min":0,"x_max":0,"o":"m 221 0 l 221 650 l 126 650 l 126 0 z "},"Ĳ":{"ha":1019,"x_min":0,"x_max":0,"o":"m 231 0 l 231 983 l 131 983 l 131 0 z m 464 200 l 371 175 b 458 31 383 117 412 69 b 635 -25 505 -6 563 -25 b 767 5 688 -25 732 -15 b 847 81 801 25 828 50 b 887 181 867 111 880 144 b 897 283 894 217 897 251 l 897 983 l 797 983 l 797 290 b 790 205 797 261 795 232 b 762 132 785 178 775 153 b 708 81 748 111 731 94 b 624 63 686 69 658 63 b 516 102 579 63 543 76 b 464 200 489 128 471 161 z "},"ĳ":{"ha":692,"x_min":0,"x_max":0,"o":"m 221 0 l 221 650 l 126 650 l 126 0 z m 240 900 b 219 948 240 919 233 935 b 174 967 206 960 190 967 b 128 948 157 967 142 960 b 107 900 114 935 107 919 b 128 852 107 881 114 865 b 174 833 142 840 157 833 b 219 852 190 833 206 840 b 240 900 233 865 240 881 z m 319 -244 l 306 -324 b 344 -331 318 -327 331 -330 b 381 -333 358 -333 370 -333 b 472 -316 418 -333 448 -328 b 528 -270 495 -304 514 -289 b 557 -205 542 -251 551 -229 b 565 -129 563 -180 565 -155 l 565 650 l 471 650 l 471 -114 b 467 -170 471 -134 470 -153 b 454 -214 465 -187 461 -202 b 426 -242 448 -226 438 -235 b 379 -253 414 -249 399 -253 b 349 -251 370 -253 360 -252 b 319 -244 339 -249 329 -247 z m 585 900 b 564 948 585 919 578 935 b 518 967 550 960 535 967 b 472 948 501 967 486 960 b 451 900 458 935 451 919 b 472 852 451 881 458 865 b 518 833 486 840 501 833 b 564 852 535 833 550 840 b 585 900 578 865 585 881 z "},"Ĵ":{"ha":683,"x_min":0,"x_max":0,"o":"m 128 200 l 35 175 b 122 31 47 117 76 69 b 299 -25 169 -6 227 -25 b 431 5 352 -25 396 -15 b 511 81 465 25 492 50 b 551 181 531 111 544 144 b 561 283 558 217 561 251 l 561 983 l 461 983 l 461 290 b 453 205 461 261 459 232 b 426 132 448 178 439 153 b 372 81 412 111 394 94 b 288 63 350 69 322 63 b 180 102 243 63 207 76 b 128 200 153 128 135 161 z m 717 1061 l 565 1261 l 454 1261 l 303 1061 l 394 1061 l 510 1211 l 625 1061 z "},"ĵ":{"ha":349,"x_min":0,"x_max":0,"o":"m -24 -244 l -37 -324 b 1 -331 -25 -327 -12 -330 b 38 -333 15 -333 27 -333 b 128 -316 75 -333 105 -328 b 185 -270 152 -304 171 -289 b 214 -205 199 -251 208 -229 b 222 -129 219 -180 222 -155 l 222 650 l 128 650 l 128 -114 b 124 -170 128 -134 127 -153 b 111 -214 122 -187 118 -202 b 83 -242 105 -226 95 -235 b 36 -253 71 -249 56 -253 b 6 -251 27 -253 17 -252 b -24 -244 -4 -249 -14 -247 z m 382 783 l 231 983 l 119 983 l -32 783 l 60 783 l 175 933 l 290 783 z "},"Ķ":{"ha":872,"x_min":0,"x_max":0,"o":"m 231 542 l 231 983 l 131 983 l 131 0 l 231 0 l 231 524 l 232 524 l 724 0 l 871 0 l 347 538 l 843 983 l 700 983 l 232 542 z m 433 -319 l 539 -62 l 440 -62 l 354 -319 z "},"ķ":{"ha":708,"x_min":0,"x_max":0,"o":"m 222 357 l 222 1050 l 128 1050 l 128 0 l 222 0 l 222 342 l 226 342 l 557 0 l 696 0 l 335 353 l 663 650 l 526 650 l 226 357 z m 351 -319 l 457 -62 l 358 -62 l 272 -319 z "},"Ĺ":{"ha":708,"x_min":0,"x_max":0,"o":"m 231 89 l 231 983 l 131 983 l 131 0 l 689 0 l 689 89 z m 221 1061 l 404 1261 l 278 1261 l 139 1061 z "},"ĺ":{"ha":350,"x_min":0,"x_max":0,"o":"m 222 0 l 222 1050 l 128 1050 l 128 0 z m 213 1100 l 396 1300 l 269 1300 l 131 1100 z "},"Ļ":{"ha":708,"x_min":0,"x_max":0,"o":"m 231 89 l 231 983 l 131 983 l 131 0 l 689 0 l 689 89 z m 376 -319 l 482 -62 l 383 -62 l 297 -319 z "},"ļ":{"ha":350,"x_min":0,"x_max":0,"o":"m 222 0 l 222 1050 l 128 1050 l 128 0 z m 143 -319 l 249 -62 l 150 -62 l 64 -319 z "},"Ľ":{"ha":708,"x_min":0,"x_max":0,"o":"m 231 89 l 231 983 l 131 983 l 131 0 l 689 0 l 689 89 z m 417 726 l 522 983 l 424 983 l 338 726 z "},"ľ":{"ha":350,"x_min":0,"x_max":0,"o":"m 222 0 l 222 1050 l 128 1050 l 128 0 z m 381 726 l 486 983 l 388 983 l 301 726 z "},"Ŀ":{"ha":708,"x_min":0,"x_max":0,"o":"m 231 89 l 231 983 l 131 983 l 131 0 l 689 0 l 689 89 z m 589 456 b 568 503 589 475 582 491 b 522 522 554 516 539 522 b 476 503 506 522 490 516 b 456 456 463 491 456 475 b 476 408 456 436 463 420 b 522 389 490 395 506 389 b 568 408 539 389 554 395 b 589 456 582 420 589 436 z "},"ŀ":{"ha":433,"x_min":0,"x_max":0,"o":"m 222 0 l 222 1050 l 128 1050 l 128 0 z m 456 456 b 435 503 456 475 449 491 b 389 522 421 516 406 522 b 343 503 372 522 357 516 b 322 456 329 491 322 475 b 343 408 322 436 329 420 b 389 389 357 395 372 389 b 435 408 406 389 421 395 b 456 456 449 420 456 436 z "},"Ł":{"ha":708,"x_min":0,"x_max":0,"o":"m 231 503 l 231 983 l 131 983 l 131 433 l 17 336 l 17 239 l 131 336 l 131 0 l 689 0 l 689 89 l 231 89 l 231 406 l 531 664 l 531 761 z "},"ł":{"ha":350,"x_min":0,"x_max":0,"o":"m 219 636 l 219 1050 l 128 1050 l 128 560 l 15 446 l 15 344 l 128 460 l 128 0 l 219 0 l 219 536 l 332 651 l 332 753 z "},"Ń":{"ha":1061,"x_min":0,"x_max":0,"o":"m 828 146 l 256 983 l 131 983 l 131 0 l 231 0 l 231 846 l 233 846 l 806 0 l 931 0 l 931 983 l 831 983 l 831 146 z m 560 1061 l 743 1261 l 617 1261 l 478 1061 z "},"ń":{"ha":807,"x_min":0,"x_max":0,"o":"m 210 650 l 119 650 b 124 575 121 628 123 603 b 125 507 125 547 125 525 l 125 0 l 219 0 l 219 333 b 236 447 219 377 225 415 b 281 526 247 478 262 505 b 344 572 299 547 320 562 b 417 588 367 582 392 588 b 502 571 451 588 479 582 b 556 524 525 560 543 544 b 585 453 570 504 579 481 b 593 360 590 425 593 394 l 593 0 l 688 0 l 688 399 b 626 593 688 479 667 544 b 440 667 584 642 523 667 b 308 631 394 667 350 655 b 218 539 267 608 237 577 l 215 539 b 214 592 215 553 215 570 b 210 650 213 613 212 632 z m 426 783 l 610 983 l 483 983 l 344 783 z "},"Ņ":{"ha":1061,"x_min":0,"x_max":0,"o":"m 828 146 l 256 983 l 131 983 l 131 0 l 231 0 l 231 846 l 233 846 l 806 0 l 931 0 l 931 983 l 831 983 l 831 146 z m 485 -319 l 590 -62 l 492 -62 l 406 -319 z "},"ņ":{"ha":807,"x_min":0,"x_max":0,"o":"m 210 650 l 119 650 b 124 575 121 628 123 603 b 125 507 125 547 125 525 l 125 0 l 219 0 l 219 333 b 236 447 219 377 225 415 b 281 526 247 478 262 505 b 344 572 299 547 320 562 b 417 588 367 582 392 588 b 502 571 451 588 479 582 b 556 524 525 560 543 544 b 585 453 570 504 579 481 b 593 360 590 425 593 394 l 593 0 l 688 0 l 688 399 b 626 593 688 479 667 544 b 440 667 584 642 523 667 b 308 631 394 667 350 655 b 218 539 267 608 237 577 l 215 539 b 214 592 215 553 215 570 b 210 650 213 613 212 632 z m 369 -319 l 475 -62 l 376 -62 l 290 -319 z "},"Ň":{"ha":1061,"x_min":0,"x_max":0,"o":"m 828 146 l 256 983 l 131 983 l 131 0 l 231 0 l 231 846 l 233 846 l 806 0 l 931 0 l 931 983 l 831 983 l 831 146 z m 588 1061 l 739 1261 l 647 1261 l 532 1111 l 417 1261 l 325 1261 l 476 1061 z "},"ň":{"ha":807,"x_min":0,"x_max":0,"o":"m 210 650 l 119 650 b 124 575 121 628 123 603 b 125 507 125 547 125 525 l 125 0 l 219 0 l 219 333 b 236 447 219 377 225 415 b 281 526 247 478 262 505 b 344 572 299 547 320 562 b 417 588 367 582 392 588 b 502 571 451 588 479 582 b 556 524 525 560 543 544 b 585 453 570 504 579 481 b 593 360 590 425 593 394 l 593 0 l 688 0 l 688 399 b 626 593 688 479 667 544 b 440 667 584 642 523 667 b 308 631 394 667 350 655 b 218 539 267 608 237 577 l 215 539 b 214 592 215 553 215 570 b 210 650 213 613 212 632 z m 463 783 l 614 983 l 522 983 l 407 833 l 292 983 l 200 983 l 351 783 z "},"ŉ":{"ha":807,"x_min":0,"x_max":0,"o":"m 210 650 l 119 650 b 124 575 121 628 123 603 b 125 507 125 547 125 525 l 125 0 l 219 0 l 219 333 b 236 447 219 377 225 415 b 281 526 247 478 262 505 b 344 572 299 547 320 562 b 417 588 367 582 392 588 b 502 571 451 588 479 582 b 556 524 525 560 543 544 b 585 453 570 504 579 481 b 593 360 590 425 593 394 l 593 0 l 688 0 l 688 399 b 626 593 688 479 667 544 b 440 667 584 642 523 667 b 308 631 394 667 350 655 b 218 539 267 608 237 577 l 215 539 b 214 592 215 553 215 570 b 210 650 213 613 212 632 z m 42 793 l 147 1050 l 49 1050 l -37 793 z "},"Ō":{"ha":1181,"x_min":0,"x_max":0,"o":"m 1103 492 b 1064 699 1103 567 1090 636 b 956 862 1038 762 1002 816 b 794 969 910 908 856 944 b 590 1008 731 995 663 1008 b 387 969 517 1008 449 995 b 224 862 324 944 270 908 b 117 699 178 816 143 762 b 78 492 91 636 78 567 b 117 285 78 417 91 348 b 224 122 143 222 178 167 b 387 14 270 76 324 40 b 590 -25 449 -12 517 -25 b 794 14 663 -25 731 -12 b 956 122 856 40 910 76 b 1064 285 1002 167 1038 222 b 1103 492 1090 348 1103 417 z m 997 492 b 969 328 997 434 988 380 b 889 192 951 276 924 231 b 760 99 854 153 811 122 b 590 64 710 75 653 64 b 420 99 527 64 471 75 b 292 192 370 122 327 153 b 211 328 256 231 230 276 b 183 492 193 380 183 434 b 211 656 183 549 193 604 b 292 792 230 707 256 753 b 420 886 327 832 370 863 b 590 921 471 909 527 921 b 760 886 653 921 710 909 b 889 792 811 863 854 832 b 969 656 924 753 951 707 b 997 492 988 604 997 549 z m 783 1111 l 783 1186 l 408 1186 l 408 1111 z "},"ō":{"ha":849,"x_min":0,"x_max":0,"o":"m 771 325 b 745 461 771 374 762 419 b 674 569 728 503 704 539 b 564 641 643 600 606 624 b 424 667 521 658 475 667 b 285 641 374 667 327 658 b 175 569 242 624 206 600 b 103 461 144 539 121 503 b 78 325 86 419 78 374 b 103 189 78 276 86 231 b 175 81 121 147 144 111 b 285 9 206 50 242 26 b 424 -17 327 -8 374 -17 b 564 9 475 -17 521 -8 b 674 81 606 26 643 50 b 745 189 704 111 728 147 b 771 325 762 231 771 276 z m 671 325 b 653 223 671 289 665 255 b 604 140 642 191 625 163 b 526 84 583 116 557 97 b 424 64 496 71 462 64 b 322 84 386 64 352 71 b 244 140 291 97 266 116 b 195 223 223 163 207 191 b 178 325 184 255 178 289 b 195 427 178 361 184 395 b 244 510 207 459 223 487 b 322 567 266 534 291 553 b 424 588 352 581 386 588 b 526 567 462 588 496 581 b 604 510 557 553 583 534 b 653 427 625 487 642 459 b 671 325 665 395 671 361 z m 614 833 l 614 908 l 239 908 l 239 833 z "},"Ŏ":{"ha":1181,"x_min":0,"x_max":0,"o":"m 1103 492 b 1064 699 1103 567 1090 636 b 956 862 1038 762 1002 816 b 794 969 910 908 856 944 b 590 1008 731 995 663 1008 b 387 969 517 1008 449 995 b 224 862 324 944 270 908 b 117 699 178 816 143 762 b 78 492 91 636 78 567 b 117 285 78 417 91 348 b 224 122 143 222 178 167 b 387 14 270 76 324 40 b 590 -25 449 -12 517 -25 b 794 14 663 -25 731 -12 b 956 122 856 40 910 76 b 1064 285 1002 167 1038 222 b 1103 492 1090 348 1103 417 z m 997 492 b 969 328 997 434 988 380 b 889 192 951 276 924 231 b 760 99 854 153 811 122 b 590 64 710 75 653 64 b 420 99 527 64 471 75 b 292 192 370 122 327 153 b 211 328 256 231 230 276 b 183 492 193 380 183 434 b 211 656 183 549 193 604 b 292 792 230 707 256 753 b 420 886 327 832 370 863 b 590 921 471 909 527 921 b 760 886 653 921 710 909 b 889 792 811 863 854 832 b 969 656 924 753 951 707 b 997 492 988 604 997 549 z m 799 1261 l 738 1261 b 688 1180 731 1225 714 1198 b 594 1153 661 1162 630 1153 b 501 1180 559 1153 528 1162 b 451 1261 475 1198 458 1225 l 390 1261 b 452 1126 394 1203 415 1158 b 594 1078 490 1094 537 1078 b 737 1126 652 1078 699 1094 b 799 1261 774 1158 795 1203 z "},"ŏ":{"ha":849,"x_min":0,"x_max":0,"o":"m 771 325 b 745 461 771 374 762 419 b 674 569 728 503 704 539 b 564 641 643 600 606 624 b 424 667 521 658 475 667 b 285 641 374 667 327 658 b 175 569 242 624 206 600 b 103 461 144 539 121 503 b 78 325 86 419 78 374 b 103 189 78 276 86 231 b 175 81 121 147 144 111 b 285 9 206 50 242 26 b 424 -17 327 -8 374 -17 b 564 9 475 -17 521 -8 b 674 81 606 26 643 50 b 745 189 704 111 728 147 b 771 325 762 231 771 276 z m 671 325 b 653 223 671 289 665 255 b 604 140 642 191 625 163 b 526 84 583 116 557 97 b 424 64 496 71 462 64 b 322 84 386 64 352 71 b 244 140 291 97 266 116 b 195 223 223 163 207 191 b 178 325 184 255 178 289 b 195 427 178 361 184 395 b 244 510 207 459 223 487 b 322 567 266 534 291 553 b 424 588 352 581 386 588 b 526 567 462 588 496 581 b 604 510 557 553 583 534 b 653 427 625 487 642 459 b 671 325 665 395 671 361 z m 631 983 l 569 983 b 519 902 563 947 546 920 b 426 875 493 884 462 875 b 333 902 391 875 360 884 b 283 983 306 920 290 947 l 222 983 b 284 848 226 925 247 880 b 426 800 322 816 369 800 b 569 848 484 800 531 816 b 631 983 606 880 627 925 z "},"Ő":{"ha":1181,"x_min":0,"x_max":0,"o":"m 1103 492 b 1064 699 1103 567 1090 636 b 956 862 1038 762 1002 816 b 794 969 910 908 856 944 b 590 1008 731 995 663 1008 b 387 969 517 1008 449 995 b 224 862 324 944 270 908 b 117 699 178 816 143 762 b 78 492 91 636 78 567 b 117 285 78 417 91 348 b 224 122 143 222 178 167 b 387 14 270 76 324 40 b 590 -25 449 -12 517 -25 b 794 14 663 -25 731 -12 b 956 122 856 40 910 76 b 1064 285 1002 167 1038 222 b 1103 492 1090 348 1103 417 z m 997 492 b 969 328 997 434 988 380 b 889 192 951 276 924 231 b 760 99 854 153 811 122 b 590 64 710 75 653 64 b 420 99 527 64 471 75 b 292 192 370 122 327 153 b 211 328 256 231 230 276 b 183 492 193 380 183 434 b 211 656 183 549 193 604 b 292 792 230 707 256 753 b 420 886 327 832 370 863 b 590 921 471 909 527 921 b 760 886 653 921 710 909 b 889 792 811 863 854 832 b 969 656 924 753 951 707 b 997 492 988 604 997 549 z m 511 1061 l 696 1261 l 569 1261 l 429 1061 z m 749 1061 l 932 1261 l 806 1261 l 667 1061 z "},"ő":{"ha":849,"x_min":0,"x_max":0,"o":"m 771 325 b 745 461 771 374 762 419 b 674 569 728 503 704 539 b 564 641 643 600 606 624 b 424 667 521 658 475 667 b 285 641 374 667 327 658 b 175 569 242 624 206 600 b 103 461 144 539 121 503 b 78 325 86 419 78 374 b 103 189 78 276 86 231 b 175 81 121 147 144 111 b 285 9 206 50 242 26 b 424 -17 327 -8 374 -17 b 564 9 475 -17 521 -8 b 674 81 606 26 643 50 b 745 189 704 111 728 147 b 771 325 762 231 771 276 z m 671 325 b 653 223 671 289 665 255 b 604 140 642 191 625 163 b 526 84 583 116 557 97 b 424 64 496 71 462 64 b 322 84 386 64 352 71 b 244 140 291 97 266 116 b 195 223 223 163 207 191 b 178 325 184 255 178 289 b 195 427 178 361 184 395 b 244 510 207 459 223 487 b 322 567 266 534 291 553 b 424 588 352 581 386 588 b 526 567 462 588 496 581 b 604 510 557 553 583 534 b 653 427 625 487 642 459 b 671 325 665 395 671 361 z m 354 783 l 539 983 l 413 983 l 272 783 z m 592 783 l 775 983 l 649 983 l 510 783 z "},"Ŕ":{"ha":832,"x_min":0,"x_max":0,"o":"m 231 0 l 231 460 l 397 460 l 669 0 l 792 0 l 504 468 b 604 493 540 472 574 480 b 683 545 635 506 661 523 b 736 622 706 567 723 593 b 756 721 749 652 756 685 b 731 843 756 769 747 810 b 660 924 714 876 691 903 b 553 969 630 945 595 960 b 419 983 512 979 468 983 l 131 983 l 131 0 z m 231 546 l 231 897 l 408 897 b 510 888 445 897 479 894 b 588 857 540 881 566 871 b 638 803 609 843 625 825 b 656 721 650 781 656 753 b 590 590 656 663 634 619 b 404 546 547 560 485 546 z m 403 1061 l 586 1261 l 460 1261 l 321 1061 z "},"ŕ":{"ha":500,"x_min":0,"x_max":0,"o":"m 125 507 l 125 0 l 219 0 l 219 333 b 235 445 219 377 225 414 b 277 522 246 476 260 502 b 338 565 294 541 314 556 b 410 579 361 575 385 579 b 449 576 423 579 436 578 b 476 571 462 575 471 573 l 489 660 b 459 665 479 663 469 664 b 426 667 449 666 438 667 b 301 631 380 667 338 655 b 218 539 264 608 237 577 l 215 539 b 214 592 215 553 215 570 b 210 650 213 613 212 632 l 119 650 b 124 575 121 628 123 603 b 125 507 125 547 125 525 z m 243 783 l 426 983 l 300 983 l 161 783 z "},"Ŗ":{"ha":832,"x_min":0,"x_max":0,"o":"m 231 0 l 231 460 l 397 460 l 669 0 l 792 0 l 504 468 b 604 493 540 472 574 480 b 683 545 635 506 661 523 b 736 622 706 567 723 593 b 756 721 749 652 756 685 b 731 843 756 769 747 810 b 660 924 714 876 691 903 b 553 969 630 945 595 960 b 419 983 512 979 468 983 l 131 983 l 131 0 z m 231 546 l 231 897 l 408 897 b 510 888 445 897 479 894 b 588 857 540 881 566 871 b 638 803 609 843 625 825 b 656 721 650 781 656 753 b 590 590 656 663 634 619 b 404 546 547 560 485 546 z m 403 -319 l 508 -62 l 410 -62 l 324 -319 z "},"ŗ":{"ha":500,"x_min":0,"x_max":0,"o":"m 125 507 l 125 0 l 219 0 l 219 333 b 235 445 219 377 225 414 b 277 522 246 476 260 502 b 338 565 294 541 314 556 b 410 579 361 575 385 579 b 449 576 423 579 436 578 b 476 571 462 575 471 573 l 489 660 b 459 665 479 663 469 664 b 426 667 449 666 438 667 b 301 631 380 667 338 655 b 218 539 264 608 237 577 l 215 539 b 214 592 215 553 215 570 b 210 650 213 613 212 632 l 119 650 b 124 575 121 628 123 603 b 125 507 125 547 125 525 z m 139 -319 l 244 -62 l 146 -62 l 60 -319 z "},"Ř":{"ha":832,"x_min":0,"x_max":0,"o":"m 231 0 l 231 460 l 397 460 l 669 0 l 792 0 l 504 468 b 604 493 540 472 574 480 b 683 545 635 506 661 523 b 736 622 706 567 723 593 b 756 721 749 652 756 685 b 731 843 756 769 747 810 b 660 924 714 876 691 903 b 553 969 630 945 595 960 b 419 983 512 979 468 983 l 131 983 l 131 0 z m 231 546 l 231 897 l 408 897 b 510 888 445 897 479 894 b 588 857 540 881 566 871 b 638 803 609 843 625 825 b 656 721 650 781 656 753 b 590 590 656 663 634 619 b 404 546 547 560 485 546 z m 456 1061 l 607 1261 l 515 1261 l 400 1111 l 285 1261 l 193 1261 l 344 1061 z "},"ř":{"ha":500,"x_min":0,"x_max":0,"o":"m 125 507 l 125 0 l 219 0 l 219 333 b 235 445 219 377 225 414 b 277 522 246 476 260 502 b 338 565 294 541 314 556 b 410 579 361 575 385 579 b 449 576 423 579 436 578 b 476 571 462 575 471 573 l 489 660 b 459 665 479 663 469 664 b 426 667 449 666 438 667 b 301 631 380 667 338 655 b 218 539 264 608 237 577 l 215 539 b 214 592 215 553 215 570 b 210 650 213 613 212 632 l 119 650 b 124 575 121 628 123 603 b 125 507 125 547 125 525 z m 354 783 l 506 983 l 414 983 l 299 833 l 183 983 l 92 983 l 243 783 z "},"Ś":{"ha":783,"x_min":0,"x_max":0,"o":"m 607 825 l 686 889 b 579 973 662 921 626 949 b 408 1008 532 997 475 1008 b 299 993 372 1008 336 1003 b 197 944 262 983 228 967 b 123 860 167 922 142 894 b 94 738 104 825 94 785 b 117 625 94 693 102 656 b 178 548 133 594 153 569 b 263 497 203 527 231 510 b 358 463 294 484 326 473 b 449 432 390 452 420 442 b 525 394 477 422 503 409 b 578 337 547 378 565 359 b 599 251 592 314 599 286 b 578 169 599 220 592 192 b 527 109 565 145 548 125 b 457 73 506 93 483 81 b 381 61 431 65 406 61 b 245 97 329 61 284 73 b 156 185 207 120 177 150 l 69 121 b 131 57 87 97 107 75 b 206 11 154 38 179 23 b 290 -16 232 -1 261 -10 b 379 -25 320 -22 350 -25 b 495 -8 418 -25 457 -19 b 598 43 534 3 568 20 b 672 131 628 66 653 96 b 700 258 691 167 700 209 b 674 380 700 307 691 348 b 606 459 656 412 633 438 b 512 510 578 480 547 497 b 408 546 477 523 443 535 b 328 574 381 555 354 564 b 260 609 303 583 280 595 b 213 661 241 623 225 641 b 194 739 200 681 194 707 b 213 821 194 770 201 798 b 263 878 226 844 242 863 b 331 913 283 894 306 905 b 404 924 356 920 380 924 b 525 897 451 924 492 915 b 607 825 558 878 586 855 z m 419 1061 l 603 1261 l 476 1261 l 338 1061 z "},"ś":{"ha":617,"x_min":0,"x_max":0,"o":"m 471 496 l 543 550 b 447 636 522 587 490 616 b 315 667 405 656 361 667 b 229 656 286 667 257 663 b 155 622 201 648 177 637 b 103 563 133 606 116 587 b 83 478 90 540 83 511 b 101 401 83 447 89 422 b 147 351 113 381 129 364 b 208 320 166 337 186 327 b 269 303 229 313 250 307 b 412 255 331 288 379 272 b 461 178 445 238 461 212 b 449 124 461 156 457 139 b 415 89 440 110 429 98 b 367 69 401 80 385 73 b 308 64 348 66 329 64 b 201 93 269 64 234 74 b 128 165 169 113 144 137 l 53 110 b 167 14 82 66 120 34 b 310 -17 213 -6 261 -17 b 398 -6 339 -17 369 -13 b 476 28 427 1 453 12 b 533 91 500 45 518 66 b 554 185 547 116 554 148 b 499 306 554 236 536 276 b 329 375 463 336 406 359 b 211 416 275 386 236 400 b 174 486 186 432 174 456 b 185 532 174 504 178 519 b 217 564 193 545 204 556 b 261 582 230 572 244 578 b 311 588 278 586 294 588 b 408 562 347 588 379 579 b 471 496 436 545 457 523 z m 344 783 l 528 983 l 401 983 l 263 783 z "},"Ŝ":{"ha":783,"x_min":0,"x_max":0,"o":"m 607 825 l 686 889 b 579 973 662 921 626 949 b 408 1008 532 997 475 1008 b 299 993 372 1008 336 1003 b 197 944 262 983 228 967 b 123 860 167 922 142 894 b 94 738 104 825 94 785 b 117 625 94 693 102 656 b 178 548 133 594 153 569 b 263 497 203 527 231 510 b 358 463 294 484 326 473 b 449 432 390 452 420 442 b 525 394 477 422 503 409 b 578 337 547 378 565 359 b 599 251 592 314 599 286 b 578 169 599 220 592 192 b 527 109 565 145 548 125 b 457 73 506 93 483 81 b 381 61 431 65 406 61 b 245 97 329 61 284 73 b 156 185 207 120 177 150 l 69 121 b 131 57 87 97 107 75 b 206 11 154 38 179 23 b 290 -16 232 -1 261 -10 b 379 -25 320 -22 350 -25 b 495 -8 418 -25 457 -19 b 598 43 534 3 568 20 b 672 131 628 66 653 96 b 700 258 691 167 700 209 b 674 380 700 307 691 348 b 606 459 656 412 633 438 b 512 510 578 480 547 497 b 408 546 477 523 443 535 b 328 574 381 555 354 564 b 260 609 303 583 280 595 b 213 661 241 623 225 641 b 194 739 200 681 194 707 b 213 821 194 770 201 798 b 263 878 226 844 242 863 b 331 913 283 894 306 905 b 404 924 356 920 380 924 b 525 897 451 924 492 915 b 607 825 558 878 586 855 z m 614 1061 l 463 1261 l 351 1261 l 200 1061 l 292 1061 l 407 1211 l 522 1061 z "},"ŝ":{"ha":617,"x_min":0,"x_max":0,"o":"m 471 496 l 543 550 b 447 636 522 587 490 616 b 315 667 405 656 361 667 b 229 656 286 667 257 663 b 155 622 201 648 177 637 b 103 563 133 606 116 587 b 83 478 90 540 83 511 b 101 401 83 447 89 422 b 147 351 113 381 129 364 b 208 320 166 337 186 327 b 269 303 229 313 250 307 b 412 255 331 288 379 272 b 461 178 445 238 461 212 b 449 124 461 156 457 139 b 415 89 440 110 429 98 b 367 69 401 80 385 73 b 308 64 348 66 329 64 b 201 93 269 64 234 74 b 128 165 169 113 144 137 l 53 110 b 167 14 82 66 120 34 b 310 -17 213 -6 261 -17 b 398 -6 339 -17 369 -13 b 476 28 427 1 453 12 b 533 91 500 45 518 66 b 554 185 547 116 554 148 b 499 306 554 236 536 276 b 329 375 463 336 406 359 b 211 416 275 386 236 400 b 174 486 186 432 174 456 b 185 532 174 504 178 519 b 217 564 193 545 204 556 b 261 582 230 572 244 578 b 311 588 278 586 294 588 b 408 562 347 588 379 579 b 471 496 436 545 457 523 z m 526 783 l 375 983 l 264 983 l 113 783 l 204 783 l 319 933 l 435 783 z "},"Ş":{"ha":783,"x_min":0,"x_max":0,"o":"m 607 825 l 686 889 b 579 973 662 921 626 949 b 408 1008 532 997 475 1008 b 299 993 372 1008 336 1003 b 197 944 262 983 228 967 b 123 860 167 922 142 894 b 94 738 104 825 94 785 b 117 625 94 693 102 656 b 178 548 133 594 153 569 b 263 497 203 527 231 510 b 358 463 294 484 326 473 b 449 432 390 452 420 442 b 525 394 477 422 503 409 b 578 337 547 378 565 359 b 599 251 592 314 599 286 b 578 169 599 220 592 192 b 527 109 565 145 548 125 b 457 73 506 93 483 81 b 381 61 431 65 406 61 b 245 97 329 61 284 73 b 156 185 207 120 177 150 l 69 121 b 195 16 102 75 144 40 b 356 -24 247 -8 300 -21 l 285 -136 l 310 -157 b 369 -146 329 -150 349 -146 b 424 -159 393 -146 411 -150 b 444 -200 438 -168 444 -181 b 435 -228 444 -211 441 -221 b 411 -248 428 -236 420 -243 b 382 -258 402 -253 392 -256 b 356 -261 372 -260 363 -261 b 304 -257 338 -261 321 -260 b 256 -242 288 -254 271 -249 l 233 -292 b 299 -312 253 -301 275 -308 b 364 -319 324 -317 345 -319 b 421 -314 382 -319 401 -318 b 474 -294 440 -310 458 -304 b 513 -257 489 -285 502 -273 b 528 -199 523 -241 528 -222 b 492 -124 528 -165 516 -140 b 414 -99 468 -107 442 -99 b 365 -104 394 -99 377 -100 l 415 -24 b 521 0 451 -21 487 -13 b 612 54 555 13 585 31 b 676 140 638 77 659 106 b 700 258 692 173 700 213 b 674 380 700 307 691 348 b 606 459 656 412 633 438 b 512 510 578 480 547 497 b 408 546 477 523 443 535 b 328 574 381 555 354 564 b 260 609 303 583 280 595 b 213 661 241 623 225 641 b 194 739 200 681 194 707 b 213 821 194 770 201 798 b 263 878 226 844 242 863 b 331 913 283 894 306 905 b 404 924 356 920 380 924 b 525 897 451 924 492 915 b 607 825 558 878 586 855 z "},"ş":{"ha":617,"x_min":0,"x_max":0,"o":"m 471 496 l 543 550 b 447 636 522 587 490 616 b 315 667 405 656 361 667 b 229 656 286 667 257 663 b 155 622 201 648 177 637 b 103 563 133 606 116 587 b 83 478 90 540 83 511 b 101 401 83 447 89 422 b 147 351 113 381 129 364 b 208 320 166 337 186 327 b 269 303 229 313 250 307 b 412 255 331 288 379 272 b 461 178 445 238 461 212 b 449 124 461 156 457 139 b 415 89 440 110 429 98 b 367 69 401 80 385 73 b 308 64 348 66 329 64 b 201 93 269 64 234 74 b 128 165 169 113 144 137 l 53 110 b 157 18 81 68 115 38 b 288 -15 199 -1 242 -12 l 213 -136 l 238 -157 b 297 -146 257 -150 277 -146 b 352 -159 320 -146 339 -150 b 372 -200 366 -168 372 -181 b 363 -228 372 -211 369 -221 b 339 -248 356 -236 348 -243 b 310 -258 330 -253 320 -256 b 283 -261 300 -260 291 -261 b 232 -257 266 -261 249 -260 b 183 -242 215 -254 199 -249 l 161 -292 b 227 -312 181 -301 203 -308 b 292 -319 252 -317 273 -319 b 349 -314 310 -319 329 -318 b 401 -294 368 -310 386 -304 b 440 -257 417 -285 430 -273 b 456 -199 450 -241 456 -222 b 419 -124 456 -165 444 -140 b 342 -99 395 -107 369 -99 b 293 -104 321 -99 305 -100 l 349 -14 b 426 3 375 -11 401 -5 b 491 40 450 12 472 25 b 537 99 510 56 525 76 b 554 185 548 123 554 151 b 499 306 554 236 536 276 b 329 375 463 336 406 359 b 211 416 275 386 236 400 b 174 486 186 432 174 456 b 185 532 174 504 178 519 b 217 564 193 545 204 556 b 261 582 230 572 244 578 b 311 588 278 586 294 588 b 408 562 347 588 379 579 b 471 496 436 545 457 523 z "},"Ţ":{"ha":792,"x_min":0,"x_max":0,"o":"m 446 0 l 446 894 l 775 894 l 775 983 l 17 983 l 17 894 l 346 894 l 346 0 l 372 0 l 286 -136 l 311 -157 b 371 -146 331 -150 350 -146 b 426 -159 394 -146 412 -150 b 446 -200 439 -168 446 -181 b 436 -228 446 -211 443 -221 b 413 -248 430 -236 422 -243 b 383 -258 403 -253 394 -256 b 357 -261 373 -260 364 -261 b 306 -257 339 -261 322 -260 b 257 -242 289 -254 273 -249 l 235 -292 b 301 -312 254 -301 276 -308 b 365 -319 325 -317 347 -319 b 422 -314 384 -319 403 -318 b 475 -294 442 -310 459 -304 b 514 -257 491 -285 504 -273 b 529 -199 524 -241 529 -222 b 493 -124 529 -165 517 -140 b 415 -99 469 -107 443 -99 b 367 -104 395 -99 379 -100 l 432 0 z "},"ţ":{"ha":440,"x_min":0,"x_max":0,"o":"m 418 571 l 418 650 l 235 650 l 235 833 l 140 833 l 140 650 l 6 650 l 6 571 l 140 571 l 140 165 b 153 87 140 134 144 108 b 185 35 161 66 172 49 b 230 6 199 22 214 12 b 279 -7 246 -1 263 -5 l 197 -136 l 222 -157 b 282 -146 242 -150 262 -146 b 337 -159 305 -146 323 -150 b 357 -200 350 -168 357 -181 b 347 -228 357 -211 354 -221 b 324 -248 341 -236 333 -243 b 294 -258 314 -253 305 -256 b 268 -261 284 -260 275 -261 b 217 -257 250 -261 233 -260 b 168 -242 200 -254 184 -249 l 146 -292 b 212 -312 165 -301 187 -308 b 276 -319 236 -317 258 -319 b 333 -314 295 -319 314 -318 b 386 -294 353 -310 370 -304 b 425 -257 402 -285 415 -273 b 440 -199 435 -241 440 -222 b 404 -124 440 -165 428 -140 b 326 -99 380 -107 354 -99 b 278 -104 306 -99 290 -100 l 338 -7 b 418 11 368 -4 395 2 l 414 93 b 373 78 401 87 387 81 b 332 72 359 74 345 72 b 293 77 318 72 305 74 b 262 95 281 80 271 86 b 242 132 253 104 246 116 b 235 192 237 148 235 168 l 235 571 z "},"Ť":{"ha":792,"x_min":0,"x_max":0,"o":"m 446 0 l 446 894 l 775 894 l 775 983 l 17 983 l 17 894 l 346 894 l 346 0 z m 451 1061 l 603 1261 l 511 1261 l 396 1111 l 281 1261 l 189 1261 l 340 1061 z "},"ť":{"ha":440,"x_min":0,"x_max":0,"o":"m 418 571 l 418 650 l 235 650 l 235 833 l 140 833 l 140 650 l 6 650 l 6 571 l 140 571 l 140 165 b 156 78 140 129 146 100 b 197 25 167 56 181 38 b 251 -1 214 12 232 3 b 307 -8 271 -6 289 -8 b 366 -3 328 -8 348 -7 b 418 11 384 0 401 5 l 414 93 b 373 78 401 87 387 81 b 332 72 359 74 345 72 b 293 77 318 72 305 74 b 262 95 281 80 271 86 b 242 132 253 104 246 116 b 235 192 237 148 235 168 l 235 571 z m 392 758 l 497 1015 l 399 1015 l 313 758 z "},"Ŧ":{"ha":792,"x_min":0,"x_max":0,"o":"m 346 754 l 101 754 l 101 685 l 346 685 l 346 0 l 446 0 l 446 685 l 676 685 l 676 754 l 446 754 l 446 894 l 775 894 l 775 983 l 17 983 l 17 894 l 346 894 z "},"ŧ":{"ha":440,"x_min":0,"x_max":0,"o":"m 140 436 l 17 436 l 17 367 l 140 367 l 140 165 b 156 78 140 129 146 100 b 197 25 167 56 181 38 b 251 -1 214 12 232 3 b 307 -8 271 -6 289 -8 b 366 -3 328 -8 348 -7 b 418 11 384 0 401 5 l 414 93 b 373 78 401 87 387 81 b 332 72 359 74 345 72 b 293 77 318 72 305 74 b 262 95 281 80 271 86 b 242 132 253 104 246 116 b 235 192 237 148 235 168 l 235 367 l 406 367 l 406 436 l 235 436 l 235 571 l 418 571 l 418 650 l 235 650 l 235 833 l 140 833 l 140 650 l 6 650 l 6 571 l 140 571 z "},"Ũ":{"ha":986,"x_min":0,"x_max":0,"o":"m 493 -25 b 674 13 566 -25 627 -12 b 788 110 722 39 760 71 b 845 237 815 149 834 191 b 861 367 856 283 861 326 l 861 983 l 761 983 l 761 378 b 747 262 761 338 756 299 b 702 162 738 224 723 191 b 619 91 681 133 654 109 b 493 64 585 73 543 64 b 367 91 443 64 401 73 b 284 162 332 109 305 133 b 239 262 263 191 248 224 b 225 378 230 299 225 338 l 225 983 l 125 983 l 125 367 b 141 237 125 326 130 283 b 199 110 152 191 171 149 b 311 13 226 71 264 39 b 493 -25 358 -12 419 -25 z m 268 1078 l 328 1078 b 349 1126 332 1095 340 1111 b 396 1147 359 1140 375 1147 b 442 1138 411 1147 426 1144 b 489 1115 457 1131 473 1124 b 539 1093 505 1107 521 1100 b 590 1083 556 1087 574 1083 b 643 1096 611 1083 628 1088 b 681 1128 658 1104 670 1115 b 705 1174 691 1142 699 1157 b 718 1228 711 1191 715 1209 l 658 1228 b 637 1180 654 1210 647 1194 b 590 1158 627 1166 612 1158 b 546 1169 576 1158 562 1162 b 497 1190 530 1176 514 1183 b 447 1213 481 1199 464 1206 b 396 1222 429 1219 413 1222 b 342 1210 375 1222 357 1218 b 306 1177 328 1201 316 1191 b 281 1131 295 1164 287 1148 b 268 1078 275 1113 271 1095 z "},"ũ":{"ha":807,"x_min":0,"x_max":0,"o":"m 597 0 l 688 0 b 683 75 686 22 684 47 b 682 143 682 103 682 125 l 682 650 l 588 650 l 588 317 b 571 203 588 273 582 235 b 526 124 560 172 545 145 b 463 78 508 103 487 88 b 390 63 440 68 415 63 b 305 79 356 63 328 68 b 251 126 282 90 264 106 b 222 197 237 146 228 169 b 214 290 217 225 214 256 l 214 650 l 119 650 l 119 251 b 181 57 119 171 140 106 b 367 -17 222 8 284 -17 b 499 19 413 -17 457 -5 b 589 111 540 42 570 73 l 592 111 b 593 58 592 97 592 80 b 597 0 594 37 595 18 z m 179 800 l 239 800 b 260 848 244 818 251 834 b 307 869 270 862 286 869 b 353 860 322 869 337 866 b 400 838 369 853 384 846 b 450 815 416 829 432 822 b 501 806 468 809 485 806 b 554 818 522 806 539 810 b 592 851 569 826 581 837 b 616 897 602 864 610 879 b 629 950 622 914 626 931 l 569 950 b 548 902 565 932 558 916 b 501 881 538 888 523 881 b 457 891 488 881 473 884 b 408 913 441 898 425 905 b 358 935 392 921 375 928 b 307 944 341 941 324 944 b 253 932 286 944 268 940 b 217 899 239 924 227 913 b 192 853 206 886 198 870 b 179 800 186 835 182 818 z "},"Ū":{"ha":986,"x_min":0,"x_max":0,"o":"m 493 -25 b 674 13 566 -25 627 -12 b 788 110 722 39 760 71 b 845 237 815 149 834 191 b 861 367 856 283 861 326 l 861 983 l 761 983 l 761 378 b 747 262 761 338 756 299 b 702 162 738 224 723 191 b 619 91 681 133 654 109 b 493 64 585 73 543 64 b 367 91 443 64 401 73 b 284 162 332 109 305 133 b 239 262 263 191 248 224 b 225 378 230 299 225 338 l 225 983 l 125 983 l 125 367 b 141 237 125 326 130 283 b 199 110 152 191 171 149 b 311 13 226 71 264 39 b 493 -25 358 -12 419 -25 z m 682 1111 l 682 1186 l 307 1186 l 307 1111 z "},"ū":{"ha":807,"x_min":0,"x_max":0,"o":"m 597 0 l 688 0 b 683 75 686 22 684 47 b 682 143 682 103 682 125 l 682 650 l 588 650 l 588 317 b 571 203 588 273 582 235 b 526 124 560 172 545 145 b 463 78 508 103 487 88 b 390 63 440 68 415 63 b 305 79 356 63 328 68 b 251 126 282 90 264 106 b 222 197 237 146 228 169 b 214 290 217 225 214 256 l 214 650 l 119 650 l 119 251 b 181 57 119 171 140 106 b 367 -17 222 8 284 -17 b 499 19 413 -17 457 -5 b 589 111 540 42 570 73 l 592 111 b 593 58 592 97 592 80 b 597 0 594 37 595 18 z m 590 833 l 590 908 l 215 908 l 215 833 z "},"Ŭ":{"ha":986,"x_min":0,"x_max":0,"o":"m 493 -25 b 674 13 566 -25 627 -12 b 788 110 722 39 760 71 b 845 237 815 149 834 191 b 861 367 856 283 861 326 l 861 983 l 761 983 l 761 378 b 747 262 761 338 756 299 b 702 162 738 224 723 191 b 619 91 681 133 654 109 b 493 64 585 73 543 64 b 367 91 443 64 401 73 b 284 162 332 109 305 133 b 239 262 263 191 248 224 b 225 378 230 299 225 338 l 225 983 l 125 983 l 125 367 b 141 237 125 326 130 283 b 199 110 152 191 171 149 b 311 13 226 71 264 39 b 493 -25 358 -12 419 -25 z m 697 1261 l 636 1261 b 586 1180 630 1225 613 1198 b 493 1153 559 1162 528 1153 b 400 1180 458 1153 427 1162 b 350 1261 373 1198 356 1225 l 289 1261 b 351 1126 293 1203 313 1158 b 493 1078 388 1094 436 1078 b 635 1126 550 1078 598 1094 b 697 1261 673 1158 694 1203 z "},"ŭ":{"ha":807,"x_min":0,"x_max":0,"o":"m 597 0 l 688 0 b 683 75 686 22 684 47 b 682 143 682 103 682 125 l 682 650 l 588 650 l 588 317 b 571 203 588 273 582 235 b 526 124 560 172 545 145 b 463 78 508 103 487 88 b 390 63 440 68 415 63 b 305 79 356 63 328 68 b 251 126 282 90 264 106 b 222 197 237 146 228 169 b 214 290 217 225 214 256 l 214 650 l 119 650 l 119 251 b 181 57 119 171 140 106 b 367 -17 222 8 284 -17 b 499 19 413 -17 457 -5 b 589 111 540 42 570 73 l 592 111 b 593 58 592 97 592 80 b 597 0 594 37 595 18 z m 610 983 l 549 983 b 499 902 542 947 525 920 b 406 875 472 884 441 875 b 313 902 370 875 339 884 b 263 983 286 920 269 947 l 201 983 b 263 848 205 925 226 880 b 406 800 301 816 348 800 b 548 848 463 800 510 816 b 610 983 585 880 606 925 z "},"Ů":{"ha":986,"x_min":0,"x_max":0,"o":"m 493 -25 b 674 13 566 -25 627 -12 b 788 110 722 39 760 71 b 845 237 815 149 834 191 b 861 367 856 283 861 326 l 861 983 l 761 983 l 761 378 b 747 262 761 338 756 299 b 702 162 738 224 723 191 b 619 91 681 133 654 109 b 493 64 585 73 543 64 b 367 91 443 64 401 73 b 284 162 332 109 305 133 b 239 262 263 191 248 224 b 225 378 230 299 225 338 l 225 983 l 125 983 l 125 367 b 141 237 125 326 130 283 b 199 110 152 191 171 149 b 311 13 226 71 264 39 b 493 -25 358 -12 419 -25 z m 629 1181 b 619 1233 629 1199 626 1216 b 590 1274 612 1249 602 1263 b 547 1302 577 1286 563 1295 b 496 1313 530 1309 513 1313 b 444 1302 477 1313 460 1309 b 402 1274 429 1295 415 1286 b 373 1233 390 1263 380 1249 b 363 1181 366 1216 363 1199 b 373 1128 363 1162 366 1145 b 402 1086 380 1112 390 1098 b 444 1058 415 1074 429 1065 b 496 1049 460 1052 477 1049 b 547 1058 513 1049 530 1052 b 590 1086 563 1065 577 1074 b 619 1128 602 1098 612 1112 b 629 1181 626 1145 629 1162 z m 579 1181 b 555 1122 579 1157 571 1138 b 496 1099 539 1106 519 1099 b 437 1122 473 1099 453 1106 b 413 1181 421 1138 413 1157 b 437 1239 413 1204 421 1223 b 496 1263 453 1255 473 1263 b 555 1239 519 1263 539 1255 b 579 1181 571 1223 579 1204 z "},"ů":{"ha":807,"x_min":0,"x_max":0,"o":"m 597 0 l 688 0 b 683 75 686 22 684 47 b 682 143 682 103 682 125 l 682 650 l 588 650 l 588 317 b 571 203 588 273 582 235 b 526 124 560 172 545 145 b 463 78 508 103 487 88 b 390 63 440 68 415 63 b 305 79 356 63 328 68 b 251 126 282 90 264 106 b 222 197 237 146 228 169 b 214 290 217 225 214 256 l 214 650 l 119 650 l 119 251 b 181 57 119 171 140 106 b 367 -17 222 8 284 -17 b 499 19 413 -17 457 -5 b 589 111 540 42 570 73 l 592 111 b 593 58 592 97 592 80 b 597 0 594 37 595 18 z m 536 903 b 526 955 536 921 533 939 b 497 997 519 971 509 985 b 453 1024 484 1008 470 1017 b 403 1035 437 1031 420 1035 b 351 1024 384 1035 367 1031 b 309 997 336 1017 322 1008 b 280 955 297 985 287 971 b 269 903 273 939 269 921 b 280 851 269 884 273 867 b 309 808 287 834 297 820 b 351 781 322 796 336 787 b 403 771 367 774 384 771 b 453 781 420 771 437 774 b 497 808 470 787 484 796 b 526 851 509 820 519 834 b 536 903 533 867 536 884 z m 486 903 b 462 844 486 880 478 860 b 403 821 446 829 426 821 b 344 844 380 821 360 829 b 319 903 328 860 319 880 b 344 961 319 926 328 945 b 403 985 360 977 380 985 b 462 961 426 985 446 977 b 486 903 478 945 486 926 z "},"Ű":{"ha":986,"x_min":0,"x_max":0,"o":"m 493 -25 b 674 13 566 -25 627 -12 b 788 110 722 39 760 71 b 845 237 815 149 834 191 b 861 367 856 283 861 326 l 861 983 l 761 983 l 761 378 b 747 262 761 338 756 299 b 702 162 738 224 723 191 b 619 91 681 133 654 109 b 493 64 585 73 543 64 b 367 91 443 64 401 73 b 284 162 332 109 305 133 b 239 262 263 191 248 224 b 225 378 230 299 225 338 l 225 983 l 125 983 l 125 367 b 141 237 125 326 130 283 b 199 110 152 191 171 149 b 311 13 226 71 264 39 b 493 -25 358 -12 419 -25 z m 406 1061 l 590 1261 l 464 1261 l 324 1061 z m 643 1061 l 826 1261 l 700 1261 l 561 1061 z "},"ű":{"ha":807,"x_min":0,"x_max":0,"o":"m 597 0 l 688 0 b 683 75 686 22 684 47 b 682 143 682 103 682 125 l 682 650 l 588 650 l 588 317 b 571 203 588 273 582 235 b 526 124 560 172 545 145 b 463 78 508 103 487 88 b 390 63 440 68 415 63 b 305 79 356 63 328 68 b 251 126 282 90 264 106 b 222 197 237 146 228 169 b 214 290 217 225 214 256 l 214 650 l 119 650 l 119 251 b 181 57 119 171 140 106 b 367 -17 222 8 284 -17 b 499 19 413 -17 457 -5 b 589 111 540 42 570 73 l 592 111 b 593 58 592 97 592 80 b 597 0 594 37 595 18 z m 318 783 l 503 983 l 376 983 l 236 783 z m 556 783 l 739 983 l 613 983 l 474 783 z "},"Ų":{"ha":986,"x_min":0,"x_max":0,"o":"m 493 -25 l 493 -25 l 500 -25 b 435 -100 476 -46 454 -71 b 406 -192 415 -129 406 -159 b 416 -240 406 -209 409 -225 b 444 -277 423 -254 432 -266 b 483 -301 455 -288 469 -296 b 531 -310 498 -307 514 -310 b 599 -297 554 -310 576 -305 b 656 -260 621 -288 640 -275 l 629 -204 b 597 -227 620 -214 609 -222 b 558 -235 584 -232 571 -235 b 510 -216 540 -235 524 -228 b 489 -168 496 -203 489 -187 b 512 -97 489 -143 497 -119 b 578 -18 527 -74 549 -48 b 716 38 633 -9 679 10 b 803 134 753 65 782 97 b 849 250 825 171 840 209 b 861 367 857 291 861 330 l 861 983 l 761 983 l 761 378 b 747 262 761 338 756 299 b 702 162 738 224 723 191 b 619 91 681 133 654 109 b 493 64 585 73 543 64 b 367 91 443 64 401 73 b 284 162 332 109 305 133 b 239 262 263 191 248 224 b 225 378 230 299 225 338 l 225 983 l 125 983 l 125 367 b 141 237 125 326 130 283 b 199 110 152 191 171 149 b 311 13 226 71 264 39 b 493 -25 358 -12 419 -25 z "},"ų":{"ha":807,"x_min":0,"x_max":0,"o":"m 725 -260 l 699 -204 b 666 -227 689 -214 678 -222 b 628 -235 653 -232 641 -235 b 579 -216 609 -235 593 -228 b 558 -168 565 -203 558 -187 b 586 -90 558 -141 568 -115 b 665 0 605 -64 631 -34 l 688 0 b 683 75 686 22 684 47 b 682 143 682 103 682 125 l 682 650 l 588 650 l 588 317 b 571 203 588 273 582 235 b 526 124 560 172 545 145 b 463 78 508 103 487 88 b 390 63 440 68 415 63 b 305 79 356 63 328 68 b 251 126 282 90 264 106 b 222 197 237 146 228 169 b 214 290 217 225 214 256 l 214 650 l 119 650 l 119 251 b 181 57 119 171 140 106 b 367 -17 222 8 284 -17 b 499 19 413 -17 457 -5 b 589 111 540 42 570 73 l 592 111 b 593 58 592 97 592 80 b 597 0 594 37 595 18 l 599 0 b 556 -38 585 -11 570 -24 b 515 -84 541 -53 527 -68 b 486 -135 503 -100 494 -117 b 475 -192 479 -153 475 -172 b 485 -240 475 -209 478 -225 b 513 -277 492 -254 502 -266 b 553 -301 525 -288 538 -296 b 600 -310 568 -307 583 -310 b 668 -297 623 -310 646 -305 b 725 -260 690 -288 709 -275 z "},"Ŵ":{"ha":1350,"x_min":0,"x_max":0,"o":"m 368 138 l 125 983 l 19 983 l 310 0 l 426 0 l 674 844 l 676 844 l 924 0 l 1040 0 l 1331 983 l 1225 983 l 985 138 l 982 138 l 736 983 l 617 983 l 371 138 z m 882 1061 l 731 1261 l 619 1261 l 468 1061 l 560 1061 l 675 1211 l 790 1061 z "},"ŵ":{"ha":1036,"x_min":0,"x_max":0,"o":"m 138 650 l 36 650 l 242 0 l 344 0 l 515 526 l 518 526 l 692 0 l 794 0 l 1000 650 l 900 650 l 744 122 l 742 122 l 564 650 l 472 650 l 297 122 l 294 122 z m 724 783 l 572 983 l 461 983 l 310 783 l 401 783 l 517 933 l 632 783 z "},"Ŷ":{"ha":836,"x_min":0,"x_max":0,"o":"m 468 0 l 468 424 l 836 983 l 719 983 l 421 507 l 125 983 l 0 983 l 368 424 l 368 0 z m 628 1061 l 476 1261 l 365 1261 l 214 1061 l 306 1061 l 421 1211 l 536 1061 z "},"ŷ":{"ha":678,"x_min":0,"x_max":0,"o":"m 349 101 l 128 650 l 22 650 l 300 1 l 247 -135 b 199 -220 233 -172 217 -200 b 122 -250 180 -240 155 -250 b 53 -239 98 -250 75 -246 l 43 -325 b 128 -333 71 -331 99 -333 b 258 -288 184 -333 228 -318 b 332 -168 288 -258 313 -218 l 656 650 l 553 650 l 351 101 z m 557 783 l 406 983 l 294 983 l 143 783 l 235 783 l 350 933 l 465 783 z "},"Ź":{"ha":794,"x_min":0,"x_max":0,"o":"m 743 900 l 743 983 l 58 983 l 58 894 l 618 894 l 43 83 l 43 0 l 751 0 l 751 89 l 169 89 z m 415 1061 l 599 1261 l 472 1261 l 333 1061 z "},"ź":{"ha":614,"x_min":0,"x_max":0,"o":"m 557 583 l 557 650 l 63 650 l 63 571 l 431 571 l 43 67 l 43 0 l 571 0 l 571 82 l 168 82 z m 335 783 l 518 983 l 392 983 l 253 783 z "},"Ż":{"ha":794,"x_min":0,"x_max":0,"o":"m 743 900 l 743 983 l 58 983 l 58 894 l 618 894 l 43 83 l 43 0 l 751 0 l 751 89 l 169 89 z m 463 1178 b 442 1226 463 1197 456 1213 b 396 1244 428 1238 413 1244 b 350 1226 379 1244 364 1238 b 329 1178 336 1213 329 1197 b 350 1130 329 1158 336 1142 b 396 1111 364 1117 379 1111 b 442 1130 413 1111 428 1117 b 463 1178 456 1142 463 1158 z "},"ż":{"ha":614,"x_min":0,"x_max":0,"o":"m 557 583 l 557 650 l 63 650 l 63 571 l 431 571 l 43 67 l 43 0 l 571 0 l 571 82 l 168 82 z m 375 900 b 354 948 375 919 368 935 b 308 967 340 960 325 967 b 263 948 292 967 276 960 b 242 900 249 935 242 919 b 263 852 242 881 249 865 b 308 833 276 840 292 833 b 354 852 325 833 340 840 b 375 900 368 865 375 881 z "},"ƒ":{"ha":806,"x_min":0,"x_max":0,"o":"m 614 507 l 614 582 l 464 582 l 494 756 b 506 806 497 770 501 787 b 526 858 510 824 517 842 b 563 900 536 875 548 889 b 619 917 577 911 596 917 b 660 911 633 917 647 915 b 699 893 674 907 687 901 l 746 960 b 684 990 727 973 707 983 b 614 1000 661 997 638 1000 b 525 982 579 1000 549 994 b 464 933 501 970 481 954 b 425 864 447 913 434 890 b 403 782 416 838 408 811 l 365 582 l 200 582 l 200 507 l 350 507 l 263 38 b 251 -15 260 20 256 2 b 230 -62 246 -33 239 -49 b 196 -97 221 -76 210 -88 b 143 -110 182 -105 164 -110 b 69 -92 116 -110 92 -104 l 32 -168 b 83 -188 49 -178 66 -185 b 140 -193 101 -191 120 -193 b 234 -174 177 -193 209 -187 b 297 -125 259 -162 280 -145 b 335 -57 313 -105 325 -82 b 356 18 344 -32 351 -7 l 449 507 z "},"Ș":{"ha":783,"x_min":0,"x_max":0,"o":"m 607 825 l 686 889 b 579 973 662 921 626 949 b 408 1008 532 997 475 1008 b 299 993 372 1008 336 1003 b 197 944 262 983 228 967 b 123 860 167 922 142 894 b 94 738 104 825 94 785 b 117 625 94 693 102 656 b 178 548 133 594 153 569 b 263 497 203 527 231 510 b 358 463 294 484 326 473 b 449 432 390 452 420 442 b 525 394 477 422 503 409 b 578 337 547 378 565 359 b 599 251 592 314 599 286 b 578 169 599 220 592 192 b 527 109 565 145 548 125 b 457 73 506 93 483 81 b 381 61 431 65 406 61 b 245 97 329 61 284 73 b 156 185 207 120 177 150 l 69 121 b 131 57 87 97 107 75 b 206 11 154 38 179 23 b 290 -16 232 -1 261 -10 b 379 -25 320 -22 350 -25 b 495 -8 418 -25 457 -19 b 598 43 534 3 568 20 b 672 131 628 66 653 96 b 700 258 691 167 700 209 b 674 380 700 307 691 348 b 606 459 656 412 633 438 b 512 510 578 480 547 497 b 408 546 477 523 443 535 b 328 574 381 555 354 564 b 260 609 303 583 280 595 b 213 661 241 623 225 641 b 194 739 200 681 194 707 b 213 821 194 770 201 798 b 263 878 226 844 242 863 b 331 913 283 894 306 905 b 404 924 356 920 380 924 b 525 897 451 924 492 915 b 607 825 558 878 586 855 z m 364 -319 l 469 -62 l 371 -62 l 285 -319 z "},"ș":{"ha":617,"x_min":0,"x_max":0,"o":"m 471 496 l 543 550 b 447 636 522 587 490 616 b 315 667 405 656 361 667 b 229 656 286 667 257 663 b 155 622 201 648 177 637 b 103 563 133 606 116 587 b 83 478 90 540 83 511 b 101 401 83 447 89 422 b 147 351 113 381 129 364 b 208 320 166 337 186 327 b 269 303 229 313 250 307 b 412 255 331 288 379 272 b 461 178 445 238 461 212 b 449 124 461 156 457 139 b 415 89 440 110 429 98 b 367 69 401 80 385 73 b 308 64 348 66 329 64 b 201 93 269 64 234 74 b 128 165 169 113 144 137 l 53 110 b 167 14 82 66 120 34 b 310 -17 213 -6 261 -17 b 398 -6 339 -17 369 -13 b 476 28 427 1 453 12 b 533 91 500 45 518 66 b 554 185 547 116 554 148 b 499 306 554 236 536 276 b 329 375 463 336 406 359 b 211 416 275 386 236 400 b 174 486 186 432 174 456 b 185 532 174 504 178 519 b 217 564 193 545 204 556 b 261 582 230 572 244 578 b 311 588 278 586 294 588 b 408 562 347 588 379 579 b 471 496 436 545 457 523 z m 274 -319 l 379 -62 l 281 -62 l 194 -319 z "},"Ț":{"ha":792,"x_min":0,"x_max":0,"o":"m 446 0 l 446 894 l 775 894 l 775 983 l 17 983 l 17 894 l 346 894 l 346 0 z m 364 -319 l 469 -62 l 371 -62 l 285 -319 z "},"ț":{"ha":440,"x_min":0,"x_max":0,"o":"m 418 571 l 418 650 l 235 650 l 235 833 l 140 833 l 140 650 l 6 650 l 6 571 l 140 571 l 140 165 b 156 78 140 129 146 100 b 197 25 167 56 181 38 b 251 -1 214 12 232 3 b 307 -8 271 -6 289 -8 b 366 -3 328 -8 348 -7 b 418 11 384 0 401 5 l 414 93 b 373 78 401 87 387 81 b 332 72 359 74 345 72 b 293 77 318 72 305 74 b 262 95 281 80 271 86 b 242 132 253 104 246 116 b 235 192 237 148 235 168 l 235 571 z m 242 -319 l 347 -62 l 249 -62 l 163 -319 z "},"ˆ":{"ha":333,"x_min":0,"x_max":0,"o":"m 374 783 l 222 983 l 111 983 l -40 783 l 51 783 l 167 933 l 282 783 z "},"ˇ":{"ha":333,"x_min":0,"x_max":0,"o":"m 222 783 l 374 983 l 282 983 l 167 833 l 51 983 l -40 983 l 111 783 z "},"ˉ":{"ha":333,"x_min":0,"x_max":0,"o":"m 354 1111 l 354 1186 l -21 1186 l -21 1111 z "},"˘":{"ha":333,"x_min":0,"x_max":0,"o":"m 371 983 l 310 983 b 260 902 303 947 287 920 b 167 875 233 884 202 875 b 74 902 131 875 100 884 b 24 983 47 920 30 947 l -37 983 b 24 848 -34 925 -13 880 b 167 800 62 816 109 800 b 309 848 224 800 272 816 b 371 983 347 880 367 925 z "},"˙":{"ha":333,"x_min":0,"x_max":0,"o":"m 233 900 b 213 948 233 919 226 935 b 167 967 199 960 183 967 b 121 948 150 967 135 960 b 100 900 107 935 100 919 b 121 852 100 881 107 865 b 167 833 135 840 150 833 b 213 852 183 833 199 840 b 233 900 226 865 233 881 z "},"˚":{"ha":333,"x_min":0,"x_max":0,"o":"m 300 903 b 290 955 300 921 297 939 b 260 997 283 971 273 985 b 217 1024 248 1008 234 1017 b 167 1035 201 1031 184 1035 b 115 1024 148 1035 131 1031 b 73 997 100 1017 85 1008 b 44 955 60 985 51 971 b 33 903 37 939 33 921 b 44 851 33 884 37 867 b 73 808 51 834 60 820 b 115 781 85 796 100 787 b 167 771 131 774 148 771 b 217 781 184 771 201 774 b 260 808 234 787 248 796 b 290 851 273 820 283 834 b 300 903 297 867 300 884 z m 250 903 b 226 844 250 880 242 860 b 167 821 209 829 190 821 b 108 844 144 821 124 829 b 83 903 91 860 83 880 b 108 961 83 926 91 945 b 167 985 124 977 144 985 b 226 961 190 985 209 977 b 250 903 242 945 250 926 z "},"˛":{"ha":333,"x_min":0,"x_max":0,"o":"m 292 -260 l 265 -204 b 233 -227 256 -214 245 -222 b 194 -235 220 -232 207 -235 b 146 -216 176 -235 160 -228 b 125 -168 132 -203 125 -187 b 153 -90 125 -141 134 -115 b 232 0 171 -64 198 -34 l 165 0 b 122 -38 151 -11 137 -24 b 82 -84 107 -53 94 -68 b 53 -135 70 -100 60 -117 b 42 -192 45 -153 42 -172 b 52 -240 42 -209 45 -225 b 80 -277 59 -254 68 -266 b 119 -301 91 -288 105 -296 b 167 -310 134 -307 150 -310 b 235 -297 190 -310 213 -305 b 292 -260 257 -288 276 -275 z "}}}
